<svg width="315" height="212" viewBox="0 0 315 212" fill="none" xmlns="http://www.w3.org/2000/svg">
<g clip-path="url(#clip0)">
<path d="M107.36 195.911C107.785 196.106 108.25 196.195 108.717 196.17C109.172 196.207 109.63 196.131 110.049 195.948C110.492 195.775 110.897 195.516 111.24 195.185C111.583 194.855 111.857 194.459 112.046 194.022C112.373 193.15 112.373 192.189 112.046 191.317C111.454 189.564 110.813 187.811 110.209 186.082L109.777 185.292C109.515 184.9 109.153 184.584 108.729 184.378C108.486 184.187 108.197 184.064 107.891 184.02C107.469 183.863 107.015 183.817 106.571 183.884C105.973 183.957 105.404 184.182 104.919 184.538L104.253 185.181C103.939 185.527 103.729 185.955 103.648 186.415C103.54 186.694 103.498 186.994 103.525 187.292C103.487 187.74 103.563 188.191 103.747 188.601C104.24 190.391 104.832 192.145 105.4 193.911C105.549 194.361 105.817 194.762 106.176 195.071C106.488 195.453 106.897 195.743 107.36 195.911Z" fill="#C7AF7E"/>
<path d="M87.0127 202.418C87.2878 202.533 87.583 202.592 87.8811 202.592C88.1792 202.592 88.4743 202.534 88.7495 202.419C89.0247 202.304 89.2744 202.135 89.4843 201.923C89.6941 201.711 89.8601 201.46 89.9723 201.183C90.0849 200.913 90.1428 200.624 90.1428 200.331C90.1428 200.039 90.0849 199.749 89.9723 199.479C89.5777 198.615 89.1707 197.751 88.7391 196.886L88.1472 195.652C88.0028 195.286 87.8253 194.935 87.6169 194.602C87.3632 194.277 87.0491 194.005 86.692 193.799C86.4277 193.595 86.1157 193.462 85.7855 193.412C85.4553 193.362 85.1179 193.398 84.8052 193.515C84.4829 193.635 84.1986 193.839 83.9817 194.106C83.7648 194.373 83.6233 194.694 83.5721 195.034C83.5411 195.404 83.5411 195.776 83.5721 196.146C83.6396 196.548 83.773 196.935 83.9668 197.294L84.5587 198.529C84.9656 199.393 85.3726 200.27 85.7918 201.134C86.026 201.698 86.461 202.156 87.0127 202.418Z" fill="#C7AF7E"/>
<path d="M64.9765 197.985C65.3387 198.246 65.7649 198.404 66.2097 198.442C66.6422 198.505 67.0829 198.481 67.5064 198.373C67.9298 198.265 68.3277 198.074 68.6772 197.811C69.0267 197.548 69.3209 197.219 69.5429 196.842C69.7649 196.465 69.9104 196.048 69.9709 195.614C70.0395 195.182 70.0202 194.741 69.9143 194.316C69.8083 193.892 69.6179 193.493 69.3543 193.145C69.0172 192.737 68.7119 192.303 68.4416 191.848C68.1834 191.333 67.973 190.796 67.8129 190.243C67.7773 189.929 67.6984 189.622 67.5785 189.329C67.4699 189.068 67.3336 188.82 67.1716 188.588C66.8463 188.167 66.4229 187.832 65.9384 187.613L65.7658 187.526C65.3773 187.36 64.9527 187.296 64.5326 187.341C64.0877 187.387 63.6626 187.549 63.2994 187.811L63.1268 187.934C62.7943 188.175 62.5139 188.481 62.302 188.833C62.0901 189.185 61.9512 189.576 61.8936 189.984C61.8506 190.46 61.8506 190.94 61.8936 191.416C61.9869 192.159 62.1353 192.893 62.3375 193.614C62.692 194.85 63.2416 196.021 63.9654 197.084C64.2157 197.469 64.5649 197.781 64.9765 197.985Z" fill="#C7AF7E"/>
<path d="M38.2407 196.738C39.0573 197.06 39.9535 197.12 40.8058 196.911C41.7663 196.682 42.6095 196.108 43.1755 195.297C43.7414 194.487 43.9908 193.497 43.8763 192.515C43.6544 191.367 43.4818 190.243 43.1488 189.119C42.9515 188.452 42.7788 187.786 42.6061 187.119C42.5075 186.724 42.4089 186.329 42.3225 185.884C42.1704 184.955 41.8349 184.065 41.336 183.266V183.192C41.114 182.6 40.8798 181.957 40.6701 181.389C40.5592 181.056 40.4605 180.723 40.3248 180.402C40.0198 179.629 39.4638 178.98 38.7463 178.562C38.115 178.083 37.3274 177.859 36.5389 177.932C35.7563 178.046 35.0418 178.441 34.5289 179.044C33.9637 179.634 33.5935 180.384 33.4683 181.192C33.419 181.825 33.419 182.461 33.4683 183.094C33.4683 183.6 33.4683 184.118 33.4683 184.625C33.4683 184.859 33.4684 185.094 33.3821 185.329C33.3473 186.329 33.4892 187.328 33.8013 188.28C33.9986 188.996 34.1959 189.7 34.4056 190.403C34.6152 191.107 34.8249 191.762 35.0592 192.429C35.3333 193.117 35.6633 193.782 36.0458 194.416C36.4616 195.438 37.2447 196.267 38.2407 196.738Z" fill="#C7AF7E"/>
<path d="M132.565 208.58C133.279 208.421 133.915 208.02 134.366 207.444C134.642 207.1 134.845 206.704 134.964 206.28C135.082 205.855 135.114 205.411 135.056 204.974C134.596 203.179 134.036 201.41 133.379 199.677C132.874 198.133 132.368 196.59 131.85 195.046C131.628 194.478 131.242 193.988 130.741 193.64C130.24 193.291 129.647 193.1 129.037 193.091C128.427 193.082 127.828 193.254 127.316 193.587C126.805 193.92 126.404 194.398 126.165 194.96C125.906 195.712 125.906 196.529 126.165 197.281L127.398 201.924C127.596 202.677 127.805 203.443 128.015 204.208C128.189 205.002 128.408 205.785 128.669 206.555C128.967 207.305 129.525 207.922 130.24 208.294C130.956 208.666 131.781 208.767 132.565 208.58Z" fill="#C7AF7E"/>
<path d="M24.3929 188.28C23.9243 185.81 24.4669 181.291 23.4804 177.068C22.4939 172.845 16.0814 165.733 15.1935 163.757C15.1935 163.757 12.5793 179.389 18.4862 183.834L24.3929 188.28Z" fill="#927A46"/>
<path d="M298.844 0.689513L18.225 0.0519734C9.34404 0.0317966 2.1282 7.22439 2.10805 16.117L1.70248 195.098C1.68233 203.991 8.86551 211.216 17.7465 211.237L298.365 211.874C307.246 211.894 314.462 204.702 314.482 195.809L314.888 16.8276C314.908 7.935 307.725 0.70969 298.844 0.689513Z" fill="#3D0210"/>
<path d="M297.685 0.686879L17.0668 0.0493393C8.18584 0.0291626 0.969993 7.22176 0.949843 16.1144L0.544278 195.096C0.524128 203.988 7.7073 211.214 16.5883 211.234L297.207 211.871C306.088 211.892 313.304 204.699 313.324 195.806L313.729 16.825C313.749 7.93236 306.566 0.707055 297.685 0.686879Z" fill="#6C2037"/>
<path d="M105.596 0.337264L103.586 0.332697L103.106 212.159L105.116 212.164L105.596 0.337264Z" fill="#BFA172"/>
<path d="M313.593 108.604L313.604 103.813L-0.0146381 103.1L-0.0254942 107.891L313.593 108.604Z" fill="#BFA172"/>
<path d="M104.881 106.426C104.761 106.467 104.632 106.472 104.51 106.442C104.387 106.411 104.276 106.346 104.19 106.253C97.4202 99.0049 85.3598 89.3489 72.5966 79.0878C50.8065 61.6404 30.2249 45.1683 32.7776 38.34C33.6285 36.0556 36.7114 35.0431 42.1866 35.253C66.554 36.2038 100.145 73.7165 105.337 105.636C105.361 105.777 105.338 105.923 105.271 106.05C105.204 106.177 105.097 106.279 104.967 106.339L104.881 106.426ZM36.2058 37.1299C35.726 37.2271 35.2755 37.4351 34.8902 37.7374C34.5048 38.0396 34.1952 38.4277 33.9861 38.8709C31.7664 44.8349 53.877 62.5294 73.4474 78.1494C85.3351 87.6696 96.6062 96.6712 103.635 103.796C97.4694 72.8275 65.4071 37.5619 42.1496 36.6605C40.156 36.4869 38.1476 36.6456 36.2058 37.1299Z" fill="#BFA172"/>
<path d="M124.537 101.24C118.091 103.347 111.496 104.965 104.807 106.08C104.708 106.098 104.607 106.093 104.51 106.065C104.414 106.037 104.326 105.987 104.252 105.92C104.178 105.85 104.121 105.766 104.083 105.672C104.044 105.578 104.026 105.478 104.03 105.377C104.646 95.4982 113.291 83.2984 124.586 76.4577C134.452 70.506 144.675 69.4071 153.492 73.3707C157.956 75.3834 158.61 77.9888 158.425 79.841C157.401 87.0274 141.851 95.671 124.537 101.24ZM105.411 104.611C130.074 100.45 155.971 87.9783 157.019 79.6559C157.278 77.6432 155.897 75.9514 152.912 74.5931C144.514 70.8888 134.686 71.8892 125.265 77.6062C114.623 84.0395 106.422 95.2635 105.411 104.611Z" fill="#BFA172"/>
<path d="M119.84 180.945C118.25 181.464 116.005 180.612 113.046 178.34C97.9394 166.844 93.315 127.911 104.241 105.265C104.301 105.135 104.403 105.028 104.53 104.961C104.657 104.894 104.802 104.871 104.944 104.895C105.087 104.915 105.22 104.981 105.322 105.084C105.425 105.186 105.491 105.319 105.511 105.463C106.584 113.069 109.938 124.577 113.49 136.752C120.654 161.25 125.007 177.5 120.568 180.587C120.347 180.746 120.101 180.867 119.84 180.945ZM104.537 107.846C94.9551 130.257 99.6042 166.412 113.86 177.278C116.696 179.439 118.792 180.204 119.803 179.488C123.774 176.747 117.633 155.694 112.207 137.123C108.964 126.022 105.881 115.428 104.537 107.846Z" fill="#BFA172"/>
<path d="M104.881 106.426C104.781 106.457 104.673 106.457 104.573 106.426C104.43 106.404 104.299 106.337 104.197 106.235C104.095 106.133 104.028 106.001 104.006 105.858C101.835 90.4232 100.763 57.7016 112.28 44.2424C113.679 42.4905 115.449 41.0711 117.462 40.0868C119.475 39.1024 121.681 38.5775 123.922 38.5499C126.795 38.5499 128.854 39.4514 130.013 41.3529C134.946 49.379 122.306 73.3709 112.169 92.6459C109.592 97.585 107.15 102.203 105.276 106.055C105.243 106.143 105.19 106.222 105.121 106.286C105.053 106.351 104.971 106.398 104.881 106.426ZM119.901 40.5628C117.314 41.4358 115.024 43.0188 113.292 45.1314C103.895 56.1087 102.44 82.6071 105.054 103.512C106.768 100.067 108.827 96.1033 110.985 92.0408C120.432 74.0747 133.38 49.4532 128.866 42.0815C127.954 40.5875 126.4 39.8836 123.934 39.9083C122.564 39.9214 121.205 40.1421 119.901 40.5628Z" fill="#BFA172"/>
<g style="mix-blend-mode:screen" opacity="0.1">
<path d="M90.3182 22.0778L139.262 22.1891C122.923 29.8324 111.368 46.1438 112.293 64.4062C114.155 91.3245 139.078 101.005 139.016 132.715C138.555 142.36 135.662 151.732 130.608 159.956C125.554 168.18 118.502 174.989 110.11 179.748L66 167.153C73.5127 163.972 79.9076 158.621 84.3668 151.783C88.8261 144.944 91.1472 136.93 91.0333 128.763C90.1331 103.784 66.1604 92.189 66.2344 63.3198C66.142 54.9059 68.3337 46.6249 72.5754 39.3612C76.8172 32.0974 82.9498 26.1235 90.3182 22.0778Z" fill="white"/>
</g>
<path d="M104.007 105.883C104.007 105.883 74.4106 177.71 50.9804 152.249C27.5503 126.788 104.007 105.883 104.007 105.883Z" stroke="#BFA172" stroke-miterlimit="10"/>
<path d="M104.006 105.883C104.006 105.883 123.169 156.064 138.535 137.987C153.9 119.91 104.006 105.883 104.006 105.883Z" stroke="#BFA172" stroke-miterlimit="10"/>
<path d="M103.599 106.018C105.165 104.956 131.839 43.0446 114.167 25.3625C96.496 7.68043 85.8043 61.1712 105.165 104.957" stroke="#C7AF7E" stroke-miterlimit="10"/>
<path d="M313.607 164.189C313.2 163.053 312.904 161.905 312.596 160.744C312.288 159.583 312.041 158.423 311.881 157.237C312.3 158.361 312.584 159.522 312.892 160.67C313.2 161.818 313.447 162.991 313.607 164.189Z" fill="#3C3430"/>
<path d="M220.776 158.669H229.577C228.109 159.308 226.864 160.37 226 161.72C225.137 163.07 224.694 164.647 224.728 166.25C225.059 171.092 229.536 172.835 229.536 178.535C229.447 180.271 228.924 181.956 228.014 183.436C227.103 184.916 225.835 186.142 224.327 187.002L216.396 184.733C217.749 184.159 218.899 183.194 219.701 181.962C220.504 180.73 220.921 179.286 220.9 177.816C220.735 173.32 216.424 171.244 216.438 166.056C216.421 164.546 216.817 163.06 217.581 161.759C218.346 160.457 219.45 159.389 220.776 158.669Z" fill="white"/>
<path d="M239.527 182.395V164.756H234.18V158.697H251.961V164.742H246.601V182.367L239.527 182.395Z" fill="white"/>
<path d="M161.545 170.511C161.554 172.947 162.283 175.325 163.64 177.346C164.996 179.367 166.92 180.942 169.168 181.871C171.417 182.8 173.889 183.041 176.275 182.566C178.66 182.091 180.852 180.919 182.573 179.199L177.751 174.343C176.673 175.345 175.257 175.901 173.786 175.901C172.315 175.901 170.899 175.345 169.821 174.343C168.785 173.279 168.206 171.852 168.206 170.366C168.206 168.88 168.785 167.453 169.821 166.389C170.867 165.389 172.257 164.831 173.703 164.831C175.149 164.831 176.54 165.389 177.586 166.389L182.435 161.56C181.278 160.399 179.901 159.48 178.385 158.857C176.869 158.235 175.244 157.92 173.605 157.933C171.967 157.946 170.347 158.286 168.841 158.932C167.335 159.579 165.972 160.519 164.833 161.698C162.713 164.144 161.546 167.273 161.545 170.511Z" fill="white"/>
<path d="M198.449 182.824C196.005 182.828 193.614 182.107 191.579 180.75C189.544 179.393 187.957 177.462 187.02 175.201C186.082 172.941 185.835 170.452 186.31 168.051C186.785 165.65 187.962 163.444 189.69 161.712C192.032 159.385 195.198 158.079 198.498 158.079C201.798 158.079 204.964 159.385 207.306 161.712C209.026 163.452 210.192 165.663 210.656 168.066C211.12 170.469 210.861 172.956 209.913 175.212C208.965 177.468 207.369 179.392 205.329 180.739C203.288 182.087 200.894 182.798 198.449 182.783V182.824ZM198.325 164.839C197.232 164.839 196.164 165.164 195.255 165.772C194.346 166.38 193.637 167.244 193.219 168.255C192.801 169.267 192.692 170.379 192.905 171.453C193.118 172.526 193.644 173.512 194.417 174.286C195.19 175.06 196.175 175.587 197.247 175.8C198.319 176.014 199.43 175.904 200.44 175.485C201.45 175.066 202.313 174.357 202.92 173.447C203.528 172.537 203.852 171.467 203.852 170.373C203.852 168.905 203.269 167.498 202.233 166.46C201.197 165.422 199.791 164.839 198.325 164.839Z" fill="white"/>
<path d="M261.795 182.437H254.541L262.195 158.779H270.817L278.36 182.478H270.941L269.919 178.327H262.665L261.795 182.437ZM266.147 164.119L263.881 173.112H268.551L266.326 164.106L266.147 164.119Z" fill="white"/>
<path opacity="0.5" d="M189.701 148.976C189.636 149.288 189.551 149.679 189.447 150.148C189.356 150.616 189.245 151.111 189.115 151.632C188.998 152.153 188.854 152.667 188.685 153.175C188.529 153.696 188.353 154.158 188.158 154.562C187.962 154.978 187.748 155.317 187.513 155.577C187.279 155.838 187.018 155.968 186.732 155.968C186.302 155.968 185.931 155.838 185.619 155.577C185.319 155.33 185.065 155.011 184.857 154.62C184.649 154.243 184.499 153.832 184.408 153.39C184.304 152.947 184.252 152.537 184.252 152.159C184.252 151.638 184.297 151.202 184.388 150.851C184.479 150.512 184.636 150.187 184.857 149.874C185.091 149.562 185.404 149.23 185.794 148.878C186.185 148.526 186.686 148.09 187.298 147.569C187.598 147.309 187.884 147.062 188.158 146.827C188.431 146.593 188.692 146.378 188.939 146.183C189.004 145.922 189.063 145.681 189.115 145.46C189.18 145.226 189.232 145.017 189.271 144.835C188.933 145.291 188.522 145.675 188.041 145.987C187.572 146.3 187.031 146.456 186.419 146.456C185.86 146.456 185.404 146.209 185.052 145.714C184.714 145.206 184.544 144.464 184.544 143.487C184.544 143.006 184.636 142.452 184.818 141.827C185 141.202 185.261 140.616 185.599 140.069C185.938 139.523 186.354 139.06 186.849 138.683C187.344 138.305 187.897 138.116 188.509 138.116C188.796 138.116 189.043 138.188 189.252 138.331C189.46 138.474 189.636 138.657 189.779 138.878C189.922 139.086 190.033 139.314 190.111 139.562C190.189 139.796 190.248 140.017 190.287 140.226C190.313 140.148 190.332 140.069 190.345 139.991C190.358 139.9 190.378 139.822 190.404 139.757C190.534 139.314 190.677 139.015 190.834 138.858C191.003 138.689 191.25 138.605 191.576 138.605C191.758 138.605 191.908 138.637 192.025 138.702C192.155 138.767 192.22 138.826 192.22 138.878C192.155 139.021 192.103 139.132 192.064 139.21C192.025 139.288 191.986 139.373 191.947 139.464C191.908 139.542 191.869 139.646 191.83 139.776C191.791 139.907 191.738 140.095 191.673 140.343C191.647 140.434 191.595 140.649 191.517 140.987C191.452 141.313 191.361 141.704 191.244 142.159C191.14 142.615 191.022 143.116 190.892 143.663C190.775 144.21 190.658 144.744 190.541 145.265C190.905 145.056 191.283 144.803 191.673 144.503C192.064 144.204 192.435 143.898 192.787 143.585C193.138 143.273 193.451 142.98 193.724 142.706C193.998 142.42 194.199 142.185 194.33 142.003C194.434 141.847 194.551 141.736 194.681 141.671C194.811 141.606 194.922 141.586 195.013 141.612C195.117 141.625 195.176 141.684 195.189 141.788C195.215 141.879 195.176 142.01 195.072 142.179C194.772 142.661 194.408 143.129 193.978 143.585C193.548 144.028 193.106 144.444 192.65 144.835C192.207 145.213 191.771 145.551 191.341 145.851C190.925 146.137 190.567 146.372 190.267 146.554C190.137 147.14 190.026 147.615 189.935 147.98C189.844 148.344 189.766 148.676 189.701 148.976ZM187.24 145.128C187.513 145.128 187.767 145.056 188.002 144.913C188.249 144.77 188.47 144.607 188.666 144.425C188.861 144.23 189.024 144.034 189.154 143.839C189.284 143.644 189.382 143.487 189.447 143.37C189.499 143.253 189.558 143.097 189.623 142.901C189.701 142.706 189.759 142.517 189.798 142.335C189.837 142.153 189.85 141.99 189.837 141.847C189.837 141.704 189.792 141.625 189.701 141.612C189.623 141.599 189.558 141.547 189.505 141.456C189.466 141.365 189.434 141.261 189.408 141.144C189.382 141.026 189.362 140.909 189.349 140.792C189.349 140.675 189.343 140.571 189.33 140.48C189.265 140.024 189.154 139.692 188.998 139.483C188.841 139.275 188.666 139.171 188.47 139.171C188.145 139.171 187.832 139.301 187.533 139.562C187.246 139.822 186.986 140.161 186.752 140.577C186.53 140.981 186.354 141.43 186.224 141.925C186.094 142.407 186.029 142.869 186.029 143.312C186.029 143.858 186.107 144.301 186.263 144.64C186.419 144.965 186.745 145.128 187.24 145.128ZM186.341 154.191C186.602 154.191 186.81 153.995 186.966 153.605C187.136 153.227 187.311 152.706 187.494 152.042C187.533 151.886 187.585 151.658 187.65 151.358C187.728 151.072 187.813 150.74 187.904 150.362C188.008 149.985 188.112 149.575 188.216 149.132C188.321 148.702 188.431 148.266 188.548 147.823C188.444 147.914 188.334 148.006 188.216 148.097C188.112 148.201 188.002 148.318 187.884 148.448C187.598 148.722 187.318 148.982 187.044 149.23C186.784 149.49 186.55 149.757 186.341 150.03C186.133 150.317 185.964 150.623 185.834 150.948C185.716 151.274 185.658 151.651 185.658 152.081C185.658 152.511 185.671 152.862 185.697 153.136C185.736 153.409 185.781 153.624 185.834 153.78C185.899 153.937 185.97 154.041 186.048 154.093C186.14 154.158 186.237 154.191 186.341 154.191ZM198.041 134.679C198.002 134.822 197.923 134.965 197.806 135.108C197.702 135.239 197.578 135.349 197.435 135.441C197.305 135.519 197.168 135.571 197.025 135.597C196.882 135.623 196.765 135.597 196.673 135.519C196.4 135.31 196.257 135.089 196.244 134.855C196.231 134.607 196.289 134.379 196.419 134.171C196.55 133.95 196.712 133.767 196.908 133.624C197.103 133.468 197.272 133.377 197.416 133.351C197.559 133.325 197.676 133.357 197.767 133.448C197.871 133.526 197.949 133.637 198.002 133.78C198.054 133.911 198.08 134.06 198.08 134.23C198.093 134.399 198.08 134.549 198.041 134.679ZM195.345 138.839C195.41 138.761 195.534 138.696 195.716 138.644C195.899 138.592 196.087 138.553 196.283 138.526C196.478 138.487 196.654 138.468 196.81 138.468C196.979 138.455 197.077 138.455 197.103 138.468C197.116 138.481 197.084 138.618 197.005 138.878C196.927 139.138 196.83 139.444 196.712 139.796C196.595 140.148 196.472 140.512 196.341 140.89C196.211 141.254 196.113 141.554 196.048 141.788C195.983 142.023 195.905 142.289 195.814 142.589C195.723 142.875 195.638 143.162 195.56 143.448C195.495 143.722 195.449 143.982 195.423 144.23C195.397 144.477 195.417 144.666 195.482 144.796C195.547 144.952 195.619 145.063 195.697 145.128C195.775 145.18 195.86 145.206 195.951 145.206C196.211 145.206 196.537 145.063 196.927 144.776C197.331 144.49 197.735 144.151 198.138 143.761C198.555 143.357 198.939 142.954 199.291 142.55C199.642 142.133 199.903 141.801 200.072 141.554C200.176 141.424 200.28 141.339 200.384 141.3C200.502 141.261 200.593 141.267 200.658 141.319C200.736 141.372 200.775 141.456 200.775 141.573C200.788 141.691 200.749 141.827 200.658 141.983C200.449 142.348 200.143 142.784 199.74 143.292C199.336 143.787 198.906 144.269 198.451 144.737C197.995 145.193 197.546 145.584 197.103 145.909C196.673 146.235 196.322 146.404 196.048 146.417C195.827 146.43 195.606 146.391 195.384 146.3C195.176 146.222 194.981 146.111 194.798 145.968C194.629 145.812 194.486 145.636 194.369 145.441C194.252 145.232 194.186 145.017 194.173 144.796C194.134 144.47 194.134 144.028 194.173 143.468C194.212 142.895 194.284 142.316 194.388 141.73C194.492 141.131 194.623 140.564 194.779 140.03C194.948 139.497 195.137 139.099 195.345 138.839ZM199.623 144.151C199.479 144.008 199.375 143.872 199.31 143.741C199.258 143.598 199.219 143.461 199.193 143.331C199.167 143.188 199.167 143.045 199.193 142.901C199.245 142.719 199.323 142.55 199.427 142.394C199.518 142.25 199.642 142.107 199.798 141.964C199.955 141.808 200.163 141.664 200.423 141.534C200.593 141.118 200.742 140.681 200.873 140.226C201.016 139.757 201.14 139.334 201.244 138.956C201.361 138.513 201.465 138.071 201.556 137.628C201.882 136.521 202.051 135.623 202.064 134.933C202.077 134.23 202.064 133.767 202.025 133.546C202.012 133.455 201.999 133.364 201.986 133.273C201.96 133.194 201.934 133.11 201.908 133.019C201.895 132.914 201.875 132.817 201.849 132.726C201.992 132.648 202.116 132.582 202.22 132.53C202.337 132.478 202.435 132.439 202.513 132.413C202.604 132.374 202.689 132.348 202.767 132.335C203.067 132.27 203.347 132.237 203.607 132.237C203.88 132.224 204.03 132.27 204.056 132.374C204.069 132.439 204.082 132.556 204.095 132.726C204.121 132.895 204.134 133.103 204.134 133.351C204.134 133.598 204.115 133.878 204.076 134.191C204.037 134.49 203.965 134.809 203.861 135.148C203.77 135.447 203.646 135.864 203.49 136.398C203.347 136.853 203.158 137.465 202.923 138.233C202.689 138.989 202.383 139.959 202.005 141.144C202.396 141.013 202.826 140.89 203.294 140.773C203.763 140.655 204.238 140.558 204.72 140.48C205.215 140.401 205.703 140.343 206.185 140.304C206.68 140.265 207.136 140.258 207.552 140.284C207.63 140.284 207.683 140.323 207.709 140.401C207.748 140.467 207.748 140.538 207.709 140.616C207.683 140.694 207.611 140.773 207.494 140.851C207.39 140.916 207.233 140.955 207.025 140.968C206.765 140.994 206.478 141.026 206.166 141.066C205.853 141.092 205.528 141.137 205.189 141.202C204.863 141.254 204.538 141.326 204.212 141.417C203.887 141.495 203.581 141.593 203.294 141.71C203.073 141.788 202.852 141.866 202.63 141.944C202.448 142.01 202.253 142.088 202.044 142.179C201.849 142.257 201.686 142.329 201.556 142.394L201.107 143.819C201.862 144.353 202.442 144.9 202.845 145.46C203.262 146.02 203.561 146.534 203.744 147.003C203.965 147.55 204.089 148.084 204.115 148.605C204.115 149.178 204.03 149.75 203.861 150.323C203.692 150.909 203.464 151.463 203.177 151.983C202.904 152.517 202.578 153.012 202.201 153.468C201.836 153.924 201.446 154.314 201.029 154.64C200.625 154.965 200.209 155.213 199.779 155.382C199.362 155.551 198.965 155.616 198.587 155.577C198.314 155.551 198.086 155.46 197.904 155.304C197.722 155.161 197.585 154.972 197.494 154.737C197.403 154.516 197.35 154.262 197.337 153.976C197.324 153.702 197.35 153.429 197.416 153.155C197.468 152.882 197.578 152.374 197.748 151.632C197.891 151.007 198.112 150.095 198.412 148.898C198.711 147.713 199.115 146.131 199.623 144.151ZM200.775 145.069C200.593 145.72 200.43 146.319 200.287 146.866C200.156 147.413 200.046 147.895 199.955 148.312C199.837 148.793 199.746 149.23 199.681 149.62C199.564 150.115 199.44 150.603 199.31 151.085C199.193 151.567 199.102 151.997 199.037 152.374C198.959 152.765 198.926 153.077 198.939 153.312C198.952 153.546 199.037 153.663 199.193 153.663C199.571 153.689 199.961 153.539 200.365 153.214C200.781 152.901 201.159 152.498 201.498 152.003C201.836 151.521 202.116 150.994 202.337 150.421C202.559 149.861 202.669 149.34 202.669 148.858C202.669 148.325 202.585 147.797 202.416 147.276C202.298 147.003 202.162 146.736 202.005 146.476C201.862 146.254 201.686 146.02 201.478 145.773C201.283 145.512 201.048 145.278 200.775 145.069ZM212.943 141.241C212.995 141.163 213.06 141.118 213.138 141.105C213.229 141.079 213.301 141.085 213.353 141.124C213.405 141.163 213.431 141.228 213.431 141.319C213.444 141.411 213.412 141.534 213.334 141.691C213.073 142.185 212.728 142.719 212.298 143.292C211.882 143.865 211.439 144.405 210.97 144.913C210.502 145.408 210.046 145.818 209.603 146.144C209.16 146.469 208.789 146.632 208.49 146.632C208.06 146.632 207.702 146.547 207.416 146.378C207.129 146.209 206.901 146 206.732 145.753C206.576 145.506 206.465 145.239 206.4 144.952C206.335 144.653 206.315 144.379 206.341 144.132C206.354 143.924 206.4 143.553 206.478 143.019C206.556 142.472 206.66 141.847 206.791 141.144C206.921 140.428 207.064 139.666 207.22 138.858C207.39 138.038 207.565 137.25 207.748 136.495C207.526 136.521 207.305 136.547 207.084 136.573C206.862 136.599 206.66 136.612 206.478 136.612C206.061 136.612 205.671 136.567 205.306 136.476C204.929 136.372 204.649 136.274 204.466 136.183C204.362 136.131 204.317 136.059 204.33 135.968C204.343 135.864 204.382 135.766 204.447 135.675C204.512 135.571 204.597 135.486 204.701 135.421C204.792 135.343 204.877 135.304 204.955 135.304C205.202 135.33 205.469 135.356 205.755 135.382C206.042 135.395 206.354 135.395 206.693 135.382C206.94 135.369 207.175 135.349 207.396 135.323C207.63 135.297 207.858 135.265 208.08 135.226C208.249 134.601 208.412 134.06 208.568 133.605C208.737 133.136 208.887 132.81 209.017 132.628C209.056 132.563 209.141 132.511 209.271 132.472C209.414 132.42 209.564 132.387 209.72 132.374C209.877 132.348 210.026 132.348 210.169 132.374C210.313 132.387 210.417 132.433 210.482 132.511C210.547 132.615 210.573 132.882 210.56 133.312C210.547 133.741 210.475 134.288 210.345 134.952C210.892 134.952 211.374 134.985 211.791 135.05C212.22 135.102 212.585 135.167 212.884 135.245C213.184 135.31 213.425 135.382 213.607 135.46C213.789 135.525 213.926 135.571 214.017 135.597C214.108 135.623 214.154 135.688 214.154 135.792C214.167 135.896 214.147 136.007 214.095 136.124C214.056 136.228 213.985 136.319 213.88 136.398C213.776 136.476 213.659 136.502 213.529 136.476C213.399 136.463 213.249 136.437 213.08 136.398C212.923 136.358 212.728 136.326 212.494 136.3C212.272 136.274 212.005 136.248 211.693 136.222C211.38 136.196 211.016 136.183 210.599 136.183C210.521 136.183 210.43 136.189 210.326 136.202C210.235 136.202 210.137 136.202 210.033 136.202C209.981 136.411 209.929 136.619 209.877 136.827C209.837 137.023 209.779 137.231 209.701 137.452C209.531 137.973 209.336 138.539 209.115 139.151C208.919 139.685 208.685 140.297 208.412 140.987C208.138 141.678 207.832 142.413 207.494 143.194C207.416 143.754 207.422 144.184 207.513 144.483C207.617 144.77 207.741 144.978 207.884 145.108C208.054 145.252 208.262 145.33 208.509 145.343C208.705 145.369 208.939 145.304 209.212 145.148C209.499 144.978 209.792 144.757 210.091 144.483C210.391 144.21 210.69 143.911 210.99 143.585C211.302 143.26 211.589 142.941 211.849 142.628C212.11 142.316 212.337 142.036 212.533 141.788C212.728 141.528 212.865 141.345 212.943 141.241ZM220.697 145.519C221.1 145.519 221.543 145.362 222.025 145.05C222.52 144.724 222.995 144.347 223.451 143.917C223.919 143.487 224.343 143.051 224.72 142.608C225.111 142.153 225.404 141.788 225.599 141.515C225.716 141.345 225.827 141.248 225.931 141.222C226.035 141.183 226.113 141.196 226.166 141.261C226.218 141.326 226.237 141.43 226.224 141.573C226.211 141.704 226.153 141.853 226.048 142.023C225.957 142.179 225.801 142.407 225.58 142.706C225.371 142.993 225.117 143.312 224.818 143.663C224.531 144.002 224.199 144.353 223.822 144.718C223.457 145.069 223.073 145.395 222.669 145.694C222.266 145.981 221.849 146.215 221.419 146.398C220.99 146.593 220.567 146.691 220.15 146.691C219.577 146.691 219.095 146.58 218.705 146.358C218.327 146.15 218.021 145.877 217.787 145.538C217.565 145.2 217.409 144.829 217.318 144.425C217.227 144.008 217.181 143.598 217.181 143.194C217.181 142.791 217.272 142.289 217.455 141.691C217.637 141.092 217.904 140.519 218.255 139.972C218.62 139.412 219.076 138.937 219.623 138.546C220.169 138.142 220.814 137.941 221.556 137.941C221.973 137.941 222.324 138.084 222.611 138.37C222.91 138.657 223.054 139.047 223.041 139.542C223.041 139.776 223.002 140.011 222.923 140.245C222.845 140.467 222.741 140.668 222.611 140.851C222.481 141.02 222.324 141.157 222.142 141.261C221.973 141.365 221.784 141.417 221.576 141.417C221.406 141.417 221.276 141.358 221.185 141.241C221.107 141.111 221.055 140.968 221.029 140.812C221.016 140.642 221.016 140.48 221.029 140.323C221.055 140.167 221.081 140.063 221.107 140.011C221.172 139.92 221.244 139.855 221.322 139.816C221.4 139.776 221.491 139.731 221.595 139.679C221.673 139.64 221.732 139.581 221.771 139.503C221.823 139.425 221.849 139.34 221.849 139.249C221.849 139.158 221.823 139.08 221.771 139.015C221.719 138.95 221.634 138.917 221.517 138.917C221.4 138.917 221.185 139.015 220.873 139.21C220.573 139.392 220.261 139.672 219.935 140.05C219.623 140.414 219.343 140.877 219.095 141.437C218.848 141.997 218.718 142.648 218.705 143.39C218.692 143.819 218.75 144.171 218.88 144.444C219.011 144.718 219.173 144.933 219.369 145.089C219.564 145.245 219.779 145.356 220.013 145.421C220.248 145.486 220.475 145.519 220.697 145.519ZM234.662 142.296C234.479 142.556 234.245 142.882 233.959 143.273C233.672 143.65 233.373 144.034 233.06 144.425C232.761 144.803 232.461 145.154 232.162 145.48C231.875 145.792 231.634 146.013 231.439 146.144C231.309 146.222 231.159 146.287 230.99 146.339C230.821 146.391 230.645 146.424 230.462 146.437C230.293 146.45 230.13 146.437 229.974 146.398C229.818 146.372 229.681 146.319 229.564 146.241C229.447 146.15 229.349 146.02 229.271 145.851C229.206 145.707 229.141 145.519 229.076 145.284C229.024 145.05 229.004 144.757 229.017 144.405C228.705 144.926 228.36 145.33 227.982 145.616C227.604 145.89 227.246 146.092 226.908 146.222C226.517 146.365 226.127 146.45 225.736 146.476C225.554 146.476 225.358 146.411 225.15 146.28C224.942 146.163 224.766 145.974 224.623 145.714C224.479 145.441 224.388 145.095 224.349 144.679C224.31 144.249 224.362 143.741 224.505 143.155C224.688 142.361 224.974 141.638 225.365 140.987C225.768 140.336 226.205 139.783 226.673 139.327C227.142 138.858 227.604 138.507 228.06 138.273C228.516 138.038 228.893 137.934 229.193 137.96C229.544 138.025 229.831 138.129 230.052 138.273C230.235 138.403 230.352 138.598 230.404 138.858C230.469 139.106 230.365 139.438 230.091 139.855C230.274 139.816 230.423 139.789 230.541 139.776C230.671 139.763 230.768 139.757 230.834 139.757C230.912 139.757 230.964 139.763 230.99 139.776C231.003 139.803 231.009 139.861 231.009 139.952C231.009 140.03 230.99 140.18 230.951 140.401C230.912 140.623 230.853 140.922 230.775 141.3C230.697 141.678 230.593 142.166 230.462 142.765C230.436 142.882 230.41 142.993 230.384 143.097C230.371 143.188 230.352 143.286 230.326 143.39C230.313 143.481 230.293 143.592 230.267 143.722C230.241 143.852 230.209 144.015 230.169 144.21C230.156 144.327 230.15 144.457 230.15 144.601C230.163 144.731 230.189 144.855 230.228 144.972C230.267 145.089 230.326 145.187 230.404 145.265C230.495 145.33 230.619 145.362 230.775 145.362C230.905 145.362 231.074 145.284 231.283 145.128C231.491 144.959 231.712 144.75 231.947 144.503C232.181 144.243 232.422 143.963 232.669 143.663C232.93 143.351 233.171 143.051 233.392 142.765C233.613 142.478 233.809 142.224 233.978 142.003C234.16 141.782 234.291 141.619 234.369 141.515C234.473 141.398 234.577 141.332 234.681 141.319C234.785 141.293 234.863 141.319 234.916 141.398C234.968 141.476 234.974 141.593 234.935 141.749C234.909 141.905 234.818 142.088 234.662 142.296ZM228.939 143.155C229.004 142.895 229.082 142.589 229.173 142.237C229.265 141.886 229.343 141.547 229.408 141.222C229.473 140.896 229.518 140.629 229.544 140.421C229.584 140.2 229.577 140.095 229.525 140.108C229.46 140.122 229.388 140.141 229.31 140.167C229.245 140.193 229.16 140.213 229.056 140.226C228.952 140.239 228.848 140.258 228.744 140.284C228.848 140.076 228.906 139.907 228.919 139.776C228.946 139.633 228.952 139.523 228.939 139.444C228.926 139.353 228.9 139.282 228.861 139.23C228.718 139.112 228.464 139.21 228.099 139.523C227.748 139.822 227.337 140.382 226.869 141.202C226.673 141.541 226.517 141.905 226.4 142.296C226.283 142.674 226.198 143.032 226.146 143.37C226.107 143.709 226.1 144.008 226.127 144.269C226.153 144.516 226.205 144.679 226.283 144.757C226.426 144.9 226.589 144.972 226.771 144.972C226.953 144.959 227.136 144.907 227.318 144.816C227.513 144.711 227.702 144.581 227.884 144.425C228.08 144.269 228.249 144.106 228.392 143.937C228.548 143.767 228.672 143.611 228.763 143.468C228.867 143.325 228.926 143.22 228.939 143.155ZM232.611 146.085C232.52 146.228 232.422 146.319 232.318 146.358C232.201 146.411 232.103 146.417 232.025 146.378C231.934 146.352 231.875 146.287 231.849 146.183C231.823 146.079 231.849 145.948 231.927 145.792C231.966 145.714 232.058 145.538 232.201 145.265C232.331 144.991 232.494 144.666 232.689 144.288C232.871 143.898 233.073 143.481 233.294 143.038C233.516 142.582 233.724 142.153 233.919 141.749C234.128 141.345 234.317 140.987 234.486 140.675C234.655 140.349 234.779 140.115 234.857 139.972C234.714 139.842 234.616 139.75 234.564 139.698C234.512 139.633 234.473 139.503 234.447 139.308C234.421 139.138 234.46 138.917 234.564 138.644C234.668 138.37 234.805 138.11 234.974 137.862C235.143 137.602 235.332 137.381 235.541 137.198C235.749 137.016 235.951 136.925 236.146 136.925C236.511 136.925 236.765 137.042 236.908 137.276C237.064 137.511 237.155 137.752 237.181 137.999C237.207 138.168 237.194 138.383 237.142 138.644C237.09 138.904 236.992 139.138 236.849 139.347C236.888 139.373 236.94 139.405 237.005 139.444C237.071 139.47 237.175 139.483 237.318 139.483C237.526 139.483 237.669 139.47 237.748 139.444C237.839 139.418 237.975 139.405 238.158 139.405C238.379 139.405 238.561 139.464 238.705 139.581C238.848 139.685 238.965 139.822 239.056 139.991C239.147 140.148 239.212 140.323 239.252 140.519C239.304 140.701 239.336 140.87 239.349 141.026C239.388 141.352 239.304 141.691 239.095 142.042C238.887 142.394 238.633 142.778 238.334 143.194C238.151 143.455 237.969 143.748 237.787 144.073C237.604 144.399 237.526 144.692 237.552 144.952C237.578 145.122 237.624 145.258 237.689 145.362C237.754 145.467 237.936 145.519 238.236 145.519C238.457 145.519 238.698 145.441 238.959 145.284C239.232 145.115 239.505 144.907 239.779 144.659C240.065 144.399 240.345 144.119 240.619 143.819C240.892 143.507 241.146 143.207 241.38 142.921C241.615 142.622 241.81 142.355 241.966 142.12C242.136 141.886 242.259 141.717 242.337 141.612C242.403 141.508 242.487 141.437 242.591 141.398C242.696 141.358 242.787 141.358 242.865 141.398C242.943 141.437 242.988 141.515 243.002 141.632C243.028 141.749 242.982 141.905 242.865 142.101C242.787 142.231 242.65 142.439 242.455 142.726C242.272 143.012 242.044 143.331 241.771 143.683C241.511 144.034 241.218 144.399 240.892 144.776C240.567 145.141 240.222 145.48 239.857 145.792C239.505 146.092 239.147 146.339 238.783 146.534C238.431 146.73 238.093 146.827 237.767 146.827C237.429 146.827 237.149 146.762 236.927 146.632C236.706 146.502 236.524 146.345 236.38 146.163C236.25 145.968 236.153 145.76 236.087 145.538C236.035 145.304 236.016 145.089 236.029 144.894C236.042 144.737 236.081 144.575 236.146 144.405C236.224 144.223 236.309 144.041 236.4 143.858C236.504 143.663 236.608 143.474 236.712 143.292C236.83 143.097 236.934 142.908 237.025 142.726C237.246 142.348 237.422 142.029 237.552 141.769C237.696 141.495 237.767 141.267 237.767 141.085C237.767 140.968 237.741 140.864 237.689 140.773C237.637 140.681 237.552 140.636 237.435 140.636C237.357 140.636 237.298 140.642 237.259 140.655C237.233 140.655 237.201 140.655 237.162 140.655C237.136 140.655 237.09 140.662 237.025 140.675C236.973 140.675 236.888 140.675 236.771 140.675C236.602 140.675 236.459 140.649 236.341 140.597C236.224 140.545 236.113 140.506 236.009 140.48C235.957 140.571 235.84 140.766 235.658 141.066C235.475 141.365 235.261 141.717 235.013 142.12C234.779 142.524 234.525 142.947 234.252 143.39C233.991 143.832 233.744 144.249 233.509 144.64C233.275 145.017 233.08 145.343 232.923 145.616C232.754 145.877 232.65 146.033 232.611 146.085ZM247.689 142.452C247.624 142.856 247.559 143.24 247.494 143.605C247.442 143.969 247.409 144.262 247.396 144.483C247.383 144.809 247.442 145.043 247.572 145.187C247.702 145.33 247.845 145.401 248.002 145.401C248.184 145.401 248.405 145.31 248.666 145.128C248.939 144.946 249.225 144.718 249.525 144.444C249.824 144.171 250.124 143.872 250.423 143.546C250.723 143.22 250.996 142.914 251.244 142.628C251.504 142.329 251.719 142.068 251.888 141.847C252.071 141.625 252.194 141.482 252.259 141.417C252.337 141.339 252.416 141.293 252.494 141.28C252.585 141.267 252.656 141.28 252.709 141.319C252.761 141.358 252.787 141.43 252.787 141.534C252.787 141.638 252.735 141.769 252.63 141.925C252.474 142.172 252.272 142.465 252.025 142.804C251.778 143.129 251.504 143.468 251.205 143.819C250.905 144.171 250.586 144.516 250.248 144.855C249.922 145.193 249.59 145.493 249.252 145.753C248.926 146.013 248.607 146.222 248.294 146.378C247.995 146.547 247.722 146.632 247.474 146.632C247.292 146.632 247.116 146.58 246.947 146.476C246.791 146.372 246.647 146.235 246.517 146.066C246.387 145.896 246.283 145.707 246.205 145.499C246.14 145.291 246.113 145.082 246.127 144.874C246.14 144.783 246.159 144.627 246.185 144.405C245.638 145.017 245.085 145.506 244.525 145.87C243.978 146.222 243.451 146.398 242.943 146.398C242.761 146.398 242.565 146.352 242.357 146.261C242.149 146.17 241.96 146.02 241.791 145.812C241.634 145.603 241.504 145.33 241.4 144.991C241.296 144.653 241.257 144.243 241.283 143.761C241.322 143.006 241.472 142.289 241.732 141.612C241.992 140.935 242.318 140.349 242.709 139.855C243.112 139.347 243.561 138.95 244.056 138.663C244.564 138.364 245.072 138.214 245.58 138.214C245.801 138.214 246.003 138.273 246.185 138.39C246.367 138.494 246.524 138.637 246.654 138.819C246.784 138.989 246.888 139.178 246.966 139.386C247.058 139.594 247.123 139.789 247.162 139.972C247.253 139.594 247.337 139.223 247.416 138.858C247.494 138.494 247.572 138.149 247.65 137.823C247.78 137.342 247.917 136.821 248.06 136.261C248.19 135.779 248.34 135.226 248.509 134.601C248.679 133.976 248.867 133.318 249.076 132.628C249.206 132.524 249.33 132.446 249.447 132.394C249.564 132.342 249.675 132.303 249.779 132.276C249.896 132.237 250.007 132.218 250.111 132.218C250.241 132.218 250.358 132.237 250.462 132.276C250.567 132.303 250.651 132.387 250.716 132.53C250.794 132.661 250.847 132.862 250.873 133.136C250.899 133.409 250.899 133.78 250.873 134.249C250.847 134.822 250.742 135.447 250.56 136.124C250.391 136.801 250.163 137.504 249.877 138.233C249.59 138.95 249.258 139.672 248.88 140.401C248.516 141.118 248.119 141.801 247.689 142.452ZM246.537 142.706C246.589 142.459 246.634 142.211 246.673 141.964C246.725 141.717 246.784 141.463 246.849 141.202C246.823 141.215 246.797 141.228 246.771 141.241C246.758 141.254 246.738 141.267 246.712 141.28C246.569 141.345 246.472 141.345 246.419 141.28C246.367 141.202 246.341 141.085 246.341 140.929C246.341 140.851 246.335 140.714 246.322 140.519C246.309 140.31 246.27 140.102 246.205 139.894C246.153 139.672 246.068 139.483 245.951 139.327C245.834 139.158 245.671 139.073 245.462 139.073C245.163 139.073 244.857 139.23 244.544 139.542C244.232 139.842 243.939 140.213 243.666 140.655C243.392 141.085 243.164 141.547 242.982 142.042C242.8 142.537 242.696 142.98 242.669 143.37C242.643 143.995 242.722 144.444 242.904 144.718C243.086 144.991 243.334 145.128 243.646 145.128C243.88 145.128 244.134 145.037 244.408 144.855C244.694 144.672 244.968 144.451 245.228 144.191C245.502 143.93 245.749 143.663 245.97 143.39C246.205 143.116 246.393 142.888 246.537 142.706Z" fill="white"/>
</g>
<defs>
<clipPath id="clip0">
<rect width="315" height="212" fill="white"/>
</clipPath>
</defs>
</svg>
