<svg width="375" height="336" viewBox="0 0 375 336" fill="none" xmlns="http://www.w3.org/2000/svg">
<path d="M267.469 9.58155C268.508 7.1732 269.34 4.68074 269.956 2.13102C270.07 1.70779 270.017 1.25715 269.808 0.871664C269.6 0.486176 269.252 0.194997 268.836 0.0581724C268.414 -0.054976 267.965 -0.00180849 267.581 0.206702C267.197 0.415212 266.909 0.763132 266.774 1.17857C266.494 2.36619 266.158 3.53156 265.788 4.69677C265.598 5.25697 265.396 5.81718 265.194 6.38858L264.858 7.25131L264.701 7.62085L264.6 7.86758C264.69 7.66591 264.69 7.65471 264.6 7.86758C264.394 8.26787 264.335 8.72759 264.432 9.16714C264.558 9.58369 264.833 9.93883 265.206 10.1642C265.593 10.3829 266.051 10.442 266.482 10.3291C266.913 10.2162 267.283 9.94001 267.514 9.55912L267.469 9.58155Z" fill="#C7AF7E"/>
<path d="M244.423 11.7893L247.067 7.38589C247.179 7.19536 247.252 6.98462 247.282 6.76579C247.313 6.54697 247.3 6.32448 247.244 6.11068C247.188 5.89688 247.091 5.69607 246.958 5.51984C246.825 5.34362 246.658 5.19538 246.467 5.08356C246.277 4.97173 246.066 4.8984 245.847 4.86801C245.629 4.83762 245.406 4.85064 245.192 4.90631C244.978 4.96197 244.778 5.05918 244.601 5.19242C244.425 5.32566 244.277 5.49233 244.165 5.68287L241.51 10.0974C241.308 10.4782 241.259 10.9211 241.371 11.3368C241.484 11.7526 241.749 12.1104 242.115 12.3382C242.503 12.5541 242.96 12.6115 243.39 12.4988C243.82 12.3861 244.19 12.1119 244.423 11.7332V11.7893Z" fill="#C7AF7E"/>
<path d="M284.279 292.852C296.576 280.328 306.06 265.325 312.098 248.845C318.135 232.364 320.588 214.786 319.292 197.282C317.6 176.185 310.429 155.077 314.227 134.271C318.418 111.291 335.683 90.9338 333.868 67.6296C331.627 39.3619 302.172 20.8194 274.274 15.5647C238.085 8.74152 200.406 16.3153 166.525 30.5667C132.645 44.8182 101.935 65.5007 71.471 86.0488C56.2 96.3565 40.5143 107.068 30.4419 122.495C17.2212 142.763 15.5295 169.126 22.0054 192.498C28.4813 215.869 42.3517 236.597 58.3174 254.882C85.924 286.51 132.745 329.41 176.654 334.519C211.677 338.586 260.437 316.739 284.279 292.852Z" fill="#F6EAE1"/>
<path d="M143.691 259.766C144.253 259.539 144.703 259.102 144.946 258.547C145.189 257.992 145.205 257.364 144.991 256.798C144.295 255.209 143.726 253.568 143.288 251.89C143.288 251.89 143.288 251.991 143.288 252.025C143.293 251.976 143.293 251.927 143.288 251.879C143.288 251.688 143.288 251.767 143.288 251.879V251.756C143.288 251.543 143.187 251.319 143.142 251.106C143.053 250.695 142.974 250.281 142.907 249.862C142.75 248.988 142.728 248.07 142.537 247.207C142.456 246.635 142.175 246.11 141.745 245.725C141.314 245.34 140.762 245.119 140.184 245.101C139.602 245.084 139.034 245.283 138.59 245.659C138.145 246.036 137.855 246.563 137.775 247.14C137.858 249.265 138.235 251.369 138.896 253.391C139.383 255.136 140.012 256.837 140.778 258.478C141.014 259.019 141.444 259.452 141.983 259.69C142.523 259.929 143.132 259.956 143.691 259.766Z" fill="#C7AF7E"/>
<path d="M135.948 273.861L136.419 274.04L137.068 274.22C137.405 274.288 137.753 274.265 138.077 274.152C138.304 274.126 138.52 274.041 138.704 273.906C139.022 273.759 139.299 273.535 139.511 273.256C139.623 273.054 139.746 272.853 139.869 272.651L140.049 271.99C140.107 271.656 140.08 271.313 139.97 270.993C139.917 270.651 139.774 270.33 139.556 270.063L139.276 269.659C138.987 269.26 138.601 268.94 138.155 268.729C137.707 268.552 137.223 268.483 136.744 268.528L136.049 268.707C135.605 268.89 135.219 269.188 134.929 269.57C134.679 269.847 134.512 270.189 134.447 270.556C134.313 270.914 134.279 271.3 134.346 271.676C134.403 272.155 134.585 272.611 134.873 272.998C135.151 273.373 135.521 273.67 135.948 273.861Z" fill="#C7AF7E"/>
<path d="M122.189 257.391C122.621 257.601 123.1 257.694 123.578 257.66C124.469 257.687 125.339 257.382 126.018 256.805C126.697 256.227 127.137 255.418 127.253 254.534C127.315 253.572 127.315 252.606 127.253 251.643C127.13 250.686 126.939 249.739 126.682 248.809C126.517 248.161 126.312 247.525 126.066 246.904C125.879 246.39 125.592 245.918 125.221 245.515C124.849 245.113 124.401 244.789 123.903 244.562C123.537 244.428 123.163 244.316 122.783 244.227L122.167 244.092C121.59 244.013 121.003 244.127 120.497 244.417C119.962 244.693 119.541 245.149 119.31 245.705C119.231 245.929 119.142 246.142 119.052 246.366C118.755 247.034 118.631 247.767 118.693 248.495C118.752 248.978 118.9 249.445 119.13 249.873C119.367 250.438 119.565 251.018 119.724 251.61C119.924 252.538 120.029 253.484 120.038 254.433C120.082 254.908 120.239 255.365 120.497 255.766C120.7 256.214 121.017 256.601 121.416 256.887L122.189 257.391Z" fill="#C7AF7E"/>
<path d="M158.925 254.915C159.292 254.874 159.647 254.761 159.97 254.582C160.293 254.403 160.578 254.162 160.807 253.873C161.256 253.28 161.467 252.541 161.401 251.801C161.244 250.333 161.098 248.876 160.953 247.408C160.953 247.229 160.953 247.05 160.953 246.871C160.872 246.281 160.665 245.716 160.348 245.212L159.877 244.395L159.384 243.532C159.306 243.397 159.238 243.252 159.149 243.117C158.982 242.902 158.79 242.706 158.578 242.535C158.267 242.287 157.871 242.173 157.476 242.217C157.081 242.261 156.72 242.46 156.471 242.77C156.231 243.111 156.049 243.49 155.933 243.89C155.832 244.204 155.743 244.529 155.653 244.843L155.384 245.739C155.187 246.299 155.114 246.896 155.171 247.487C155.171 247.689 155.171 247.879 155.25 248.081C155.452 249.537 155.642 250.994 155.844 252.461C155.948 253.198 156.324 253.869 156.897 254.344C157.476 254.784 158.201 254.988 158.925 254.915Z" fill="#C7AF7E"/>
<path d="M146.022 225.998C146.814 226.289 147.684 226.289 148.476 225.998C148.877 225.841 149.244 225.605 149.553 225.305C149.863 225.005 150.11 224.646 150.28 224.25C150.571 223.458 150.571 222.588 150.28 221.796C149.731 220.205 149.159 218.614 148.599 217.046L148.207 216.328C147.971 215.97 147.642 215.683 147.254 215.499C147.033 215.326 146.771 215.214 146.493 215.174C146.11 215.032 145.697 214.99 145.294 215.051C144.751 215.117 144.234 215.322 143.792 215.645L143.187 216.228C142.912 216.547 142.726 216.934 142.65 217.348C142.541 217.598 142.502 217.873 142.538 218.144C142.492 218.549 142.558 218.96 142.728 219.331C143.188 220.956 143.714 222.547 144.229 224.149C144.365 224.557 144.609 224.922 144.935 225.202C145.218 225.562 145.594 225.837 146.022 225.998Z" fill="#C7AF7E"/>
<path d="M127.477 231.902C127.973 232.098 128.526 232.098 129.023 231.902C129.521 231.696 129.918 231.302 130.128 230.805C130.338 230.308 130.343 229.748 130.143 229.247L129.023 226.883C128.844 226.513 128.664 226.132 128.496 225.763C128.357 225.433 128.192 225.114 128.003 224.81C127.775 224.513 127.489 224.265 127.163 224.082C126.923 223.897 126.639 223.776 126.339 223.731C126.039 223.685 125.733 223.718 125.449 223.824C125.154 223.93 124.894 224.114 124.696 224.357C124.499 224.6 124.371 224.892 124.328 225.202C124.289 225.537 124.289 225.876 124.328 226.211C124.383 226.573 124.505 226.923 124.687 227.241C124.855 227.622 125.034 228.003 125.213 228.362C125.583 229.146 125.953 229.942 126.334 230.726C126.552 231.248 126.961 231.669 127.477 231.902Z" fill="#C7AF7E"/>
<path d="M107.511 227.88C107.84 228.117 108.227 228.26 108.631 228.294C109.421 228.404 110.222 228.208 110.872 227.745C111.521 227.257 111.952 226.532 112.071 225.729C112.136 225.337 112.119 224.936 112.023 224.55C111.927 224.165 111.752 223.803 111.51 223.488C111.205 223.113 110.928 222.716 110.681 222.3C110.445 221.838 110.254 221.354 110.11 220.855C110.075 220.568 110.007 220.286 109.908 220.015C109.799 219.785 109.672 219.563 109.527 219.353C109.234 218.969 108.849 218.665 108.407 218.469L108.25 218.39C107.897 218.239 107.511 218.181 107.13 218.222C106.725 218.26 106.337 218.407 106.009 218.648L105.841 218.76C105.539 218.979 105.284 219.256 105.092 219.576C104.899 219.895 104.773 220.25 104.721 220.62C104.682 221.048 104.682 221.479 104.721 221.908C104.804 222.586 104.939 223.256 105.124 223.914C105.448 225.034 105.948 226.097 106.603 227.062C106.828 227.41 107.141 227.693 107.511 227.88Z" fill="#C7AF7E"/>
<path d="M94.6611 266.69C95.4729 267.02 96.3815 267.02 97.1932 266.69C97.6123 266.529 97.9949 266.285 98.3182 265.973C98.6414 265.662 98.8989 265.288 99.0754 264.875C99.1539 264.595 99.2212 264.315 99.2996 264.035C99.3808 263.46 99.3112 262.873 99.0979 262.332C98.6833 260.786 98.2576 259.251 97.843 257.705C97.6302 256.943 97.4286 256.181 97.2269 255.464C97.1149 255.095 97.0139 254.702 96.8795 254.344C96.6909 253.825 96.3842 253.358 95.9835 252.979C95.5829 252.6 95.0995 252.319 94.5716 252.159L93.8545 251.957C93.4807 251.883 93.0939 251.91 92.7341 252.036C92.1226 252.189 91.5765 252.534 91.1767 253.022C90.8166 253.402 90.5445 253.858 90.3799 254.355C90.2153 254.853 90.1623 255.381 90.2244 255.901C90.3451 256.554 90.5098 257.198 90.7173 257.828C90.9302 258.612 91.1767 259.386 91.412 260.159C91.8825 261.716 92.3419 263.273 92.8012 264.819C93.151 265.663 93.8192 266.336 94.6611 266.69Z" fill="#C7AF7E"/>
<path d="M112.015 289.233L112.698 289.423C113.05 289.482 113.411 289.455 113.751 289.345L114.087 289.256C114.434 289.141 114.743 288.936 114.984 288.662C115.274 288.426 115.495 288.116 115.622 287.765C115.689 287.541 115.746 287.306 115.813 287.082V286.735C115.847 286.379 115.789 286.02 115.645 285.693L115.308 285.065C115.019 284.672 114.633 284.359 114.188 284.158L113.751 283.967C113.537 283.857 113.296 283.81 113.057 283.833H112.821C112.584 283.851 112.356 283.932 112.16 284.068L111.936 284.18L111.835 284.247C111.777 284.302 111.713 284.351 111.645 284.393C111.329 284.6 111.076 284.891 110.917 285.233L110.737 285.547C110.583 285.872 110.513 286.23 110.536 286.589C110.504 286.824 110.535 287.064 110.625 287.284C110.682 287.636 110.829 287.968 111.051 288.247L111.309 288.516C111.487 288.806 111.728 289.051 112.015 289.233Z" fill="#C7AF7E"/>
<path d="M135.625 301.356C135.993 301.323 136.347 301.2 136.656 300.997C137.001 300.843 137.299 300.599 137.518 300.291C137.835 299.897 138.04 299.425 138.112 298.924C138.171 298.439 138.11 297.946 137.933 297.49C137.731 296.818 137.518 296.146 137.305 295.474C137.214 295.14 137.106 294.81 136.981 294.488C136.913 294.319 136.857 294.163 136.79 294.006C136.723 293.849 136.7 293.827 136.644 293.737C136.574 293.567 136.462 293.417 136.319 293.3C136.239 293.208 136.149 293.126 136.05 293.053L135.871 292.953C135.692 292.799 135.476 292.695 135.244 292.65C135.033 292.571 134.805 292.548 134.583 292.583L134.146 292.684C133.859 292.8 133.608 292.989 133.418 293.233L133.283 293.367L133.205 293.434C133.115 293.602 133.014 293.759 132.925 293.916C132.835 294.073 132.824 294.263 132.779 294.431C132.734 294.6 132.779 294.779 132.689 294.947C132.689 295.294 132.689 295.664 132.611 296.067C132.611 296.773 132.51 297.479 132.465 298.174C132.397 298.658 132.455 299.152 132.633 299.608C132.814 300.081 133.12 300.495 133.518 300.807C134.128 301.246 134.879 301.441 135.625 301.356Z" fill="#C7AF7E"/>
<path d="M161.279 289.009C161.611 289.132 161.97 289.166 162.321 289.11C163.046 289.024 163.71 288.658 164.169 288.09L164.539 287.451C164.728 287.014 164.798 286.535 164.741 286.062L164.606 283.564L164.539 282.354C164.539 282.242 164.539 282.13 164.539 282.018C164.506 281.514 164.336 281.03 164.046 280.617C163.885 280.421 163.709 280.237 163.519 280.068L163.43 280.001L163.273 279.855L162.758 279.553C162.5 279.429 162.214 279.375 161.928 279.396C161.451 279.373 160.98 279.516 160.595 279.799C160.339 280.024 160.096 280.263 159.867 280.516C159.793 280.62 159.726 280.729 159.665 280.841C159.461 281.124 159.337 281.457 159.307 281.805C159.307 282.04 159.307 282.309 159.307 282.544V286.69C159.361 287.238 159.584 287.755 159.945 288.171C160.307 288.586 160.788 288.879 161.323 289.009H161.279Z" fill="#C7AF7E"/>
<path d="M83.2217 226.748C83.9649 227.035 84.7773 227.09 85.5521 226.905C86.4248 226.697 87.1909 226.176 87.7051 225.441C88.2193 224.706 88.4459 223.808 88.3419 222.917C88.1402 221.875 87.9834 220.855 87.6809 219.836C87.5016 219.231 87.3447 218.625 87.1878 218.02C87.1094 217.662 87.0198 217.303 86.9414 216.9C86.7994 216.056 86.491 215.249 86.0339 214.525V214.458C85.8323 213.92 85.6306 213.337 85.4401 212.822C85.3281 212.519 85.2384 212.217 85.1263 211.925C84.8397 211.226 84.3321 210.64 83.681 210.256C83.1084 209.82 82.3922 209.616 81.6756 209.685C80.9646 209.788 80.3154 210.146 79.8493 210.693C79.3359 211.229 78.9995 211.909 78.8858 212.642C78.8409 213.217 78.8409 213.794 78.8858 214.368C78.8858 214.827 78.8858 215.287 78.8858 215.757C78.8858 215.97 78.8297 216.183 78.8185 216.396C78.7758 217.304 78.905 218.213 79.1994 219.073C79.3675 219.723 79.5467 220.362 79.7372 221.001C79.9276 221.639 80.1181 222.233 80.331 222.838C80.5801 223.463 80.8799 224.066 81.2274 224.642C81.6052 225.569 82.3168 226.32 83.2217 226.748Z" fill="#C7AF7E"/>
<path d="M168.877 237.493C169.525 237.349 170.103 236.985 170.512 236.462C170.766 236.152 170.953 235.793 171.061 235.407C171.169 235.022 171.196 234.618 171.14 234.221C170.726 232.592 170.221 230.988 169.627 229.415C169.157 228.015 168.697 226.614 168.227 225.214C168.025 224.697 167.674 224.253 167.219 223.937C166.764 223.621 166.225 223.448 165.671 223.439C165.117 223.431 164.572 223.588 164.108 223.89C163.643 224.192 163.279 224.625 163.062 225.135C162.836 225.819 162.836 226.557 163.062 227.241L164.182 231.454C164.373 232.137 164.552 232.832 164.742 233.516C164.899 234.24 165.098 234.954 165.336 235.655C165.607 236.336 166.114 236.897 166.764 237.234C167.414 237.571 168.164 237.663 168.877 237.493Z" fill="#C7AF7E"/>
<path d="M123.978 317.326C124.397 317.282 124.796 317.125 125.133 316.873C125.47 316.62 125.733 316.281 125.894 315.892C125.984 315.638 126.062 315.381 126.129 315.119C126.328 314.462 126.367 313.766 126.241 313.091C126.14 312.419 126.028 311.747 125.928 311.074C125.715 309.719 125.513 308.374 125.3 307.03C124.874 304.33 124.281 301.652 123.743 298.974C123.625 298.142 123.192 297.387 122.533 296.865C121.874 296.344 121.039 296.096 120.202 296.173C119.368 296.28 118.609 296.709 118.087 297.369C117.566 298.028 117.324 298.866 117.413 299.703C117.95 302.38 118.421 305.08 119.071 307.747L120.023 311.623C120.18 312.296 120.348 312.957 120.505 313.629C120.604 314.228 120.781 314.812 121.031 315.366C121.246 315.721 121.493 316.054 121.771 316.363C122.026 316.699 122.362 316.964 122.749 317.132C123.135 317.301 123.558 317.368 123.978 317.326Z" fill="#C7AF7E"/>
<path d="M93.1107 287.429C93.9849 287.776 94.959 287.776 95.8333 287.429C96.2805 287.254 96.6882 286.991 97.0326 286.656C97.377 286.322 97.6511 285.921 97.8388 285.479C98.169 284.602 98.169 283.634 97.8388 282.757L96.7184 279.586C96.528 279.059 96.3599 278.466 96.1695 277.995C95.9426 277.481 95.6882 276.98 95.4075 276.494C95.2571 276.059 94.9941 275.673 94.6456 275.373C94.3541 275.006 93.9662 274.727 93.5252 274.567C92.8137 274.277 92.0274 274.226 91.2844 274.421C90.5419 274.589 89.8783 275.004 89.4022 275.598C89.1204 275.953 88.9119 276.361 88.7888 276.797C88.6657 277.234 88.6305 277.691 88.6851 278.141C88.8532 278.936 88.9764 279.777 89.2229 280.55C89.4134 281.099 89.6375 281.67 89.8392 282.174C90.2313 283.239 90.6234 284.314 91.0267 285.379C91.2176 285.843 91.5007 286.265 91.8588 286.617C92.217 286.969 92.6428 287.246 93.1107 287.429Z" fill="#C7AF7E"/>
<path d="M34.1885 207.982C30.9057 208.587 25.7183 211.343 20.1387 212.06C14.5591 212.777 2.92938 208.295 0.117188 208.15C0.117188 208.15 17.8979 197.73 26.0432 202.861L34.1885 207.982Z" fill="#927A46"/>
<path d="M32.261 196.341C27.4881 195.22 20.1271 195.007 13.5056 193.954C7.87324 193.182 2.52342 191.014 -2.05676 187.647L-7.28906 184.14C-7.28906 184.14 11.9706 188.195 18.2224 190.615C24.4742 193.036 32.261 196.341 32.261 196.341Z" fill="#927A46"/>
<path d="M26.1895 190.436C18.3467 185.955 13.6188 184.364 9.76459 176.689C5.91042 169.014 10.1678 158.886 7.01953 154.135C7.01953 154.135 23.8255 164.97 24.2849 172.868C24.7442 180.767 25.663 189.753 25.663 189.753" fill="#927A46"/>
<path d="M69.4345 219.018C69.02 216.777 69.5017 212.676 68.6054 208.844C67.7091 205.013 61.8831 198.559 61.0764 196.767C61.0764 196.767 58.7012 210.94 64.0679 214.984L69.4345 219.018Z" fill="#927A46"/>
<path d="M60.911 216.519C53.0682 215.399 49.0012 218.547 45.1022 221.494C41.2032 224.44 38.1894 226.042 33.8983 230.255C29.6071 234.468 28.5764 241.717 30.313 243.162C32.0497 244.607 23.1872 239.946 24.4981 233.941C25.809 227.936 31.0748 217.639 40.5982 216.463C47.3537 215.797 54.1593 215.816 60.911 216.519Z" fill="#927A46"/>
<path d="M42.2996 178.314C46.7812 181.406 48.4058 182.134 50.9043 188.016C53.4028 193.898 52.0246 204.004 54.4783 208.004C56.932 212.004 58.4782 214.883 58.4782 214.883C56.3268 211.139 53.7186 207.677 50.7138 204.576C46.0417 199.892 46.9941 195.725 44.5292 189.585C42.5132 185.008 40.079 180.627 37.2578 176.498L42.2996 178.314Z" fill="#927A46"/>
<path d="M42.626 205.371C42.626 205.371 39.6458 191.198 36.7776 186.985C33.9093 182.773 31.31 168.869 31.31 168.869C31.31 168.869 25.3831 181.193 29.3493 187.187C33.3155 193.181 42.626 205.371 42.626 205.371Z" fill="#927A46"/>
<path d="M11.6582 163.513C15.0194 167.132 14.2014 172.476 16.3526 176.823C18.5038 181.171 24.3859 187.478 24.3859 187.478" stroke="#281B18" stroke-width="0.75" stroke-miterlimit="10"/>
<path d="M9.69727 206.234C10.1902 205.954 22.7947 202.806 30.1333 206.447" stroke="#281B18" stroke-width="0.75" stroke-miterlimit="10"/>
<path d="M30.2992 243.162C30.2992 243.162 24.6972 233.605 28.0584 229.46C30.9517 226.108 34.054 222.942 37.3465 219.981" stroke="#281B18" stroke-width="0.75" stroke-miterlimit="10"/>
<path d="M79.3949 221.057C79.3949 221.057 51.7547 216.575 36.9655 200.889L22.1875 185.204" stroke="#281B18" stroke-width="0.75" stroke-miterlimit="10"/>
<path d="M30.1523 206.447C30.1523 206.447 37.7823 210.928 54.6779 213.169" stroke="#281B18" stroke-width="0.75" stroke-miterlimit="10"/>
<path d="M320.01 48.87L65.0532 48.2915C56.9844 48.2732 50.4285 54.7995 50.4102 62.8683L50.0417 225.269C50.0234 233.338 56.5496 239.894 64.6184 239.913L319.575 240.491C327.644 240.509 334.2 233.983 334.218 225.914L334.587 63.5131C334.605 55.4442 328.079 48.8883 320.01 48.87Z" fill="#3D0210"/>
<path d="M318.184 48.8658L63.227 48.2874C55.1582 48.2691 48.6023 54.7953 48.584 62.8642L48.2156 225.265C48.1973 233.334 54.7234 239.89 62.7923 239.908L317.749 240.487C325.818 240.505 332.374 233.979 332.392 225.91L332.761 63.509C332.779 55.4401 326.253 48.8841 318.184 48.8658Z" fill="#6C2037"/>
<path d="M144.459 48.5507L142.633 48.5465L142.197 240.75L144.023 240.754L144.459 48.5507Z" fill="#BFA172"/>
<path d="M333.385 146.796L333.395 142.448L48.4558 141.802L48.4459 146.149L333.385 146.796Z" fill="#BFA172"/>
<path d="M143.77 144.802C143.661 144.84 143.544 144.845 143.433 144.817C143.322 144.789 143.221 144.729 143.142 144.645C136.991 138.058 126.034 129.307 114.438 119.997C94.6405 104.166 75.941 89.2194 78.2714 83.0236C79.0333 80.9509 81.8343 80.0322 86.8089 80.2227C108.948 81.0742 139.467 115.123 144.184 144.085C144.206 144.214 144.185 144.346 144.124 144.462C144.064 144.577 143.967 144.669 143.848 144.724L143.77 144.802ZM81.375 81.9593C80.9525 82.0479 80.5556 82.231 80.2141 82.4949C79.8725 82.7588 79.5953 83.0967 79.403 83.4832C77.3863 88.8947 97.475 104.95 115.2 119.123C126 127.761 136.241 135.929 142.627 142.393C137.025 114.294 107.895 82.2955 86.764 81.4776C84.9533 81.3339 83.1314 81.4967 81.375 81.9593Z" fill="#BFA172"/>
<path d="M161.625 140.097C155.767 142.003 149.775 143.472 143.699 144.489C143.608 144.505 143.515 144.499 143.427 144.472C143.339 144.445 143.26 144.397 143.194 144.332C143.127 144.271 143.075 144.197 143.04 144.113C143.005 144.03 142.989 143.94 142.993 143.85C143.553 134.887 151.407 123.817 161.67 117.61C170.633 112.21 179.921 111.213 187.932 114.809C191.999 116.625 192.581 119 192.413 120.669C191.483 127.223 177.355 135.01 161.625 140.097ZM144.259 143.156C166.667 139.38 190.195 128.064 191.136 120.512C191.383 118.686 190.128 117.151 187.405 115.919C179.775 112.557 170.846 113.465 162.286 118.652C152.628 124.534 145.166 134.674 144.225 143.156H144.259Z" fill="#BFA172"/>
<path d="M157.358 212.418C155.912 212.889 153.873 212.105 151.184 210.054C137.459 199.624 133.258 164.297 143.184 143.738C143.25 143.635 143.344 143.555 143.454 143.505C143.565 143.456 143.688 143.441 143.808 143.461C143.928 143.481 144.039 143.536 144.127 143.62C144.216 143.703 144.277 143.81 144.305 143.929C145.28 150.83 148.327 161.272 151.565 172.319C158.063 194.548 162.018 209.292 157.985 212.093C157.792 212.23 157.581 212.339 157.358 212.418ZM143.453 146.091C134.748 166.426 138.972 199.231 151.924 209.091C154.501 211.051 156.405 211.746 157.324 211.096C160.943 208.609 155.352 189.506 150.422 172.655C147.476 162.628 144.675 153.004 143.453 146.091Z" fill="#BFA172"/>
<path d="M143.767 144.803C143.675 144.825 143.579 144.825 143.487 144.803C143.358 144.784 143.239 144.723 143.147 144.63C143.056 144.537 142.998 144.416 142.983 144.287C140.999 130.282 140.036 100.592 150.489 88.3793C151.76 86.7896 153.368 85.5017 155.197 84.6086C157.026 83.7154 159.031 83.2394 161.066 83.2144C163.676 83.2144 165.547 84.032 166.6 85.7574C171.082 93.04 159.598 114.809 150.388 132.299C148.047 136.78 145.828 140.96 144.125 144.466C144.095 144.546 144.047 144.618 143.985 144.676C143.923 144.734 143.848 144.777 143.767 144.803ZM157.413 85.0405C155.062 85.831 152.981 87.2676 151.408 89.1859C142.87 99.1462 141.56 123.19 143.924 142.158C145.481 139.032 147.352 135.436 149.313 131.75C157.895 115.437 169.659 93.1073 165.559 86.4186C164.729 85.0629 163.318 84.4243 161.077 84.4467C159.833 84.4599 158.598 84.6601 157.413 85.0405Z" fill="#BFA172"/>
<g style="mix-blend-mode:screen" opacity="0.1">
<path d="M130.536 79.3977L175.004 79.4987C160.159 86.4339 149.672 101.234 150.501 117.805C152.193 142.23 174.847 151.013 174.78 179.785C174.361 188.537 171.733 197.041 167.141 204.503C162.549 211.965 156.142 218.143 148.518 222.461L108.441 211.033C115.266 208.146 121.075 203.291 125.127 197.086C129.178 190.881 131.287 183.609 131.185 176.2C130.367 153.534 108.587 143.014 108.654 116.819C108.57 109.184 110.562 101.671 114.415 95.0797C118.269 88.4889 123.841 83.0686 130.536 79.3977Z" fill="white"/>
</g>
<path d="M142.984 144.309C142.984 144.309 116.094 209.483 94.8067 186.38C73.5191 163.278 142.984 144.309 142.984 144.309Z" stroke="#BFA172" stroke-miterlimit="10"/>
<path d="M142.982 144.309C142.982 144.309 160.382 189.842 174.354 173.44C188.325 157.037 142.982 144.309 142.982 144.309Z" stroke="#BFA172" stroke-miterlimit="10"/>
<path d="M247.169 32.3146L250.765 28.0794C251.073 27.7594 251.249 27.3357 251.259 26.892C251.258 26.4465 251.081 26.0192 250.765 25.7043C250.45 25.3896 250.023 25.2128 249.578 25.2128C249.133 25.2128 248.705 25.3896 248.39 25.7043L244.794 29.9395C244.485 30.2583 244.308 30.6828 244.301 31.1269C244.301 31.4591 244.4 31.7838 244.585 32.0599C244.769 32.336 245.032 32.5513 245.338 32.6784C245.645 32.8055 245.983 32.8386 246.309 32.7738C246.635 32.7091 246.934 32.5493 247.169 32.3146Z" fill="#C7AF7E"/>
<path d="M257.454 42.3533C257.835 41.7782 258.239 41.218 258.664 40.6727L258.407 41.0089C259.232 39.9389 260.122 38.9211 261.073 37.9614C261.388 37.645 261.565 37.2164 261.564 36.7699C261.562 36.3234 261.384 35.8956 261.068 35.5806C260.751 35.2656 260.322 35.0894 259.876 35.0904C259.429 35.0915 259.002 35.2699 258.687 35.5863C257.16 37.1503 255.773 38.8446 254.541 40.6503C254.319 41.0453 254.259 41.5115 254.373 41.9501C254.464 42.2681 254.645 42.5526 254.895 42.7685C255.145 42.9845 255.453 43.1225 255.781 43.1654C256.109 43.2083 256.442 43.1544 256.739 43.0101C257.037 42.8658 257.285 42.6373 257.454 42.3533Z" fill="#C7AF7E"/>
<path d="M268.491 29.8608L271.594 24.3598C271.82 23.975 271.884 23.5161 271.771 23.0843C271.659 22.6525 271.38 22.283 270.995 22.0572C270.61 21.8313 270.151 21.7678 269.719 21.8802C269.288 21.9926 268.918 22.272 268.692 22.6568L265.589 28.1578C265.363 28.5426 265.299 29.0015 265.412 29.4333C265.524 29.8651 265.803 30.2343 266.188 30.4601C266.573 30.686 267.032 30.7498 267.464 30.6374C267.895 30.525 268.265 30.2456 268.491 29.8608Z" fill="#C7AF7E"/>
<path d="M234.722 24.3262L235.842 22.3655C236.039 21.9625 236.099 21.5055 236.01 21.0656C235.955 20.8543 235.851 20.6587 235.707 20.4942C235.588 20.3162 235.426 20.1702 235.237 20.0686C235.043 19.9531 234.828 19.8787 234.604 19.8498C234.381 19.8209 234.154 19.8382 233.937 19.9006C233.519 20.0222 233.162 20.2986 232.94 20.6736L231.82 22.6231C231.698 22.8106 231.628 23.0272 231.618 23.2506C231.549 23.4694 231.549 23.7039 231.618 23.9227C231.664 24.135 231.765 24.3318 231.909 24.4941C232.032 24.6727 232.193 24.8221 232.38 24.9312C232.775 25.1537 233.241 25.2138 233.68 25.0992C234.097 24.9696 234.454 24.6956 234.688 24.3262H234.722Z" fill="#C7AF7E"/>
<path d="M208.213 44.1461L209.334 40.2248C209.449 39.7861 209.388 39.3202 209.166 38.9252C208.936 38.5523 208.577 38.2769 208.158 38.1519C207.734 38.0411 207.285 38.0955 206.9 38.3035C206.515 38.5115 206.224 38.8576 206.085 39.2723L204.964 43.1937C204.905 43.4107 204.89 43.6375 204.918 43.8606C204.947 44.0836 205.02 44.2987 205.132 44.4935C205.358 44.8657 205.713 45.141 206.13 45.2665C206.56 45.3747 207.016 45.3128 207.402 45.0937C207.788 44.8746 208.074 44.5151 208.202 44.0901L208.213 44.1461Z" fill="#C7AF7E"/>
<path d="M233.625 42.8239L235.866 39.1042C236.088 38.713 236.148 38.2508 236.034 37.8158C235.919 37.3909 235.641 37.0284 235.261 36.8073C234.88 36.6088 234.437 36.5609 234.022 36.673C233.607 36.785 233.25 37.0489 233.02 37.4123L230.779 41.1321C230.563 41.5251 230.503 41.9852 230.611 42.4205C230.733 42.8417 231.009 43.2018 231.384 43.429C231.766 43.6275 232.208 43.6754 232.623 43.5633C233.038 43.4512 233.396 43.1874 233.625 42.8239Z" fill="#C7AF7E"/>
<path d="M142.603 144.433C144.026 143.469 168.26 87.2924 152.205 71.2483C136.15 55.2042 126.436 103.74 144.026 143.469" stroke="#C7AF7E" stroke-miterlimit="10"/>
<path d="M312.903 231.297C311.301 230.009 309.542 217.012 320.007 213.214C320.007 213.214 317.833 202.234 330.381 193.237C342.93 184.241 345.081 182.829 349.955 182.291C354.593 181.787 353.148 174.773 364.755 175.793C365.999 175.898 367.252 175.777 368.453 175.434C370.693 174.795 374.435 173.877 375.746 174.146L374.772 173.944C374.772 173.944 373.125 177.014 371.41 180.229C369.696 183.445 369.102 192.341 361.192 195.31C361.192 195.31 360.554 205.875 354.302 208.172C348.05 210.469 352.756 218.256 348.353 219.018C343.949 219.78 343.412 222.592 339.468 223.499C335.524 224.407 322.539 239.05 312.903 231.297Z" fill="#927A46"/>
<path d="M314.439 232.328C318.551 226.726 322.876 221.258 327.335 215.914C331.794 210.57 336.41 205.36 341.217 200.318C343.592 197.775 346.113 195.377 348.589 192.924C351.065 190.47 353.676 188.173 356.432 185.988C361.776 181.507 367.401 177.316 373.753 174.437L369.148 176.891C367.681 177.809 366.247 178.795 364.79 179.748C363.334 180.7 362 181.82 360.6 182.84C359.199 183.86 357.877 185.002 356.555 186.123C353.855 188.363 351.356 190.75 348.791 193.103C346.225 195.456 343.827 197.965 341.463 200.509C336.635 205.517 332.007 210.715 327.526 216.037C323.044 221.359 318.63 226.771 314.439 232.328Z" fill="#3C3430"/>
<path d="M359.836 183.12C359.713 182 359.69 180.958 359.668 179.882C359.645 178.806 359.668 177.72 359.791 176.633C359.914 177.753 359.926 178.795 359.948 179.882C359.97 180.969 359.937 182.045 359.836 183.12Z" fill="#3C3430"/>
<path d="M355.98 178.168C356.171 179.468 356.271 180.767 356.395 182.067L356.552 184.017C356.589 184.67 356.66 185.32 356.764 185.966C356.409 184.701 356.191 183.401 356.115 182.089C356.003 180.785 355.958 179.477 355.98 178.168Z" fill="#3C3430"/>
<path d="M353.619 188.128C353.35 187.075 353.193 185.999 353.025 184.935C352.857 183.871 352.745 182.784 352.711 181.697C352.98 182.75 353.137 183.826 353.305 184.89C353.473 185.955 353.585 187.041 353.619 188.128Z" fill="#3C3430"/>
<path d="M348.982 183.467C349.274 184.745 349.487 186.044 349.711 187.322L350.036 189.26C350.129 189.905 350.256 190.544 350.417 191.176C349.947 189.947 349.62 188.669 349.442 187.366C349.221 186.076 349.068 184.774 348.982 183.467Z" fill="#3C3430"/>
<path d="M346.066 186.28C346.369 187.557 346.571 188.845 346.806 190.134L347.12 192.061C347.243 192.699 347.321 193.349 347.501 193.977C347.042 192.749 346.716 191.476 346.526 190.179C346.306 188.888 346.152 187.586 346.066 186.28Z" fill="#3C3430"/>
<path d="M344.61 197.215C344.24 196.184 343.971 195.142 343.691 194.089C343.411 193.036 343.198 191.982 343.041 190.907C343.402 191.928 343.708 192.968 343.96 194.022C344.206 195.12 344.464 196.128 344.61 197.215Z" fill="#3C3430"/>
<path d="M339.625 192.8C340.04 194.055 340.353 195.321 340.689 196.576L341.182 198.481C341.327 199.114 341.507 199.738 341.72 200.352C341.15 199.172 340.714 197.932 340.42 196.655C340.107 195.377 339.815 194.1 339.625 192.8Z" fill="#3C3430"/>
<path d="M334.538 192.789C334.605 193.775 334.728 194.75 334.885 195.725C335.029 196.693 335.235 197.651 335.501 198.593C335.955 200.507 336.844 202.289 338.101 203.803C337.377 203.123 336.771 202.328 336.308 201.45C335.841 200.564 335.465 199.633 335.187 198.671C334.688 196.752 334.469 194.771 334.538 192.789Z" fill="#3C3430"/>
<path d="M330.112 197.024C330.179 198.01 330.303 198.985 330.459 199.96C330.609 200.927 330.815 201.884 331.076 202.828C331.536 204.739 332.425 206.52 333.675 208.038C332.949 207.36 332.343 206.565 331.882 205.685C331.415 204.799 331.04 203.868 330.762 202.906C330.262 200.987 330.043 199.006 330.112 197.024Z" fill="#3C3430"/>
<path d="M326.112 202.335C326.179 203.321 326.314 204.296 326.459 205.27C326.614 206.237 326.82 207.194 327.075 208.139C327.538 210.051 328.431 211.833 329.686 213.348C328.953 212.67 328.343 211.87 327.882 210.984C327.423 210.099 327.048 209.172 326.762 208.217C326.262 206.298 326.043 204.317 326.112 202.335Z" fill="#3C3430"/>
<path d="M323.245 211.108C323.245 211.713 323.402 212.307 323.503 212.889C323.595 213.479 323.722 214.062 323.884 214.637C324.166 215.8 324.689 216.892 325.419 217.841C324.965 217.436 324.585 216.954 324.298 216.418C324.018 215.874 323.793 215.304 323.626 214.715C323.304 213.541 323.175 212.323 323.245 211.108Z" fill="#3C3430"/>
<path d="M318.595 216.407C318.662 217.012 318.752 217.606 318.852 218.189C318.945 218.778 319.072 219.362 319.233 219.936C319.513 221.1 320.04 222.189 320.779 223.129C320.326 222.728 319.947 222.25 319.659 221.718C319.379 221.174 319.154 220.603 318.987 220.015C318.661 218.841 318.528 217.623 318.595 216.407Z" fill="#3C3430"/>
<path d="M314.841 221.707C314.841 222.3 314.986 222.905 315.087 223.488C315.188 224.071 315.311 224.608 315.479 225.236C315.755 226.398 316.278 227.488 317.014 228.429C316.56 228.028 316.181 227.55 315.894 227.017C315.614 226.473 315.389 225.903 315.222 225.314C314.9 224.14 314.771 222.922 314.841 221.707Z" fill="#3C3430"/>
<path d="M360.141 183.277C361.261 183.277 362.303 183.277 363.39 183.344C364.477 183.411 365.541 183.512 366.617 183.703C365.496 183.703 364.443 183.703 363.367 183.624C362.292 183.546 361.205 183.456 360.141 183.277Z" fill="#3C3430"/>
<path d="M364.946 187.131C363.635 187.131 362.335 186.929 361.035 186.761C359.733 186.608 358.452 186.311 357.215 185.876C357.851 186.023 358.494 186.135 359.142 186.212L361.08 186.481C362.38 186.683 363.668 186.862 364.946 187.131Z" fill="#3C3430"/>
<path d="M360.464 189.518C359.343 189.406 358.312 189.204 357.248 189.002C356.184 188.801 355.13 188.554 354.1 188.218C355.22 188.319 356.24 188.532 357.304 188.733C358.37 188.939 359.425 189.201 360.464 189.518Z" fill="#3C3430"/>
<path d="M358.606 193.192C357.306 193.028 356.016 192.796 354.741 192.498C353.456 192.241 352.204 191.839 351.01 191.299C351.626 191.512 352.265 191.635 352.892 191.792L354.808 192.229C356.074 192.543 357.351 192.879 358.606 193.192Z" fill="#3C3430"/>
<path d="M355.109 195.702C353.81 195.539 352.519 195.307 351.244 195.007C349.956 194.749 348.701 194.347 347.502 193.809C348.124 194.006 348.756 194.17 349.395 194.302L351.3 194.739C352.622 195.052 353.855 195.332 355.109 195.702Z" fill="#3C3430"/>
<path d="M344.455 196.845C345.575 197.058 346.561 197.372 347.592 197.674C348.623 197.977 349.654 198.346 350.651 198.794C349.531 198.582 348.545 198.268 347.514 197.954C346.483 197.64 345.452 197.271 344.455 196.845Z" fill="#3C3430"/>
<path d="M348.937 202.346C347.653 202.07 346.385 201.726 345.138 201.315C343.878 200.948 342.663 200.437 341.52 199.791C342.123 200.047 342.74 200.268 343.368 200.453L345.228 201.058C346.461 201.472 347.715 201.842 348.937 202.346Z" fill="#3C3430"/>
<path d="M348.656 207.69C346.673 207.619 344.711 207.265 342.83 206.637C341.889 206.317 340.984 205.9 340.129 205.393C339.28 204.881 338.522 204.23 337.889 203.466C339.326 204.806 341.05 205.798 342.93 206.368C343.859 206.688 344.806 206.954 345.765 207.164C346.717 207.377 347.681 207.556 348.656 207.69Z" fill="#3C3430"/>
<path d="M344.778 212.329C342.796 212.26 340.834 211.905 338.952 211.276C338.008 210.956 337.099 210.539 336.241 210.032C335.388 209.524 334.63 208.872 334 208.105C335.438 209.446 337.162 210.442 339.042 211.018C339.971 211.332 340.918 211.593 341.876 211.802C342.829 212.015 343.792 212.206 344.778 212.329Z" fill="#3C3430"/>
<path d="M340.388 217.528C338.405 217.468 336.442 217.117 334.562 216.486C333.621 216.156 332.713 215.74 331.85 215.242C331 214.726 330.242 214.071 329.609 213.304C331.041 214.652 332.767 215.65 334.651 216.217C335.579 216.539 336.526 216.805 337.486 217.012C338.438 217.236 339.402 217.427 340.388 217.528Z" fill="#3C3430"/>
<path d="M332.756 220.687C331.541 220.68 330.334 220.48 329.182 220.093C328.604 219.893 328.049 219.634 327.524 219.32C327.001 218.999 326.542 218.585 326.168 218.099C327.065 218.893 328.124 219.481 329.271 219.824C329.831 220.026 330.404 220.191 330.986 220.317C331.568 220.463 332.162 220.586 332.756 220.687Z" fill="#3C3430"/>
<path d="M327.781 225.807C326.562 225.799 325.352 225.599 324.196 225.214C323.623 225.011 323.071 224.752 322.549 224.44C322.027 224.119 321.567 223.705 321.193 223.219C322.093 224.009 323.151 224.597 324.297 224.945C324.858 225.144 325.43 225.309 326.011 225.438C326.594 225.572 327.187 225.706 327.781 225.807Z" fill="#3C3430"/>
<path d="M324.039 230.087C322.841 230.283 321.618 230.283 320.42 230.087C319.817 229.977 319.228 229.804 318.661 229.572C318.099 229.336 317.587 228.998 317.148 228.575C318.166 229.226 319.313 229.65 320.51 229.818C321.092 229.93 321.63 229.986 322.291 230.042C322.952 230.098 323.49 230.087 324.039 230.087Z" fill="#3C3430"/>
<path d="M312.286 232.283C312.062 230.244 320.005 219.813 330.1 224.519C330.1 224.519 336.33 215.22 351.556 217.729C366.782 220.239 369.314 220.765 373.135 223.835C376.776 226.76 380.709 220.766 388.204 229.706C389.009 230.657 389.977 231.457 391.061 232.07C393.145 233.191 396.394 235.196 397.134 236.317C398.254 237.975 396.585 235.476 396.585 235.476C396.585 235.476 393.223 236.485 389.784 237.571C386.344 238.658 379.599 244.496 371.857 241C371.857 241 363.936 248.036 357.897 245.235C351.858 242.434 349.696 251.252 346.01 248.686C342.324 246.12 339.993 247.734 336.576 245.571C333.159 243.409 313.664 244.574 312.286 232.283Z" fill="#927A46"/>
<path d="M312.689 234.098C319.569 233.034 326.493 232.238 333.417 231.622C340.341 231.006 347.298 230.569 354.256 230.401C357.741 230.289 361.214 230.401 364.698 230.401C368.183 230.401 371.656 230.636 375.118 231.006C382.031 231.645 389 232.63 395.532 235.084L390.546 233.572C388.854 233.18 387.185 232.855 385.448 232.451C383.711 232.048 382.008 231.947 380.283 231.678C378.558 231.409 376.832 231.275 375.107 231.14C371.645 230.793 368.16 230.737 364.687 230.591C361.214 230.446 357.741 230.524 354.267 230.591C347.306 230.726 340.363 231.099 333.439 231.712C326.504 232.417 319.58 233.135 312.689 234.098Z" fill="#3C3430"/>
<path d="M371.67 230.547C372.23 229.617 372.88 228.743 373.518 227.869C374.157 226.995 374.841 226.155 375.58 225.359C375.02 226.3 374.381 227.163 373.743 228.037C373.104 228.911 372.398 229.751 371.67 230.547Z" fill="#3C3430"/>
<path d="M371.667 223.981C370.972 225.101 370.211 226.143 369.426 227.219L368.306 228.81C367.903 229.334 367.529 229.88 367.186 230.446C367.72 229.253 368.389 228.125 369.18 227.084C369.954 226.007 370.785 224.972 371.667 223.981Z" fill="#3C3430"/>
<path d="M367.622 223.902C366.928 225.023 366.154 226.076 365.381 227.152L364.261 228.743C363.86 229.265 363.486 229.807 363.141 230.367C363.685 229.177 364.358 228.05 365.146 227.006C365.916 225.929 366.743 224.893 367.622 223.902Z" fill="#3C3430"/>
<path d="M358.861 230.602C359.321 229.616 359.87 228.687 360.419 227.746C360.968 226.804 361.539 225.908 362.211 225.045C361.752 226.031 361.203 226.961 360.654 227.891C360.105 228.821 359.511 229.74 358.861 230.602Z" fill="#3C3430"/>
<path d="M358.448 223.97C357.854 225.09 357.182 226.211 356.532 227.387L355.535 229.068C355.21 229.639 354.863 230.188 354.594 230.782C355.026 229.541 355.598 228.354 356.297 227.241C356.956 226.114 357.674 225.022 358.448 223.97Z" fill="#3C3430"/>
<path d="M354.863 220.351C354.213 221.102 353.608 221.875 353.036 222.67C352.454 223.464 351.919 224.29 351.434 225.146C350.409 226.82 349.781 228.705 349.597 230.658C349.564 229.665 349.696 228.673 349.989 227.723C350.302 226.778 350.707 225.866 351.199 225C352.188 223.281 353.422 221.715 354.863 220.351Z" fill="#3C3430"/>
<path d="M348.732 220.216C348.082 220.967 347.488 221.751 346.906 222.536C346.328 223.329 345.796 224.156 345.315 225.012C344.285 226.688 343.653 228.577 343.466 230.535C343.432 229.541 343.568 228.548 343.869 227.6C344.176 226.651 344.578 225.735 345.068 224.866C346.064 223.151 347.298 221.586 348.732 220.216Z" fill="#3C3430"/>
<path d="M342.158 221.146C341.508 221.897 340.914 222.67 340.331 223.466C339.749 224.256 339.218 225.083 338.74 225.942C337.712 227.614 337.08 229.5 336.892 231.454C336.858 230.46 336.994 229.467 337.295 228.519C337.604 227.574 338.006 226.662 338.494 225.796C339.483 224.077 340.718 222.51 342.158 221.146Z" fill="#3C3430"/>
<path d="M333.921 225.37C333.54 225.841 333.181 226.323 332.801 226.804C332.456 227.291 332.138 227.796 331.848 228.317C331.236 229.343 330.854 230.49 330.728 231.678C330.688 231.069 330.756 230.459 330.929 229.874C331.109 229.289 331.354 228.725 331.658 228.194C332.252 227.135 333.017 226.181 333.921 225.37Z" fill="#3C3430"/>
<path d="M326.852 225.807C326.471 226.278 326.124 226.759 325.732 227.252C325.379 227.732 325.057 228.234 324.768 228.754C324.163 229.783 323.781 230.928 323.648 232.115C323.608 231.507 323.676 230.896 323.849 230.311C324.039 229.729 324.283 229.167 324.578 228.63C325.182 227.575 325.95 226.622 326.852 225.807Z" fill="#3C3430"/>
<path d="M320.487 226.872C320.106 227.342 319.748 227.824 319.367 228.317C319.019 228.799 318.697 229.301 318.403 229.818C317.798 230.847 317.416 231.993 317.283 233.179C317.238 232.571 317.306 231.959 317.485 231.376C317.665 230.79 317.909 230.227 318.213 229.695C318.814 228.638 319.582 227.684 320.487 226.872Z" fill="#3C3430"/>
<path d="M371.926 230.972C372.62 231.813 373.225 232.709 373.83 233.605C374.435 234.502 375.007 235.42 375.511 236.384C374.816 235.544 374.211 234.647 373.595 233.751C372.979 232.854 372.43 231.936 371.926 230.972Z" fill="#3C3430"/>
<path d="M371.59 237.695C370.772 236.664 370.055 235.566 369.349 234.468C368.622 233.374 368.021 232.201 367.557 230.972C367.857 231.552 368.186 232.117 368.543 232.664L369.585 234.322C370.268 235.454 370.974 236.507 371.59 237.695Z" fill="#3C3430"/>
<path d="M367.342 236.966C366.524 235.936 365.807 234.838 365.101 233.74C364.378 232.643 363.777 231.471 363.309 230.244C363.609 230.824 363.938 231.389 364.295 231.936L365.336 233.594C366.065 234.703 366.715 235.801 367.342 236.966Z" fill="#3C3430"/>
<path d="M359.006 230.233C359.611 231.14 360.126 232.093 360.631 233.045C361.135 233.997 361.616 234.972 362.02 235.98C361.415 235.084 360.899 234.121 360.384 233.168C359.869 232.216 359.409 231.241 359.006 230.233Z" fill="#3C3430"/>
<path d="M358.278 237.291C357.571 236.205 356.92 235.083 356.328 233.93C355.698 232.775 355.198 231.554 354.838 230.289C355.073 230.905 355.387 231.476 355.678 232.059L356.575 233.796C357.157 234.927 357.762 236.081 358.278 237.291Z" fill="#3C3430"/>
<path d="M354.314 240.877C352.966 239.425 351.834 237.788 350.952 236.014C350.52 235.119 350.175 234.185 349.922 233.224C349.685 232.257 349.61 231.258 349.698 230.266C349.767 232.225 350.284 234.141 351.21 235.868C351.637 236.75 352.12 237.603 352.655 238.423C353.16 239.274 353.742 240.092 354.314 240.877Z" fill="#3C3430"/>
<path d="M348.286 241.414C346.938 239.963 345.806 238.326 344.925 236.552C344.485 235.659 344.136 234.724 343.883 233.762C343.646 232.795 343.571 231.796 343.658 230.804C343.728 232.763 344.245 234.679 345.171 236.406C345.598 237.288 346.081 238.141 346.616 238.961C347.132 239.812 347.681 240.63 348.286 241.414Z" fill="#3C3430"/>
<path d="M341.484 241.997C340.136 240.546 339.004 238.908 338.122 237.134C337.688 236.241 337.343 235.306 337.092 234.345C336.855 233.381 336.78 232.386 336.867 231.398C336.935 233.357 337.452 235.273 338.38 237C338.804 237.886 339.287 238.743 339.825 239.566C340.296 240.406 340.879 241.224 341.484 241.997Z" fill="#3C3430"/>
<path d="M333.878 238.815C333.023 237.951 332.312 236.957 331.772 235.868C331.501 235.317 331.291 234.739 331.144 234.143C331.004 233.549 330.97 232.934 331.043 232.328C331.123 233.523 331.455 234.688 332.018 235.745C332.277 236.28 332.565 236.799 332.881 237.302C333.206 237.829 333.575 238.333 333.878 238.815Z" fill="#3C3430"/>
<path d="M326.739 238.916C325.88 238.054 325.165 237.059 324.621 235.969C324.36 235.42 324.153 234.845 324.005 234.255C323.866 233.661 323.832 233.046 323.904 232.44C323.99 233.616 324.322 234.762 324.879 235.801C325.138 236.339 325.426 236.863 325.742 237.37C326.056 237.919 326.381 238.434 326.739 238.916Z" fill="#3C3430"/>
<path d="M321.071 239.308C320.091 238.59 319.235 237.715 318.539 236.72C318.189 236.213 317.893 235.673 317.654 235.106C317.429 234.539 317.308 233.936 317.295 233.325C317.546 234.494 318.047 235.595 318.763 236.552C319.107 237.048 319.481 237.523 319.883 237.975C320.253 238.423 320.645 238.882 321.071 239.308Z" fill="#3C3430"/>
<path d="M322.124 226.289C321.62 215.186 315.402 206.413 308.12 206.705C300.837 206.996 295.437 216.239 295.941 227.353C296.445 238.468 302.663 247.229 309.946 246.938C317.228 246.647 322.629 237.403 322.124 226.289Z" fill="#C7AF7E"/>
<path d="M310.888 208.564C309.74 211.301 309.171 214.246 309.219 217.214C309.219 217.942 309.219 218.693 309.376 219.387C309.533 220.082 309.656 220.822 309.802 221.572L310.563 226.054C311.164 229.078 311.424 232.159 311.337 235.241C311.248 236.777 311.008 238.301 310.62 239.79C310.191 241.265 309.585 242.683 308.816 244.014C309.297 242.6 309.627 241.139 309.802 239.655C309.996 238.17 310.06 236.67 309.992 235.174C309.956 233.673 309.822 232.176 309.589 230.692C309.387 229.224 309.174 227.746 308.872 226.211C308.569 224.676 308.356 223.23 308.144 221.729C307.994 220.99 307.897 220.241 307.852 219.488C307.802 218.708 307.802 217.926 307.852 217.146C308.034 214.056 309.086 211.081 310.888 208.564Z" fill="#E1D8D9"/>
<path d="M247.843 189.229H254.98C253.789 189.746 252.779 190.607 252.079 191.7C251.379 192.793 251.019 194.07 251.047 195.369C251.316 199.29 254.946 200.702 254.946 205.318C254.874 206.723 254.45 208.088 253.712 209.287C252.973 210.485 251.945 211.478 250.722 212.174L244.291 210.337C245.388 209.872 246.321 209.091 246.971 208.093C247.622 207.095 247.96 205.926 247.943 204.735C247.809 201.094 244.313 199.413 244.325 195.212C244.311 193.989 244.632 192.785 245.252 191.731C245.872 190.677 246.767 189.812 247.843 189.229Z" fill="white"/>
<path d="M263.047 208.444V194.159H258.711V189.251H273.13V194.148H268.783V208.421L263.047 208.444Z" fill="white"/>
<path d="M199.811 198.819C199.818 200.792 200.409 202.718 201.509 204.355C202.609 205.992 204.169 207.267 205.993 208.019C207.816 208.771 209.821 208.967 211.755 208.582C213.689 208.197 215.467 207.249 216.863 205.856L212.953 201.923C212.078 202.734 210.93 203.185 209.737 203.185C208.545 203.185 207.396 202.734 206.522 201.923C205.682 201.061 205.212 199.905 205.212 198.702C205.212 197.498 205.682 196.343 206.522 195.481C207.37 194.671 208.498 194.219 209.67 194.219C210.843 194.219 211.97 194.671 212.818 195.481L216.751 191.571C215.812 190.63 214.696 189.886 213.466 189.381C212.237 188.877 210.919 188.623 209.59 188.633C208.262 188.643 206.948 188.919 205.727 189.442C204.506 189.966 203.401 190.727 202.477 191.682C200.758 193.663 199.811 196.197 199.811 198.819Z" fill="white"/>
<path d="M229.736 208.791C227.754 208.795 225.815 208.21 224.165 207.111C222.515 206.012 221.228 204.449 220.468 202.618C219.707 200.787 219.507 198.772 219.892 196.827C220.278 194.882 221.232 193.096 222.633 191.694C224.532 189.809 227.1 188.751 229.776 188.751C232.452 188.751 235.019 189.809 236.918 191.694C238.313 193.102 239.258 194.893 239.635 196.839C240.011 198.786 239.802 200.8 239.033 202.627C238.264 204.454 236.97 206.012 235.315 207.103C233.66 208.194 231.719 208.77 229.736 208.758V208.791ZM229.636 194.226C228.749 194.226 227.883 194.489 227.146 194.981C226.409 195.474 225.834 196.174 225.495 196.993C225.156 197.811 225.067 198.712 225.24 199.582C225.413 200.451 225.84 201.25 226.467 201.876C227.094 202.503 227.892 202.93 228.761 203.103C229.631 203.276 230.532 203.187 231.351 202.848C232.17 202.509 232.87 201.934 233.362 201.197C233.854 200.46 234.117 199.594 234.117 198.707C234.117 197.519 233.645 196.379 232.805 195.538C231.964 194.698 230.824 194.226 229.636 194.226Z" fill="white"/>
<path d="M281.105 208.477H275.223L281.43 189.318H288.421L294.538 208.511H288.522L287.693 205.149H281.811L281.105 208.477ZM284.634 193.643L282.797 200.926H286.583L284.78 193.632L284.634 193.643Z" fill="white"/>
<path opacity="0.5" d="M222.949 180.964C222.897 181.214 222.83 181.526 222.746 181.901C222.673 182.276 222.585 182.672 222.481 183.089C222.387 183.506 222.272 183.917 222.137 184.323C222.012 184.74 221.871 185.11 221.715 185.433C221.559 185.766 221.387 186.037 221.199 186.245C221.012 186.453 220.804 186.558 220.574 186.558C220.231 186.558 219.934 186.453 219.684 186.245C219.444 186.047 219.241 185.792 219.074 185.48C218.908 185.177 218.788 184.849 218.715 184.495C218.632 184.141 218.59 183.813 218.59 183.511C218.59 183.094 218.627 182.745 218.699 182.464C218.772 182.193 218.897 181.933 219.074 181.683C219.262 181.433 219.512 181.167 219.824 180.886C220.137 180.605 220.538 180.256 221.028 179.839C221.267 179.631 221.496 179.433 221.715 179.245C221.934 179.058 222.142 178.886 222.34 178.73C222.392 178.521 222.439 178.328 222.481 178.151C222.533 177.964 222.574 177.797 222.606 177.651C222.335 178.016 222.007 178.323 221.621 178.573C221.246 178.823 220.814 178.948 220.324 178.948C219.877 178.948 219.512 178.75 219.231 178.355C218.96 177.948 218.824 177.355 218.824 176.573C218.824 176.188 218.897 175.745 219.043 175.245C219.189 174.745 219.397 174.276 219.668 173.839C219.939 173.401 220.272 173.032 220.668 172.73C221.064 172.427 221.507 172.276 221.996 172.276C222.225 172.276 222.423 172.334 222.59 172.448C222.757 172.563 222.897 172.709 223.012 172.886C223.127 173.052 223.215 173.235 223.278 173.433C223.34 173.62 223.387 173.797 223.418 173.964C223.439 173.901 223.455 173.839 223.465 173.776C223.475 173.703 223.491 173.641 223.512 173.589C223.616 173.235 223.731 172.995 223.856 172.87C223.991 172.735 224.189 172.667 224.449 172.667C224.595 172.667 224.715 172.693 224.809 172.745C224.913 172.797 224.965 172.844 224.965 172.886C224.913 173 224.871 173.089 224.84 173.151C224.809 173.214 224.778 173.282 224.746 173.355C224.715 173.417 224.684 173.5 224.653 173.605C224.621 173.709 224.58 173.86 224.528 174.058C224.507 174.131 224.465 174.302 224.403 174.573C224.35 174.834 224.278 175.146 224.184 175.511C224.1 175.875 224.007 176.276 223.903 176.714C223.809 177.151 223.715 177.578 223.621 177.995C223.913 177.828 224.215 177.625 224.528 177.386C224.84 177.146 225.137 176.901 225.418 176.651C225.699 176.401 225.949 176.167 226.168 175.948C226.387 175.719 226.548 175.532 226.653 175.386C226.736 175.261 226.83 175.172 226.934 175.12C227.038 175.068 227.127 175.052 227.199 175.073C227.283 175.084 227.33 175.131 227.34 175.214C227.361 175.287 227.33 175.391 227.246 175.526C227.007 175.912 226.715 176.287 226.371 176.651C226.028 177.006 225.673 177.339 225.309 177.651C224.955 177.953 224.606 178.224 224.262 178.464C223.929 178.693 223.642 178.881 223.403 179.026C223.298 179.495 223.21 179.875 223.137 180.167C223.064 180.459 223.002 180.724 222.949 180.964ZM220.981 177.886C221.199 177.886 221.403 177.828 221.59 177.714C221.788 177.599 221.965 177.469 222.121 177.323C222.278 177.167 222.408 177.011 222.512 176.855C222.616 176.698 222.694 176.573 222.746 176.48C222.788 176.386 222.835 176.261 222.887 176.105C222.949 175.948 222.996 175.797 223.028 175.651C223.059 175.506 223.069 175.375 223.059 175.261C223.059 175.146 223.022 175.084 222.949 175.073C222.887 175.063 222.835 175.021 222.793 174.948C222.762 174.875 222.736 174.792 222.715 174.698C222.694 174.605 222.679 174.511 222.668 174.417C222.668 174.323 222.663 174.24 222.653 174.167C222.6 173.802 222.512 173.537 222.387 173.37C222.262 173.203 222.121 173.12 221.965 173.12C221.705 173.12 221.455 173.224 221.215 173.433C220.986 173.641 220.778 173.912 220.59 174.245C220.413 174.568 220.272 174.927 220.168 175.323C220.064 175.709 220.012 176.078 220.012 176.433C220.012 176.87 220.074 177.224 220.199 177.495C220.324 177.756 220.585 177.886 220.981 177.886ZM220.262 185.136C220.47 185.136 220.637 184.98 220.762 184.667C220.897 184.365 221.038 183.948 221.184 183.417C221.215 183.292 221.257 183.11 221.309 182.87C221.371 182.641 221.439 182.375 221.512 182.073C221.595 181.771 221.679 181.443 221.762 181.089C221.845 180.745 221.934 180.396 222.028 180.042C221.944 180.115 221.856 180.188 221.762 180.261C221.679 180.344 221.59 180.438 221.496 180.542C221.267 180.761 221.043 180.969 220.824 181.167C220.616 181.375 220.429 181.589 220.262 181.808C220.095 182.037 219.96 182.282 219.856 182.542C219.762 182.802 219.715 183.105 219.715 183.448C219.715 183.792 219.725 184.073 219.746 184.292C219.778 184.511 219.814 184.683 219.856 184.808C219.908 184.933 219.965 185.016 220.028 185.058C220.1 185.11 220.179 185.136 220.262 185.136ZM229.621 169.526C229.59 169.641 229.528 169.756 229.434 169.87C229.35 169.974 229.252 170.063 229.137 170.136C229.033 170.198 228.923 170.24 228.809 170.261C228.694 170.282 228.6 170.261 228.528 170.198C228.309 170.032 228.194 169.855 228.184 169.667C228.173 169.469 228.22 169.287 228.324 169.12C228.429 168.943 228.559 168.797 228.715 168.683C228.871 168.558 229.007 168.485 229.121 168.464C229.236 168.443 229.33 168.469 229.403 168.542C229.486 168.605 229.548 168.693 229.59 168.808C229.632 168.912 229.653 169.032 229.653 169.167C229.663 169.302 229.653 169.422 229.621 169.526ZM227.465 172.855C227.517 172.792 227.616 172.74 227.762 172.698C227.908 172.657 228.059 172.625 228.215 172.605C228.371 172.573 228.512 172.558 228.637 172.558C228.772 172.547 228.85 172.547 228.871 172.558C228.882 172.568 228.856 172.677 228.793 172.886C228.731 173.094 228.653 173.339 228.559 173.62C228.465 173.901 228.366 174.193 228.262 174.495C228.158 174.787 228.08 175.026 228.028 175.214C227.975 175.401 227.913 175.615 227.84 175.855C227.767 176.084 227.699 176.313 227.637 176.542C227.585 176.761 227.548 176.969 227.528 177.167C227.507 177.365 227.522 177.516 227.574 177.62C227.627 177.745 227.684 177.834 227.746 177.886C227.809 177.927 227.877 177.948 227.949 177.948C228.158 177.948 228.418 177.834 228.731 177.605C229.054 177.375 229.377 177.105 229.699 176.792C230.033 176.469 230.34 176.146 230.621 175.823C230.903 175.49 231.111 175.224 231.246 175.026C231.33 174.922 231.413 174.855 231.496 174.823C231.59 174.792 231.663 174.797 231.715 174.839C231.778 174.881 231.809 174.948 231.809 175.042C231.819 175.136 231.788 175.245 231.715 175.37C231.548 175.662 231.304 176.011 230.981 176.417C230.658 176.813 230.314 177.198 229.949 177.573C229.585 177.938 229.225 178.25 228.871 178.511C228.528 178.771 228.246 178.907 228.028 178.917C227.85 178.927 227.673 178.896 227.496 178.823C227.33 178.761 227.173 178.672 227.028 178.558C226.892 178.433 226.778 178.292 226.684 178.136C226.59 177.969 226.538 177.797 226.528 177.62C226.496 177.36 226.496 177.006 226.528 176.558C226.559 176.099 226.616 175.636 226.699 175.167C226.783 174.688 226.887 174.235 227.012 173.808C227.147 173.381 227.298 173.063 227.465 172.855ZM230.887 177.105C230.772 176.99 230.689 176.881 230.637 176.776C230.595 176.662 230.564 176.552 230.543 176.448C230.522 176.334 230.522 176.219 230.543 176.105C230.585 175.959 230.647 175.823 230.731 175.698C230.804 175.584 230.903 175.469 231.028 175.355C231.153 175.23 231.319 175.115 231.528 175.011C231.663 174.677 231.783 174.328 231.887 173.964C232.002 173.589 232.1 173.25 232.184 172.948C232.278 172.594 232.361 172.24 232.434 171.886C232.694 171 232.83 170.282 232.84 169.73C232.85 169.167 232.84 168.797 232.809 168.62C232.798 168.547 232.788 168.474 232.778 168.401C232.757 168.339 232.736 168.271 232.715 168.198C232.705 168.115 232.689 168.037 232.668 167.964C232.783 167.901 232.882 167.849 232.965 167.808C233.059 167.766 233.137 167.735 233.199 167.714C233.272 167.683 233.34 167.662 233.403 167.651C233.642 167.599 233.866 167.573 234.074 167.573C234.293 167.563 234.413 167.599 234.434 167.683C234.444 167.735 234.455 167.828 234.465 167.964C234.486 168.099 234.496 168.266 234.496 168.464C234.496 168.662 234.481 168.886 234.449 169.136C234.418 169.375 234.361 169.631 234.278 169.901C234.205 170.141 234.106 170.474 233.981 170.901C233.866 171.266 233.715 171.756 233.528 172.37C233.34 172.974 233.095 173.75 232.793 174.698C233.106 174.594 233.449 174.495 233.824 174.401C234.199 174.308 234.58 174.23 234.965 174.167C235.361 174.105 235.752 174.058 236.137 174.026C236.533 173.995 236.897 173.99 237.231 174.011C237.293 174.011 237.335 174.042 237.356 174.105C237.387 174.157 237.387 174.214 237.356 174.276C237.335 174.339 237.278 174.401 237.184 174.464C237.1 174.516 236.975 174.547 236.809 174.558C236.6 174.578 236.371 174.605 236.121 174.636C235.871 174.657 235.611 174.693 235.34 174.745C235.08 174.787 234.819 174.844 234.559 174.917C234.298 174.98 234.054 175.058 233.824 175.151C233.647 175.214 233.47 175.276 233.293 175.339C233.147 175.391 232.991 175.453 232.824 175.526C232.668 175.589 232.538 175.646 232.434 175.698L232.074 176.839C232.679 177.266 233.142 177.703 233.465 178.151C233.798 178.599 234.038 179.011 234.184 179.386C234.361 179.823 234.46 180.25 234.481 180.667C234.481 181.125 234.413 181.584 234.278 182.042C234.142 182.511 233.96 182.953 233.731 183.37C233.512 183.797 233.252 184.193 232.949 184.558C232.658 184.922 232.345 185.235 232.012 185.495C231.689 185.756 231.356 185.953 231.012 186.089C230.679 186.224 230.361 186.276 230.059 186.245C229.84 186.224 229.658 186.151 229.512 186.026C229.366 185.912 229.257 185.761 229.184 185.573C229.111 185.396 229.069 185.193 229.059 184.964C229.048 184.745 229.069 184.526 229.121 184.308C229.163 184.089 229.252 183.683 229.387 183.089C229.502 182.589 229.679 181.86 229.918 180.901C230.158 179.953 230.481 178.688 230.887 177.105ZM231.809 177.839C231.663 178.36 231.533 178.839 231.418 179.276C231.314 179.714 231.225 180.099 231.153 180.433C231.059 180.818 230.986 181.167 230.934 181.48C230.84 181.875 230.741 182.266 230.637 182.651C230.543 183.037 230.47 183.381 230.418 183.683C230.356 183.995 230.33 184.245 230.34 184.433C230.35 184.62 230.418 184.714 230.543 184.714C230.845 184.735 231.158 184.615 231.481 184.355C231.814 184.105 232.116 183.782 232.387 183.386C232.658 183 232.882 182.578 233.059 182.12C233.236 181.672 233.324 181.256 233.324 180.87C233.324 180.443 233.257 180.021 233.121 179.605C233.028 179.386 232.918 179.172 232.793 178.964C232.679 178.787 232.538 178.599 232.371 178.401C232.215 178.193 232.028 178.006 231.809 177.839ZM241.543 174.776C241.585 174.714 241.637 174.677 241.699 174.667C241.772 174.646 241.83 174.651 241.871 174.683C241.913 174.714 241.934 174.766 241.934 174.839C241.944 174.912 241.918 175.011 241.856 175.136C241.647 175.532 241.371 175.959 241.028 176.417C240.694 176.875 240.34 177.308 239.965 177.714C239.59 178.11 239.225 178.438 238.871 178.698C238.517 178.959 238.22 179.089 237.981 179.089C237.637 179.089 237.35 179.021 237.121 178.886C236.892 178.75 236.71 178.584 236.574 178.386C236.449 178.188 236.361 177.974 236.309 177.745C236.257 177.506 236.241 177.287 236.262 177.089C236.272 176.922 236.309 176.625 236.371 176.198C236.434 175.761 236.517 175.261 236.621 174.698C236.725 174.125 236.84 173.516 236.965 172.87C237.1 172.214 237.241 171.584 237.387 170.98C237.21 171 237.033 171.021 236.856 171.042C236.679 171.063 236.517 171.073 236.371 171.073C236.038 171.073 235.725 171.037 235.434 170.964C235.132 170.881 234.908 170.802 234.762 170.73C234.679 170.688 234.642 170.631 234.653 170.558C234.663 170.474 234.694 170.396 234.746 170.323C234.798 170.24 234.866 170.172 234.949 170.12C235.022 170.058 235.09 170.026 235.153 170.026C235.35 170.047 235.564 170.068 235.793 170.089C236.022 170.099 236.272 170.099 236.543 170.089C236.741 170.078 236.929 170.063 237.106 170.042C237.293 170.021 237.475 169.995 237.653 169.964C237.788 169.464 237.918 169.032 238.043 168.667C238.179 168.292 238.298 168.032 238.403 167.886C238.434 167.834 238.502 167.792 238.606 167.761C238.72 167.719 238.84 167.693 238.965 167.683C239.09 167.662 239.21 167.662 239.324 167.683C239.439 167.693 239.522 167.73 239.574 167.792C239.627 167.875 239.647 168.089 239.637 168.433C239.627 168.776 239.569 169.214 239.465 169.745C239.903 169.745 240.288 169.771 240.621 169.823C240.965 169.865 241.257 169.917 241.496 169.98C241.736 170.032 241.929 170.089 242.074 170.151C242.22 170.203 242.33 170.24 242.403 170.261C242.475 170.282 242.512 170.334 242.512 170.417C242.522 170.5 242.507 170.589 242.465 170.683C242.434 170.766 242.377 170.839 242.293 170.901C242.21 170.964 242.116 170.985 242.012 170.964C241.908 170.953 241.788 170.933 241.653 170.901C241.528 170.87 241.371 170.844 241.184 170.823C241.007 170.802 240.793 170.782 240.543 170.761C240.293 170.74 240.002 170.73 239.668 170.73C239.606 170.73 239.533 170.735 239.449 170.745C239.377 170.745 239.298 170.745 239.215 170.745C239.173 170.912 239.132 171.078 239.09 171.245C239.059 171.401 239.012 171.568 238.949 171.745C238.814 172.162 238.658 172.615 238.481 173.105C238.324 173.532 238.137 174.021 237.918 174.573C237.699 175.125 237.455 175.714 237.184 176.339C237.121 176.787 237.127 177.131 237.199 177.37C237.283 177.599 237.382 177.766 237.496 177.87C237.632 177.985 237.798 178.047 237.996 178.058C238.153 178.078 238.34 178.026 238.559 177.901C238.788 177.766 239.022 177.589 239.262 177.37C239.502 177.151 239.741 176.912 239.981 176.651C240.231 176.391 240.46 176.136 240.668 175.886C240.877 175.636 241.059 175.412 241.215 175.214C241.371 175.006 241.481 174.86 241.543 174.776ZM247.746 178.198C248.069 178.198 248.423 178.073 248.809 177.823C249.205 177.563 249.585 177.261 249.949 176.917C250.324 176.573 250.663 176.224 250.965 175.87C251.278 175.506 251.512 175.214 251.668 174.995C251.762 174.86 251.85 174.782 251.934 174.761C252.017 174.73 252.08 174.74 252.121 174.792C252.163 174.844 252.179 174.927 252.168 175.042C252.158 175.146 252.111 175.266 252.028 175.401C251.955 175.526 251.83 175.709 251.653 175.948C251.486 176.177 251.283 176.433 251.043 176.714C250.814 176.985 250.548 177.266 250.246 177.558C249.955 177.839 249.647 178.099 249.324 178.339C249.002 178.568 248.668 178.756 248.324 178.901C247.981 179.058 247.642 179.136 247.309 179.136C246.85 179.136 246.465 179.047 246.153 178.87C245.85 178.703 245.606 178.485 245.418 178.214C245.241 177.943 245.116 177.646 245.043 177.323C244.97 176.99 244.934 176.662 244.934 176.339C244.934 176.016 245.007 175.615 245.153 175.136C245.298 174.657 245.512 174.198 245.793 173.761C246.085 173.313 246.449 172.933 246.887 172.62C247.324 172.297 247.84 172.136 248.434 172.136C248.767 172.136 249.048 172.25 249.278 172.48C249.517 172.709 249.632 173.021 249.621 173.417C249.621 173.605 249.59 173.792 249.528 173.98C249.465 174.157 249.382 174.318 249.278 174.464C249.173 174.599 249.048 174.709 248.903 174.792C248.767 174.875 248.616 174.917 248.449 174.917C248.314 174.917 248.21 174.87 248.137 174.776C248.074 174.672 248.033 174.558 248.012 174.433C248.002 174.297 248.002 174.167 248.012 174.042C248.033 173.917 248.054 173.834 248.074 173.792C248.127 173.719 248.184 173.667 248.246 173.636C248.309 173.605 248.382 173.568 248.465 173.526C248.528 173.495 248.574 173.448 248.606 173.386C248.647 173.323 248.668 173.256 248.668 173.183C248.668 173.11 248.647 173.047 248.606 172.995C248.564 172.943 248.496 172.917 248.403 172.917C248.309 172.917 248.137 172.995 247.887 173.151C247.647 173.297 247.397 173.521 247.137 173.823C246.887 174.115 246.663 174.485 246.465 174.933C246.267 175.381 246.163 175.901 246.153 176.495C246.142 176.839 246.189 177.12 246.293 177.339C246.397 177.558 246.528 177.73 246.684 177.855C246.84 177.98 247.012 178.068 247.199 178.12C247.387 178.172 247.569 178.198 247.746 178.198ZM258.918 175.62C258.772 175.828 258.585 176.089 258.356 176.401C258.127 176.703 257.887 177.011 257.637 177.323C257.397 177.625 257.158 177.907 256.918 178.167C256.689 178.417 256.496 178.594 256.34 178.698C256.236 178.761 256.116 178.813 255.981 178.855C255.845 178.896 255.705 178.922 255.559 178.933C255.423 178.943 255.293 178.933 255.168 178.901C255.043 178.881 254.934 178.839 254.84 178.776C254.746 178.703 254.668 178.599 254.606 178.464C254.554 178.349 254.502 178.198 254.449 178.011C254.408 177.823 254.392 177.589 254.403 177.308C254.153 177.724 253.877 178.047 253.574 178.276C253.272 178.495 252.986 178.657 252.715 178.761C252.403 178.875 252.09 178.943 251.778 178.964C251.632 178.964 251.475 178.912 251.309 178.808C251.142 178.714 251.002 178.563 250.887 178.355C250.772 178.136 250.699 177.86 250.668 177.526C250.637 177.183 250.679 176.776 250.793 176.308C250.939 175.672 251.168 175.094 251.481 174.573C251.804 174.052 252.153 173.61 252.528 173.245C252.903 172.87 253.272 172.589 253.637 172.401C254.002 172.214 254.304 172.131 254.543 172.151C254.824 172.203 255.054 172.287 255.231 172.401C255.377 172.506 255.47 172.662 255.512 172.87C255.564 173.068 255.481 173.334 255.262 173.667C255.408 173.636 255.528 173.615 255.621 173.605C255.725 173.594 255.804 173.589 255.856 173.589C255.918 173.589 255.96 173.594 255.981 173.605C255.991 173.625 255.996 173.672 255.996 173.745C255.996 173.808 255.981 173.927 255.949 174.105C255.918 174.282 255.871 174.521 255.809 174.823C255.746 175.125 255.663 175.516 255.559 175.995C255.538 176.089 255.517 176.177 255.496 176.261C255.486 176.334 255.47 176.412 255.449 176.495C255.439 176.568 255.423 176.657 255.403 176.761C255.382 176.865 255.356 176.995 255.324 177.151C255.314 177.245 255.309 177.349 255.309 177.464C255.319 177.568 255.34 177.667 255.371 177.761C255.403 177.855 255.449 177.933 255.512 177.995C255.585 178.047 255.684 178.073 255.809 178.073C255.913 178.073 256.048 178.011 256.215 177.886C256.382 177.75 256.559 177.584 256.746 177.386C256.934 177.177 257.127 176.953 257.324 176.714C257.533 176.464 257.725 176.224 257.903 175.995C258.08 175.766 258.236 175.563 258.371 175.386C258.517 175.209 258.621 175.078 258.684 174.995C258.767 174.901 258.85 174.849 258.934 174.839C259.017 174.818 259.08 174.839 259.121 174.901C259.163 174.964 259.168 175.058 259.137 175.183C259.116 175.308 259.043 175.453 258.918 175.62ZM254.34 176.308C254.392 176.099 254.455 175.855 254.528 175.573C254.6 175.292 254.663 175.021 254.715 174.761C254.767 174.5 254.804 174.287 254.824 174.12C254.856 173.943 254.85 173.86 254.809 173.87C254.757 173.881 254.699 173.896 254.637 173.917C254.585 173.938 254.517 173.953 254.434 173.964C254.35 173.974 254.267 173.99 254.184 174.011C254.267 173.844 254.314 173.709 254.324 173.605C254.345 173.49 254.35 173.401 254.34 173.339C254.33 173.266 254.309 173.209 254.278 173.167C254.163 173.073 253.96 173.151 253.668 173.401C253.387 173.641 253.059 174.089 252.684 174.745C252.528 175.016 252.403 175.308 252.309 175.62C252.215 175.922 252.147 176.209 252.106 176.48C252.074 176.75 252.069 176.99 252.09 177.198C252.111 177.396 252.153 177.526 252.215 177.589C252.33 177.703 252.46 177.761 252.606 177.761C252.752 177.75 252.897 177.709 253.043 177.636C253.199 177.552 253.35 177.448 253.496 177.323C253.653 177.198 253.788 177.068 253.903 176.933C254.028 176.797 254.127 176.672 254.199 176.558C254.283 176.443 254.33 176.36 254.34 176.308ZM257.278 178.651C257.205 178.766 257.127 178.839 257.043 178.87C256.949 178.912 256.871 178.917 256.809 178.886C256.736 178.865 256.689 178.813 256.668 178.73C256.647 178.646 256.668 178.542 256.731 178.417C256.762 178.355 256.835 178.214 256.949 177.995C257.054 177.776 257.184 177.516 257.34 177.214C257.486 176.901 257.647 176.568 257.824 176.214C258.002 175.849 258.168 175.506 258.324 175.183C258.491 174.86 258.642 174.573 258.778 174.323C258.913 174.063 259.012 173.875 259.074 173.761C258.96 173.657 258.882 173.584 258.84 173.542C258.798 173.49 258.767 173.386 258.746 173.23C258.725 173.094 258.757 172.917 258.84 172.698C258.923 172.48 259.033 172.271 259.168 172.073C259.304 171.865 259.455 171.688 259.621 171.542C259.788 171.396 259.949 171.323 260.106 171.323C260.397 171.323 260.6 171.417 260.715 171.605C260.84 171.792 260.913 171.985 260.934 172.183C260.955 172.318 260.944 172.49 260.903 172.698C260.861 172.907 260.783 173.094 260.668 173.261C260.699 173.282 260.741 173.308 260.793 173.339C260.845 173.36 260.929 173.37 261.043 173.37C261.21 173.37 261.324 173.36 261.387 173.339C261.46 173.318 261.569 173.308 261.715 173.308C261.892 173.308 262.038 173.355 262.153 173.448C262.267 173.532 262.361 173.641 262.434 173.776C262.507 173.901 262.559 174.042 262.59 174.198C262.632 174.344 262.658 174.48 262.668 174.605C262.699 174.865 262.632 175.136 262.465 175.417C262.298 175.698 262.095 176.006 261.856 176.339C261.71 176.547 261.564 176.782 261.418 177.042C261.272 177.302 261.21 177.537 261.231 177.745C261.252 177.881 261.288 177.99 261.34 178.073C261.392 178.157 261.538 178.198 261.778 178.198C261.955 178.198 262.147 178.136 262.356 178.011C262.574 177.875 262.793 177.709 263.012 177.511C263.241 177.302 263.465 177.078 263.684 176.839C263.903 176.589 264.106 176.349 264.293 176.12C264.481 175.881 264.637 175.667 264.762 175.48C264.897 175.292 264.996 175.157 265.059 175.073C265.111 174.99 265.179 174.933 265.262 174.901C265.345 174.87 265.418 174.87 265.481 174.901C265.543 174.933 265.58 174.995 265.59 175.089C265.611 175.183 265.574 175.308 265.481 175.464C265.418 175.568 265.309 175.735 265.153 175.964C265.007 176.193 264.824 176.448 264.606 176.73C264.397 177.011 264.163 177.302 263.903 177.605C263.642 177.896 263.366 178.167 263.074 178.417C262.793 178.657 262.507 178.855 262.215 179.011C261.934 179.167 261.663 179.245 261.403 179.245C261.132 179.245 260.908 179.193 260.731 179.089C260.554 178.985 260.408 178.86 260.293 178.714C260.189 178.558 260.111 178.391 260.059 178.214C260.017 178.026 260.002 177.855 260.012 177.698C260.022 177.573 260.054 177.443 260.106 177.308C260.168 177.162 260.236 177.016 260.309 176.87C260.392 176.714 260.475 176.563 260.559 176.417C260.653 176.261 260.736 176.11 260.809 175.964C260.986 175.662 261.127 175.407 261.231 175.198C261.345 174.98 261.403 174.797 261.403 174.651C261.403 174.558 261.382 174.474 261.34 174.401C261.298 174.328 261.231 174.292 261.137 174.292C261.074 174.292 261.028 174.297 260.996 174.308C260.975 174.308 260.949 174.308 260.918 174.308C260.897 174.308 260.861 174.313 260.809 174.323C260.767 174.323 260.699 174.323 260.606 174.323C260.47 174.323 260.356 174.302 260.262 174.261C260.168 174.219 260.08 174.188 259.996 174.167C259.955 174.24 259.861 174.396 259.715 174.636C259.569 174.875 259.397 175.157 259.199 175.48C259.012 175.802 258.809 176.141 258.59 176.495C258.382 176.849 258.184 177.183 257.996 177.495C257.809 177.797 257.653 178.058 257.528 178.276C257.392 178.485 257.309 178.61 257.278 178.651ZM269.34 175.745C269.288 176.068 269.236 176.375 269.184 176.667C269.142 176.959 269.116 177.193 269.106 177.37C269.095 177.631 269.142 177.818 269.246 177.933C269.35 178.047 269.465 178.105 269.59 178.105C269.736 178.105 269.913 178.032 270.121 177.886C270.34 177.74 270.569 177.558 270.809 177.339C271.048 177.12 271.288 176.881 271.528 176.62C271.767 176.36 271.986 176.115 272.184 175.886C272.392 175.646 272.564 175.438 272.699 175.261C272.845 175.084 272.944 174.969 272.996 174.917C273.059 174.855 273.121 174.818 273.184 174.808C273.257 174.797 273.314 174.808 273.356 174.839C273.397 174.87 273.418 174.927 273.418 175.011C273.418 175.094 273.377 175.198 273.293 175.323C273.168 175.521 273.007 175.756 272.809 176.026C272.611 176.287 272.392 176.558 272.153 176.839C271.913 177.12 271.658 177.396 271.387 177.667C271.127 177.938 270.861 178.177 270.59 178.386C270.33 178.594 270.074 178.761 269.824 178.886C269.585 179.021 269.366 179.089 269.168 179.089C269.022 179.089 268.882 179.047 268.746 178.964C268.621 178.881 268.507 178.771 268.403 178.636C268.298 178.5 268.215 178.349 268.153 178.183C268.1 178.016 268.08 177.849 268.09 177.683C268.1 177.61 268.116 177.485 268.137 177.308C267.699 177.797 267.257 178.188 266.809 178.48C266.371 178.761 265.949 178.901 265.543 178.901C265.397 178.901 265.241 178.865 265.074 178.792C264.908 178.719 264.757 178.599 264.621 178.433C264.496 178.266 264.392 178.047 264.309 177.776C264.225 177.506 264.194 177.177 264.215 176.792C264.246 176.188 264.366 175.615 264.574 175.073C264.783 174.532 265.043 174.063 265.356 173.667C265.679 173.261 266.038 172.943 266.434 172.714C266.84 172.474 267.246 172.355 267.653 172.355C267.83 172.355 267.991 172.401 268.137 172.495C268.283 172.578 268.408 172.693 268.512 172.839C268.616 172.974 268.699 173.125 268.762 173.292C268.835 173.459 268.887 173.615 268.918 173.761C268.991 173.459 269.059 173.162 269.121 172.87C269.184 172.578 269.246 172.302 269.309 172.042C269.413 171.657 269.522 171.24 269.637 170.792C269.741 170.407 269.861 169.964 269.996 169.464C270.132 168.964 270.283 168.438 270.449 167.886C270.554 167.802 270.653 167.74 270.746 167.698C270.84 167.657 270.929 167.625 271.012 167.605C271.106 167.573 271.194 167.558 271.278 167.558C271.382 167.558 271.475 167.573 271.559 167.605C271.642 167.625 271.71 167.693 271.762 167.808C271.824 167.912 271.866 168.073 271.887 168.292C271.908 168.511 271.908 168.808 271.887 169.183C271.866 169.641 271.783 170.141 271.637 170.683C271.502 171.224 271.319 171.787 271.09 172.37C270.861 172.943 270.595 173.521 270.293 174.105C270.002 174.677 269.684 175.224 269.34 175.745ZM268.418 175.948C268.46 175.75 268.496 175.552 268.528 175.355C268.569 175.157 268.616 174.953 268.668 174.745C268.647 174.756 268.627 174.766 268.606 174.776C268.595 174.787 268.58 174.797 268.559 174.808C268.444 174.86 268.366 174.86 268.324 174.808C268.283 174.745 268.262 174.651 268.262 174.526C268.262 174.464 268.257 174.355 268.246 174.198C268.236 174.032 268.205 173.865 268.153 173.698C268.111 173.521 268.043 173.37 267.949 173.245C267.856 173.11 267.725 173.042 267.559 173.042C267.319 173.042 267.074 173.167 266.824 173.417C266.574 173.657 266.34 173.953 266.121 174.308C265.903 174.651 265.72 175.021 265.574 175.417C265.429 175.813 265.345 176.167 265.324 176.48C265.304 176.98 265.366 177.339 265.512 177.558C265.658 177.776 265.856 177.886 266.106 177.886C266.293 177.886 266.496 177.813 266.715 177.667C266.944 177.521 267.163 177.344 267.371 177.136C267.59 176.927 267.788 176.714 267.965 176.495C268.153 176.276 268.304 176.094 268.418 175.948Z" fill="white"/>
</svg>
