<svg width="314" height="401" viewBox="0 0 314 401" fill="none" xmlns="http://www.w3.org/2000/svg">
<g clip-path="url(#clip0)">
<path d="M188.196 77.5326C184.338 68.3887 176.376 62.9875 170.414 65.4688C164.452 67.95 162.746 77.374 166.605 86.5178C170.463 95.6617 178.425 101.063 184.387 98.5817C190.349 96.1005 192.055 86.6765 188.196 77.5326Z" fill="#C9B17B"/>
<path d="M173.315 66.1943C173.207 68.8891 173.654 71.5523 174.594 73.9557C174.863 74.543 175.089 75.1792 175.401 75.7177C175.763 76.2997 176.075 76.8382 176.436 77.4203L178.469 80.9667C179.823 83.3002 181.139 85.7749 181.955 88.4171C182.363 89.7382 182.636 91.1134 182.767 92.4502C182.854 93.8359 182.801 95.1833 182.562 96.5412C182.474 95.1555 182.392 93.8622 182.033 92.5847C181.767 91.3019 181.315 90.0296 180.82 88.8062C180.326 87.5827 179.788 86.4081 179.108 85.1951C178.478 84.0258 177.847 82.8564 177.124 81.6923C176.494 80.5229 175.771 79.3587 175.14 78.1894C174.779 77.6073 174.461 76.9764 174.192 76.3891C173.874 75.7582 173.691 75.0733 173.465 74.4371C172.643 71.7026 172.554 68.8336 173.315 66.1943Z" fill="#E2D9DA"/>
</g>
<g clip-path="url(#clip1)">
<path d="M221.637 235.071C225.919 226.118 224.679 216.578 218.867 213.762C213.055 210.947 204.872 215.923 200.59 224.877C196.308 233.83 197.548 243.37 203.36 246.186C209.172 249.001 217.355 244.025 221.637 235.071Z" fill="#C9B17B"/>
<path d="M220.248 216.414C218.16 218.121 216.464 220.223 215.29 222.521C215.029 223.112 214.702 223.703 214.507 224.294C214.311 224.95 214.115 225.541 213.92 226.198L212.615 230.072C211.766 232.632 210.788 235.259 209.352 237.623C208.635 238.804 207.787 239.921 206.873 240.906C205.894 241.89 204.851 242.744 203.676 243.466C204.655 242.481 205.568 241.562 206.286 240.446C207.069 239.395 207.721 238.213 208.309 237.032C208.896 235.85 209.418 234.668 209.874 233.355C210.331 232.107 210.788 230.86 211.179 229.546C211.636 228.299 212.027 226.986 212.484 225.738C212.68 225.081 212.941 224.425 213.202 223.834C213.463 223.177 213.854 222.586 214.181 221.995C215.681 219.566 217.769 217.596 220.248 216.414Z" fill="#E2D9DA"/>
</g>
<g clip-path="url(#clip2)">
<path d="M169.933 212.223C164.32 204.038 155.438 200.342 150.094 203.968C144.75 207.594 144.968 217.168 150.58 225.353C156.193 233.538 165.076 237.234 170.42 233.609C175.764 229.983 175.546 220.408 169.933 212.223Z" fill="#C9B17B"/>
<path d="M153.081 204.097C153.516 206.759 154.487 209.279 155.89 211.445C156.271 211.966 156.62 212.544 157.034 213.009C157.505 213.507 157.919 213.972 158.389 214.47L161.092 217.537C162.885 219.552 164.671 221.713 166 224.138C166.665 225.35 167.207 226.643 167.604 227.926C167.967 229.266 168.184 230.597 168.223 231.975C167.859 230.635 167.52 229.385 166.912 228.205C166.394 227.002 165.696 225.846 164.966 224.746C164.236 223.647 163.474 222.604 162.565 221.552C161.713 220.532 160.861 219.513 159.919 218.517C159.067 217.498 158.126 216.503 157.274 215.483C156.803 214.985 156.365 214.431 155.983 213.91C155.545 213.355 155.229 212.721 154.881 212.143C153.527 209.629 152.865 206.836 153.081 204.097Z" fill="#E2D9DA"/>
</g>
<g clip-path="url(#clip3)">
<path d="M223.637 41.0714C227.919 32.118 226.679 22.5777 220.867 19.7625C215.055 16.9473 206.872 21.9233 202.59 30.8767C198.308 39.8301 199.548 49.3705 205.36 52.1856C211.172 55.0008 219.355 50.0248 223.637 41.0714Z" fill="#C9B17B"/>
<path d="M220.847 23.2749C218.759 24.982 217.063 27.0831 215.888 29.3812C215.627 29.9722 215.301 30.5631 215.105 31.1541C214.91 31.8107 214.714 32.4016 214.518 33.0582L213.213 36.9322C212.365 39.4929 211.386 42.1193 209.951 44.4831C209.233 45.665 208.385 46.7812 207.472 47.7661C206.493 48.751 205.449 49.6046 204.275 50.3268C205.254 49.3419 206.167 48.4227 206.885 47.3065C207.668 46.2559 208.32 45.074 208.907 43.8921C209.494 42.7103 210.016 41.5284 210.473 40.2152C210.93 38.9676 211.386 37.7201 211.778 36.4069C212.235 35.1593 212.626 33.8461 213.083 32.5986C213.279 31.942 213.54 31.2854 213.801 30.6945C214.062 30.0379 214.453 29.4469 214.779 28.856C216.28 26.4265 218.368 24.4567 220.847 23.2749Z" fill="#E2D9DA"/>
</g>
<g opacity="0.3" clip-path="url(#clip4)">
<path d="M274.393 218.529C271.112 220.535 268.015 222.828 265.156 225.38C264.638 225.746 264.441 226.424 264.684 227.014C264.927 227.603 265.525 227.967 266.158 227.875C269.99 227.764 273.804 227.308 277.557 226.523C280.028 225.742 281.397 223.129 280.644 220.658C279.507 218.358 276.721 217.392 274.393 218.529Z" fill="#90445B"/>
</g>
<g opacity="0.2" clip-path="url(#clip5)">
<path d="M234.835 78.53C232.764 81.7701 230.984 85.1878 229.531 88.7336C229.225 89.2899 229.345 89.9863 229.822 90.4098C230.298 90.8333 230.995 90.8983 231.524 90.5384C234.921 88.7606 238.15 86.6813 241.181 84.3314C243.06 82.5476 243.147 79.5994 241.387 77.7073C239.358 76.137 236.43 76.4883 234.835 78.53Z" fill="#6D1F37"/>
</g>
<g opacity="0.2" clip-path="url(#clip6)">
<path d="M235.221 14.0582C234.706 17.8689 234.53 21.7185 234.704 25.5465C234.66 26.18 235.062 26.7611 235.673 26.9448C236.283 27.1284 236.943 26.8939 237.271 26.3449C239.605 23.3027 241.659 20.0575 243.419 16.6506C244.373 14.2413 243.211 11.5306 240.819 10.5545C238.317 9.98405 235.809 11.5349 235.221 14.0582Z" fill="#6D1F37"/>
</g>
<g clip-path="url(#clip7)">
<path d="M77.5614 68.9576C80.7103 71.1647 84.049 73.089 87.5298 74.6917C88.0725 75.0212 88.7734 74.9309 89.2168 74.4727C89.6603 74.0146 89.7549 73.3208 89.4178 72.7771C87.7863 69.3077 85.8464 65.9931 83.6277 62.8653C81.9255 60.9113 78.9837 60.6994 77.0184 62.3765C75.3631 64.337 75.5894 67.2772 77.5614 68.9576Z" fill="#6D1F37"/>
</g>
<g clip-path="url(#clip8)">
<path d="M70.6787 211.883C74.3798 210.84 77.982 209.471 81.4249 207.788C82.0233 207.576 82.3966 206.976 82.3222 206.343C82.2478 205.71 81.7703 205.198 81.136 205.115C77.4167 204.184 73.6223 203.591 69.7963 203.331C67.2062 203.414 65.1815 205.559 65.2376 208.142C65.7093 210.664 68.1299 212.348 70.6787 211.883Z" fill="#6D1F37"/>
</g>
<g clip-path="url(#clip9)">
<path d="M141.909 7.93631C143.478 11.4472 145.354 14.8129 147.518 17.9756C147.815 18.537 148.462 18.8194 149.078 18.654C149.694 18.4886 150.131 17.9419 150.121 17.3023C150.503 13.4874 150.54 9.64704 150.243 5.82378C149.786 3.27303 147.37 1.58054 144.823 2.01038C142.395 2.84266 141.08 5.48175 141.909 7.93631Z" fill="#6D1F37"/>
</g>
<g opacity="0.4" clip-path="url(#clip10)">
<path d="M80.1876 172.545C83.8614 173.681 87.6294 174.489 91.4338 174.947C92.0514 175.095 92.6909 174.794 92.9725 174.222C93.2542 173.65 93.1316 172.961 92.6441 172.546C90.0276 169.744 87.165 167.184 84.0944 164.886C81.8752 163.548 79.01 164.248 77.6534 166.447C76.6788 168.821 77.7955 171.55 80.1876 172.545Z" fill="#6D1F37"/>
</g>
<g opacity="0.4" clip-path="url(#clip11)">
<path d="M283.819 21.5369C281.786 24.8005 280.045 28.2384 278.632 31.8006C278.333 32.3604 278.461 33.0553 278.942 33.4734C279.424 33.8914 280.121 33.9484 280.646 33.5825C284.022 31.7658 287.227 29.6497 290.231 27.2653C292.09 25.46 292.142 22.511 290.362 20.6392C288.315 19.0922 285.391 19.4771 283.819 21.5369Z" fill="#6D1F37"/>
</g>
<g opacity="0.4" clip-path="url(#clip12)">
<path d="M286.445 161.568C284.206 164.695 282.249 168.014 280.612 171.479C280.277 172.018 280.36 172.72 280.814 173.168C281.268 173.616 281.96 173.717 282.507 173.386C285.993 171.789 289.327 169.882 292.476 167.694C294.447 166.012 294.688 163.072 293.031 161.09C291.087 159.416 288.145 159.613 286.445 161.568Z" fill="#6D1F37"/>
</g>
<g clip-path="url(#clip13)">
<path d="M283.567 84.5107C281.57 87.7969 279.868 91.2541 278.496 94.832C278.202 95.3951 278.338 96.0886 278.824 96.5012C279.31 96.9138 280.009 96.9629 280.529 96.5911C283.885 94.7367 287.066 92.5846 290.042 90.1666C291.881 88.3406 291.901 85.3912 290.099 83.5395C288.035 82.0157 285.115 82.4333 283.567 84.5107Z" fill="#6D1F37"/>
</g>
<circle cx="115.27" cy="227.27" r="3.27038" fill="#C9B17B"/>
<circle cx="116.27" cy="81.2704" r="3.27038" fill="#C9B17B"/>
<circle cx="157.27" cy="42.2704" r="3.27038" fill="#C9B17B"/>
<circle cx="105.27" cy="144.27" r="3.27038" fill="#C9B17B"/>
<circle cx="273.068" cy="133.278" r="3.27038" fill="#DBC38F"/>
<circle cx="69.2704" cy="116.27" r="3.27038" fill="#DBC38F"/>
<circle cx="310.27" cy="112.27" r="3.27038" fill="#C9B17B"/>
<circle cx="270.27" cy="58.2704" r="3.27038" fill="#DBC38F"/>
<circle cx="263.27" cy="204.27" r="3.27038" fill="#C9B17B"/>
<path d="M214.707 290.848C215.414 292.261 216.768 293.144 218.24 293.144H259.758V359.146C259.758 362.149 257.579 364.622 254.87 364.622H195.862V256.346L214.707 290.848Z" fill="#90445B"/>
<path d="M177.43 290.848C176.723 292.261 175.369 293.144 173.896 293.144H132.378V359.146C132.378 362.149 134.557 364.622 137.266 364.622H196.216V256.346L177.43 290.848Z" fill="#6D1F37"/>
<path d="M275.129 294.263H217.592C216.12 294.263 214.766 293.38 214.059 291.967L195.862 256.346H256.519C258.521 256.346 260.347 257.524 261.348 259.466L277.131 290.495C278.014 292.202 276.895 294.263 275.129 294.263Z" fill="#964D65"/>
<path d="M221.479 291.967L203.282 256.346H195.862L214 291.967C214.707 293.38 216.061 294.263 217.534 294.263H224.954C223.54 294.263 222.186 293.38 221.479 291.967Z" fill="#7C3C53"/>
<path d="M116.949 294.263H174.485C175.957 294.263 177.312 293.38 178.018 291.967L196.215 256.346H135.558C133.556 256.346 131.73 257.524 130.729 259.466L115.005 290.495C114.122 292.202 115.241 294.263 116.949 294.263Z" fill="#7F304D"/>
<path d="M121.543 290.495L137.326 259.466C138.327 257.524 140.152 256.346 142.155 256.346H135.618C133.615 256.346 131.79 257.524 130.789 259.466L115.006 290.495C114.123 292.202 115.242 294.322 117.008 294.322H123.545C121.778 294.263 120.66 292.202 121.543 290.495Z" fill="#6B2642"/>
<path d="M240.325 294.263H229.606V364.681H240.325V294.263Z" fill="#C1A36F"/>
<path d="M168.007 294.263H157.289V364.681H168.007V294.263Z" fill="#A38858"/>
<path fill-rule="evenodd" clip-rule="evenodd" d="M64.065 327.352L45.5733 356.261L64.065 384.64L99.6937 390.822L148.337 399.242C153.225 400.36 161.764 401.126 171.364 398.241L259.876 371.805C275.364 367.212 270.83 345.074 253.28 349.431L244.152 351.551L196.922 362.62C193.919 363.326 191.092 363.444 188.383 363.326C184.437 363.15 180.55 362.443 176.134 362.09L144.509 356.791C132.849 354.024 133.674 338.657 142.389 336.949C145.216 336.36 147.984 335.772 150.752 334.889L159.35 332.18C183.142 325.586 174.544 305.744 158.643 308.747H145.569C140.858 308.747 136.677 308.865 132.378 309.218C122.897 310.042 113.18 312.103 97.9859 316.813L76.4909 323.466L64.065 327.352Z" fill="#FFE6C7"/>
<path fill-rule="evenodd" clip-rule="evenodd" d="M-5.98894 320H39V392H-5.98894C-13.1359 392 -19 388.285 -19 383.627V328.314C-19 323.715 -13.2275 320 -5.98894 320Z" fill="#6D1F37"/>
<path fill-rule="evenodd" clip-rule="evenodd" d="M64.0653 365.799V384.699L99.694 390.881L148.338 399.301C153.226 400.419 161.765 401.185 171.364 398.3L259.876 371.864C269.829 368.92 271.478 358.734 266.767 352.964C265.235 354.907 262.939 356.438 259.876 357.262L244.153 361.619L193.389 377.928L168.243 384.876C158.585 387.525 152.107 384.581 147.219 383.345C119.246 377.81 92.156 371.275 64.0653 365.799Z" fill="#E5BE9C"/>
<path d="M23.1952 383.286C25.5695 383.286 27.4942 381.362 27.4942 378.988C27.4942 376.614 25.5695 374.69 23.1952 374.69C20.8209 374.69 18.8962 376.614 18.8962 378.988C18.8962 381.362 20.8209 383.286 23.1952 383.286Z" fill="white"/>
<path d="M208.818 321.17V318.167C209.289 319.168 210.29 319.875 211.409 319.816C213.058 319.698 213.647 318.167 215.591 318.167C216.768 318.226 217.887 318.874 218.476 319.934L217.711 322.642C217.298 321.7 216.415 321.111 215.355 321.111C213.824 321.17 213.117 322.642 211.35 322.642C210.29 322.642 209.348 322.112 208.818 321.17Z" fill="white"/>
<path d="M216.886 314.752H210.879V316.578H208.818V310.513H210.879V312.338H216.886V314.752Z" fill="white"/>
<path d="M212.881 341.365C215.237 341.365 217.121 339.422 217.063 337.126C217.063 336.007 216.591 334.947 215.826 334.182L214.177 335.831C214.884 336.596 214.884 337.774 214.177 338.539C213.47 339.304 212.234 339.245 211.468 338.539C210.761 337.774 210.761 336.596 211.468 335.889L209.819 334.241C208.17 335.889 208.17 338.598 209.878 340.246C210.702 340.953 211.762 341.365 212.881 341.365Z" fill="white"/>
<path d="M217.062 328.765C217.062 329.884 216.65 330.944 215.826 331.768C214.177 333.417 211.527 333.417 209.878 331.768C208.229 330.119 208.229 327.47 209.878 325.763C211.527 324.114 214.177 324.114 215.826 325.763C216.65 326.587 217.062 327.647 217.062 328.765ZM210.938 328.824C210.938 329.884 211.821 330.708 212.822 330.708C213.882 330.708 214.707 329.825 214.707 328.824C214.707 327.764 213.823 326.94 212.822 326.94C211.821 326.94 210.938 327.764 210.938 328.824Z" fill="white"/>
<path d="M216.885 307.157V309.63L208.817 307.039V304.096L216.885 301.505V304.037L215.472 304.39V306.863L216.885 307.157ZM210.643 305.685L213.705 306.451V304.861L210.643 305.626V305.685Z" fill="white"/>
<path fill-rule="evenodd" clip-rule="evenodd" d="M57.1748 392.235H38.8009V320.346H57.1748C60.9437 320.346 64.065 323.407 64.065 327.234V385.405C64.065 389.174 61.0026 392.235 57.1748 392.235Z" fill="#DDD7DA"/>
<path d="M176.991 188.504V188.478C176.991 187.871 176.839 187.399 176.536 187.061C176.232 186.714 175.816 186.441 175.288 186.242C175.452 186.155 175.604 186.051 175.743 185.93C175.89 185.809 176.016 185.67 176.12 185.514C176.232 185.349 176.319 185.167 176.38 184.968C176.449 184.769 176.484 184.539 176.484 184.279V184.253C176.484 183.534 176.215 182.962 175.678 182.537C175.149 182.112 174.417 181.9 173.481 181.9H169.256V191H173.585C174.096 191 174.56 190.948 174.976 190.844C175.4 190.74 175.76 190.584 176.055 190.376C176.358 190.168 176.588 189.908 176.744 189.596C176.908 189.284 176.991 188.92 176.991 188.504ZM174.495 184.617C174.495 184.955 174.365 185.202 174.105 185.358C173.845 185.505 173.494 185.579 173.052 185.579H171.206V183.655H173.182C173.606 183.655 173.931 183.737 174.157 183.902C174.382 184.058 174.495 184.288 174.495 184.591V184.617ZM175.002 188.257C175.002 188.595 174.876 188.846 174.625 189.011C174.373 189.167 174.027 189.245 173.585 189.245H171.206V187.243H173.52C174.04 187.243 174.417 187.334 174.651 187.516C174.885 187.689 175.002 187.928 175.002 188.231V188.257ZM184.929 187.711V187.685C184.929 187.191 184.86 186.719 184.721 186.268C184.591 185.809 184.383 185.406 184.097 185.059C183.82 184.704 183.469 184.422 183.044 184.214C182.62 184.006 182.117 183.902 181.536 183.902C181.025 183.902 180.557 183.997 180.132 184.188C179.716 184.379 179.357 184.639 179.053 184.968C178.75 185.297 178.512 185.683 178.338 186.125C178.174 186.567 178.091 187.035 178.091 187.529V187.555C178.091 188.092 178.182 188.582 178.364 189.024C178.546 189.457 178.798 189.834 179.118 190.155C179.448 190.476 179.833 190.723 180.275 190.896C180.726 191.069 181.211 191.156 181.731 191.156C182.364 191.156 182.914 191.043 183.382 190.818C183.85 190.584 184.249 190.263 184.578 189.856L183.447 188.855C183.17 189.106 182.901 189.288 182.641 189.401C182.381 189.514 182.087 189.57 181.757 189.57C181.315 189.57 180.943 189.457 180.639 189.232C180.345 188.998 180.15 188.656 180.054 188.205H184.903C184.912 188.11 184.916 188.027 184.916 187.958C184.925 187.889 184.929 187.806 184.929 187.711ZM183.005 186.97H180.028C180.106 186.519 180.271 186.16 180.522 185.891C180.782 185.622 181.12 185.488 181.536 185.488C181.952 185.488 182.286 185.627 182.537 185.904C182.789 186.173 182.945 186.528 183.005 186.97ZM192.395 191V186.957C192.395 186.012 192.148 185.276 191.654 184.747C191.16 184.218 190.371 183.954 189.288 183.954C188.699 183.954 188.196 184.006 187.78 184.11C187.364 184.214 186.965 184.348 186.584 184.513L187.078 186.021C187.399 185.9 187.702 185.809 187.988 185.748C188.283 185.679 188.621 185.644 189.002 185.644C189.496 185.644 189.869 185.752 190.12 185.969C190.371 186.186 190.497 186.502 190.497 186.918V187.035C190.246 186.948 189.986 186.879 189.717 186.827C189.457 186.775 189.149 186.749 188.794 186.749C188.378 186.749 187.997 186.797 187.65 186.892C187.312 186.979 187.017 187.113 186.766 187.295C186.523 187.477 186.333 187.707 186.194 187.984C186.055 188.261 185.986 188.591 185.986 188.972V188.998C185.986 189.345 186.047 189.652 186.168 189.921C186.298 190.181 186.471 190.402 186.688 190.584C186.905 190.766 187.156 190.905 187.442 191C187.737 191.087 188.049 191.13 188.378 191.13C188.863 191.13 189.275 191.052 189.613 190.896C189.951 190.731 190.241 190.515 190.484 190.246V191H192.395ZM190.523 188.543C190.523 188.907 190.38 189.202 190.094 189.427C189.817 189.652 189.444 189.765 188.976 189.765C188.655 189.765 188.395 189.691 188.196 189.544C187.997 189.397 187.897 189.189 187.897 188.92V188.894C187.897 188.582 188.018 188.344 188.261 188.179C188.504 188.014 188.837 187.932 189.262 187.932C189.505 187.932 189.73 187.958 189.938 188.01C190.155 188.053 190.35 188.114 190.523 188.192V188.543ZM200.478 191V186.489C200.478 185.683 200.27 185.05 199.854 184.591C199.447 184.132 198.866 183.902 198.112 183.902C197.861 183.902 197.636 183.932 197.436 183.993C197.237 184.054 197.055 184.136 196.89 184.24C196.726 184.344 196.574 184.465 196.435 184.604C196.305 184.734 196.184 184.873 196.071 185.02V184.032H194.095V191H196.071V187.113C196.071 186.645 196.18 186.294 196.396 186.06C196.622 185.817 196.925 185.696 197.306 185.696C197.688 185.696 197.982 185.817 198.19 186.06C198.398 186.294 198.502 186.645 198.502 187.113V191H200.478ZM207.304 188.881V188.855C207.304 188.534 207.239 188.261 207.109 188.036C206.979 187.811 206.814 187.62 206.615 187.464C206.416 187.308 206.19 187.178 205.939 187.074C205.688 186.961 205.441 186.866 205.198 186.788C205.007 186.727 204.825 186.667 204.652 186.606C204.487 186.545 204.34 186.485 204.21 186.424C204.08 186.355 203.976 186.285 203.898 186.216C203.82 186.138 203.781 186.051 203.781 185.956V185.93C203.781 185.791 203.842 185.679 203.963 185.592C204.084 185.497 204.266 185.449 204.509 185.449C204.76 185.449 205.051 185.51 205.38 185.631C205.709 185.744 206.047 185.9 206.394 186.099L207.148 184.734C206.767 184.483 206.346 184.288 205.887 184.149C205.436 184.002 204.99 183.928 204.548 183.928C204.193 183.928 203.859 183.976 203.547 184.071C203.244 184.166 202.975 184.309 202.741 184.5C202.516 184.691 202.334 184.925 202.195 185.202C202.065 185.471 202 185.783 202 186.138V186.164C202 186.502 202.061 186.788 202.182 187.022C202.312 187.256 202.477 187.455 202.676 187.62C202.875 187.776 203.096 187.906 203.339 188.01C203.59 188.105 203.837 188.188 204.08 188.257C204.271 188.318 204.453 188.374 204.626 188.426C204.799 188.478 204.951 188.534 205.081 188.595C205.22 188.647 205.328 188.712 205.406 188.79C205.484 188.868 205.523 188.959 205.523 189.063V189.089C205.523 189.245 205.454 189.371 205.315 189.466C205.185 189.561 204.977 189.609 204.691 189.609C204.362 189.609 204.006 189.54 203.625 189.401C203.252 189.262 202.875 189.054 202.494 188.777L201.649 190.077C202.117 190.441 202.607 190.71 203.118 190.883C203.638 191.048 204.145 191.13 204.639 191.13C205.012 191.13 205.358 191.087 205.679 191C206.008 190.905 206.294 190.766 206.537 190.584C206.78 190.402 206.966 190.172 207.096 189.895C207.235 189.609 207.304 189.271 207.304 188.881Z" fill="#C9B17B"/>
<defs>
<clipPath id="clip0">
<rect width="26.163" height="34.0119" fill="white" transform="translate(156 80.5763) rotate(-48.4386)"/>
</clipPath>
<clipPath id="clip1">
<rect width="26.163" height="34.0119" fill="white" transform="translate(198 213)"/>
</clipPath>
<clipPath id="clip2">
<rect width="26.163" height="34.0119" fill="white" transform="translate(139 221.658) rotate(-60)"/>
</clipPath>
<clipPath id="clip3">
<rect width="26.163" height="34.0119" fill="white" transform="translate(200 19)"/>
</clipPath>
<clipPath id="clip4">
<rect width="10.2772" height="16.0886" fill="white" transform="translate(275.209 215) rotate(44.1653)"/>
</clipPath>
<clipPath id="clip5">
<rect width="10.2772" height="16.0886" fill="white" transform="translate(234.024 75) rotate(18.1972)"/>
</clipPath>
<clipPath id="clip6">
<rect width="10.2772" height="16.0886" fill="white" transform="translate(233 11.1974) rotate(-6.69051)"/>
</clipPath>
<clipPath id="clip7">
<rect width="10.2772" height="16.0886" fill="white" transform="translate(74 69.6177) rotate(-69.362)"/>
</clipPath>
<clipPath id="clip8">
<rect width="10.2772" height="16.0886" fill="white" transform="translate(68.9376 215.059) rotate(-120.131)"/>
</clipPath>
<clipPath id="clip9">
<rect width="10.2772" height="16.0886" fill="white" transform="translate(138.514 6.67389) rotate(-38.4637)"/>
</clipPath>
<clipPath id="clip10">
<rect width="10.2772" height="16.0886" fill="white" transform="translate(77 174.265) rotate(-87.2125)"/>
</clipPath>
<clipPath id="clip11">
<rect width="10.2772" height="16.0886" fill="white" transform="translate(282.968 18.0164) rotate(17.5408)"/>
</clipPath>
<clipPath id="clip12">
<rect width="10.2772" height="16.0886" fill="white" transform="translate(285.82 158) rotate(21.2083)"/>
</clipPath>
<clipPath id="clip13">
<rect width="10.2772" height="16.0886" fill="white" transform="translate(282.676 81) rotate(16.897)"/>
</clipPath>
</defs>
</svg>
