<svg width="22" height="22" viewBox="0 0 21 22" fill="none" xmlns="http://www.w3.org/2000/svg">
    <path d="M20.1085 17.1479L20.108 17.147L18.4738 14.2828C17.7386 12.9914 17.351 11.5161 17.351 10.0079V7.49982C17.351 3.54095 14.2874 0.300641 10.5023 0.300641C6.71747 0.300641 3.64918 3.54077 3.64918 7.49982V10.0079C3.64918 11.5161 3.26161 12.9914 2.52643 14.2828L0.892573 17.1464C0.892533 17.1464 0.892493 17.1465 0.892453 17.1466C0.768037 17.3629 0.768617 17.6292 0.885977 17.8437L1.06145 17.7478L0.885978 17.8437C1.00355 18.0587 1.22896 18.2009 1.4756 18.2009H19.5246C19.7713 18.2009 19.9967 18.0587 20.1142 17.8437C20.2329 17.6268 20.2261 17.3564 20.1085 17.1479ZM17.3113 14.9965L17.3114 14.9967L18.3428 16.8024H2.65675L3.68449 14.9965C4.54356 13.4893 4.99772 11.7674 4.99772 10.0079V7.49982C4.99772 4.29074 7.4739 1.69918 10.4979 1.69918C13.5219 1.69918 15.998 4.29074 15.998 7.49982V10.0079C15.998 11.7627 16.4522 13.4892 17.3113 14.9965Z" fill="#000000" stroke="#000000" stroke-width="0.4"/>
    <path d="M12.7303 17.1496L12.7298 17.1486C12.5416 16.8118 12.1269 16.7021 11.8023 16.8964L11.8023 16.8964L11.7997 16.898C11.4783 17.097 11.3774 17.521 11.5612 17.85L11.5612 17.85L11.5617 17.851C11.6684 18.0394 11.7273 18.2724 11.7273 18.4978C11.7273 19.2223 11.166 19.798 10.5022 19.798C9.83848 19.798 9.2772 19.2223 9.2772 18.4978C9.2772 18.268 9.33595 18.0397 9.44275 17.851L9.44276 17.851L9.44329 17.85C9.62713 17.521 9.52615 17.097 9.20476 16.898L9.20478 16.898L9.20219 16.8964C8.87756 16.7021 8.4629 16.8118 8.2747 17.1486L8.2747 17.1486L8.27414 17.1496C8.04846 17.5591 7.92866 18.0236 7.92866 18.4978C7.92866 19.9768 9.07297 21.1965 10.5022 21.1965C11.9316 21.1965 13.0755 19.9768 13.0803 18.4985L13.0803 18.4958C13.0755 18.023 12.956 17.5591 12.7303 17.1496Z" fill="#000000" stroke="#000000" stroke-width="0.4"/>
</svg>
