<svg width="84" height="59" viewBox="0 0 84 59" fill="none" xmlns="http://www.w3.org/2000/svg">
<rect x="0.5" y="0.5" width="73" height="50" rx="3.5" fill="#6D1F37" stroke="#C9B17B"/>
<path d="M48.8281 14.5312H26.1719C24.4229 14.5312 23 15.9542 23 17.7031V31.2969C23 33.0458 24.4229 34.4688 26.1719 34.4688H48.8281C50.5771 34.4688 52 33.0458 52 31.2969V17.7031C52 15.9542 50.5771 14.5312 48.8281 14.5312ZM26.1719 16.3438H48.8281C49.5777 16.3438 50.1875 16.9536 50.1875 17.7031V19.5156H24.8125V17.7031C24.8125 16.9536 25.4223 16.3438 26.1719 16.3438ZM48.8281 32.6562H26.1719C25.4223 32.6562 24.8125 32.0464 24.8125 31.2969V21.3281H50.1875V31.2969C50.1875 32.0464 49.5777 32.6562 48.8281 32.6562Z" fill="#C9B17B"/>
<path d="M29.3438 29.9375H28.4375C27.937 29.9375 27.5312 29.5317 27.5312 29.0312V28.125C27.5312 27.6245 27.937 27.2188 28.4375 27.2188H29.3438C29.8442 27.2188 30.25 27.6245 30.25 28.125V29.0312C30.25 29.5317 29.8442 29.9375 29.3438 29.9375Z" fill="#C9B17B"/>
<ellipse cx="72.5" cy="47.0208" rx="11.5" ry="11.0208" fill="white"/>
<path d="M77.9887 43.0062L77.9887 43.0062L70.6808 50.3142L67.9806 47.614C67.9806 47.614 67.9806 47.614 67.9806 47.614C67.639 47.2723 67.0851 47.2724 66.7435 47.6139L66.7435 47.614C66.4019 47.9556 66.4019 48.5094 66.7435 48.851L66.7435 48.851L70.0622 52.1697C70.4038 52.5113 70.9579 52.511 71.2993 52.1697L79.2257 44.2433C79.2257 44.2433 79.2257 44.2433 79.2257 44.2433C79.5674 43.9017 79.5673 43.3478 79.2257 43.0062C78.8841 42.6646 78.3303 42.6646 77.9887 43.0062Z" fill="#C9B17B" stroke="#C9B17B" stroke-width="0.5"/>
</svg>
