<svg xmlns="http://www.w3.org/2000/svg" width="17.951" height="14.361" viewBox="0 0 17.951 14.361"><path fill="#000000" d="M8.975,11.219A4.024,4.024,0,0,1,4.967,7.486L2.025,5.212A9.348,9.348,0,0,0,1,6.771.907.907,0,0,0,1,7.59a9,9,0,0,0,7.98,4.976,8.712,8.712,0,0,0,2.185-.293L9.7,11.146a4.043,4.043,0,0,1-.729.073Zm8.8,1.63-3.1-2.4a9.291,9.291,0,0,0,2.279-2.863.907.907,0,0,0,0-.819,9,9,0,0,0-7.98-4.976A8.643,8.643,0,0,0,4.843,2.852L1.275.094a.449.449,0,0,0-.63.079L.095.882a.449.449,0,0,0,.079.63l16.5,12.754a.449.449,0,0,0,.63-.079l.551-.709a.449.449,0,0,0-.079-.63ZM12.624,8.866l-1.1-.852a2.658,2.658,0,0,0-3.257-3.42,1.336,1.336,0,0,1,.261.791,1.308,1.308,0,0,1-.043.28L6.419,4.07a3.991,3.991,0,0,1,2.557-.929A4.037,4.037,0,0,1,13.014,7.18a3.943,3.943,0,0,1-.39,1.686Z"/></svg>
