<svg width="29" height="29" viewBox="0 0 29 29" fill="none" xmlns="http://www.w3.org/2000/svg">
<path fill-rule="evenodd" clip-rule="evenodd" d="M3.27109 1.56224L1.56224 3.27109L6.47394 8.18278C6.01642 8.56196 5.56363 8.96917 5.11582 9.40222C4.11385 10.3712 3.20738 11.4056 2.4094 12.4405C1.92787 13.065 1.586 13.5563 1.39881 13.849L0.982422 14.5L1.39881 15.151C1.586 15.4437 1.92787 15.935 2.4094 16.5595C3.20738 17.5944 4.11385 18.6288 5.11582 19.5978C8.05281 22.438 11.2043 24.1667 14.5001 24.1667C16.5795 24.1667 18.6015 23.4785 20.5484 22.2572L25.7289 27.4377L27.4378 25.7289L3.27109 1.56224ZM18.7831 20.492L16.9554 18.6642C16.2358 19.0894 15.3965 19.3333 14.5002 19.3333C11.8308 19.3333 9.66685 17.1694 9.66685 14.5C9.66685 13.6037 9.91082 12.7644 10.336 12.0448L8.1922 9.90104C7.72411 10.2785 7.25826 10.6922 6.7958 11.1394C5.88448 12.0207 5.05381 12.9687 4.3232 13.9162C4.16541 14.1209 4.0196 14.3161 3.88629 14.5C4.0196 14.6839 4.16541 14.8791 4.3232 15.0838C5.05381 16.0313 5.88448 16.9793 6.7958 17.8606C9.32539 20.3068 11.9565 21.75 14.5001 21.75C15.9116 21.75 17.35 21.3056 18.7831 20.492ZM12.1653 13.8742C12.112 14.0738 12.0835 14.2836 12.0835 14.5C12.0835 15.8347 13.1655 16.9167 14.5002 16.9167C14.7166 16.9167 14.9264 16.8882 15.126 16.8348L12.1653 13.8742ZM24.2853 19.2016L22.5764 17.4927C23.3427 16.7181 24.0471 15.9008 24.677 15.0838C24.8348 14.8791 24.9806 14.6839 25.1139 14.5C24.9806 14.3161 24.8348 14.1209 24.677 13.9162C23.9464 12.9687 23.1157 12.0207 22.2044 11.1394C19.6748 8.6932 17.0438 7.25 14.5001 7.25C13.869 7.25 13.2325 7.33884 12.5935 7.50981L10.682 5.59826C11.9295 5.10083 13.2037 4.83333 14.5001 4.83333C17.7959 4.83333 20.9474 6.562 23.8844 9.40222C24.8864 10.3712 25.7928 11.4056 26.5908 12.4405C27.0723 13.065 27.4142 13.5563 27.6014 13.849L28.0178 14.5L27.6014 15.151C27.4142 15.4437 27.0723 15.935 26.5908 16.5595C25.9007 17.4545 25.1293 18.3493 24.2853 19.2016Z" fill="#E1D2D7"/>
</svg>


