<svg width="24" height="18" viewBox="0 0 24 18" fill="none" xmlns="http://www.w3.org/2000/svg">
<path d="M12.0006 0C17.3644 0 22.1749 3.4777 23.9613 8.65026C24.0129 8.80771 24.0129 8.97441 23.9613 9.12723C22.1749 14.3044 17.3644 17.7821 12.0006 17.7821C6.63678 17.7821 1.82623 14.3044 0.039854 9.13186C-0.0117226 8.97441 -0.0117226 8.80771 0.039854 8.65489C1.82623 3.4777 6.63678 0 12.0006 0ZM12.0006 16.3003C16.6423 16.3003 20.8105 13.332 22.4563 8.89106C20.8105 4.45016 16.6423 1.48184 12.0006 1.48184C7.35883 1.48184 3.19062 4.45016 1.54491 8.89106C3.19062 13.332 7.35883 16.3003 12.0006 16.3003Z" fill="#E1D2D7"/>
<path d="M12.0004 4.44553C14.4807 4.44553 16.5015 6.44138 16.5015 8.89106C16.5015 11.3407 14.4807 13.3366 12.0004 13.3366C9.52007 13.3366 7.49927 11.3407 7.49927 8.89106C7.49927 6.44138 9.52007 4.44553 12.0004 4.44553ZM12.0004 11.8547C13.6555 11.8547 15.0011 10.5257 15.0011 8.89106C15.0011 7.2564 13.6555 5.92737 12.0004 5.92737C10.3453 5.92737 8.99963 7.2564 8.99963 8.89106C8.99963 10.5257 10.3453 11.8547 12.0004 11.8547Z" fill="#E1D2D7"/>
</svg>
