<svg width="19" height="24" viewBox="0 0 19 24" fill="none" xmlns="http://www.w3.org/2000/svg">
<path d="M14.309 23.95H4.191C3.77171 23.9575 3.3665 23.7987 3.06404 23.5082C2.76157 23.2177 2.58645 22.8193 2.577 22.4L1.677 8.664C1.20597 8.57684 0.780335 8.32748 0.473994 7.95921C0.167652 7.59095 -5.128e-05 7.12703 1.17621e-08 6.648V5.248C0.00355677 4.80245 0.151756 4.37012 0.422286 4.01608C0.692816 3.66205 1.07103 3.40548 1.5 3.285V1.529C1.50053 1.12365 1.66179 0.735047 1.94842 0.448418C2.23505 0.16179 2.62365 0.000529183 3.029 0L15.529 1C15.9252 1.01252 16.3009 1.17943 16.5757 1.46511C16.8505 1.75079 17.0028 2.13259 17 2.529V3.285C17.4295 3.40562 17.808 3.66264 18.0786 4.01728C18.3492 4.37192 18.4971 4.80494 18.5 5.251V6.651C18.4995 7.12908 18.3319 7.59195 18.0262 7.95954C17.7205 8.32712 17.296 8.57631 16.826 8.664L15.921 22.448C15.9194 22.6384 15.8801 22.8266 15.8052 23.0017C15.7304 23.1768 15.6215 23.3353 15.485 23.468C15.1718 23.7773 14.7492 23.9505 14.309 23.95ZM12.516 8.669C12.2576 9.67061 12.1206 10.6997 12.108 11.734C12.1493 13.214 12.4774 14.6719 13.074 16.027C13.5178 16.9206 13.8027 17.8847 13.916 18.876C13.8653 20.099 13.5819 21.3011 13.081 22.418H13.881C14.3659 21.2897 14.6323 20.0796 14.666 18.852C14.5508 17.7515 14.2392 16.6805 13.746 15.69C13.2033 14.4378 12.903 13.0941 12.861 11.73C12.8779 10.6953 13.0233 9.66677 13.294 8.668L12.516 8.669ZM9.747 8.669C9.48999 9.67083 9.35369 10.6998 9.341 11.734C9.37973 13.2142 9.70755 14.6726 10.306 16.027V16.037C10.7497 16.927 11.0324 17.8885 11.141 18.877C11.0906 20.0998 10.8079 21.3019 10.308 22.419H11.108C11.5926 21.2906 11.859 20.0806 11.893 18.853C11.7815 17.7549 11.4715 16.6862 10.978 15.699V15.691C10.4378 14.4365 10.1369 13.0921 10.091 11.727C10.1064 10.694 10.2512 9.66699 10.522 8.67L9.747 8.669ZM6.977 8.669C6.71999 9.67083 6.58369 10.6998 6.571 11.734C6.60991 13.2142 6.93772 14.6725 7.536 16.027C7.98194 16.9197 8.26664 17.8842 8.377 18.876C8.32577 20.0989 8.0424 21.301 7.542 22.418H8.342C8.82844 21.2902 9.09456 20.0798 9.126 18.852C9.01502 17.7545 8.70496 16.6864 8.211 15.7V15.691C7.67129 14.4364 7.37079 13.092 7.325 11.727C7.34078 10.694 7.48591 9.66696 7.757 8.67L6.977 8.669ZM4.209 8.669C3.95105 9.67072 3.81375 10.6997 3.8 11.734C3.84108 13.214 4.16915 14.672 4.766 16.027C5.21186 16.9197 5.49625 17.8842 5.606 18.876C5.55853 20.0993 5.27535 21.302 4.772 22.418H5.572C6.0611 21.2911 6.32701 20.0801 6.355 18.852C6.2402 17.7515 5.92894 16.6806 5.436 15.69C4.89308 14.4379 4.59277 13.0941 4.551 11.73C4.56643 10.6953 4.71156 9.66659 4.983 8.668L4.209 8.669ZM2.051 4.7C1.90487 4.7 1.76472 4.75805 1.66138 4.86138C1.55805 4.96472 1.5 5.10487 1.5 5.251V6.651C1.5 6.79723 1.55802 6.93748 1.66132 7.04097C1.76463 7.14446 1.90477 7.20273 2.051 7.203H16.451C16.5235 7.20261 16.5952 7.18794 16.662 7.15984C16.7288 7.13173 16.7895 7.09074 16.8404 7.0392C16.8914 6.98767 16.9318 6.92659 16.9591 6.85947C16.9865 6.79235 17.0004 6.72049 17 6.648V5.248C17 5.10187 16.9419 4.96172 16.8386 4.85838C16.7353 4.75505 16.5951 4.697 16.449 4.697L2.051 4.7ZM2.969 1.5L2.993 3.2H15.5V2.529L2.969 1.5Z" fill="#6E1F37"/>
</svg>
