<svg width="33" height="33" viewBox="0 0 33 33" fill="none" xmlns="http://www.w3.org/2000/svg">
<path d="M22.309 23.95H12.191C11.7717 23.9575 11.3665 23.7987 11.064 23.5082C10.7616 23.2177 10.5864 22.8193 10.577 22.4L9.677 8.664C9.20606 8.57666 8.78053 8.32725 8.47423 7.95902C8.16792 7.59079 8.00014 7.12697 8 6.648V5.248C8.00339 4.80241 8.15153 4.37 8.42209 4.01593C8.69264 3.66186 9.07095 3.40533 9.5 3.285V1.529C9.50053 1.12365 9.66179 0.735047 9.94842 0.448418C10.2351 0.16179 10.6237 0.000529183 11.029 0L23.529 1C23.9252 1.01252 24.3009 1.17943 24.5757 1.46511C24.8505 1.75079 25.0028 2.13259 25 2.529V3.285C25.4296 3.40567 25.8083 3.66284 26.0789 4.01768C26.3495 4.37252 26.4973 4.80576 26.5 5.252V6.652C26.4995 7.13008 26.3319 7.59295 26.0262 7.96054C25.7205 8.32812 25.296 8.57731 24.826 8.665L23.921 22.449C23.9194 22.6394 23.8801 22.8276 23.8052 23.0027C23.7304 23.1778 23.6215 23.3363 23.485 23.469C23.1716 23.7779 22.749 23.9508 22.309 23.95ZM11.177 8.7L12.077 22.348C12.0768 22.3625 12.0798 22.3769 12.0858 22.3901C12.0917 22.4033 12.1004 22.4151 12.1114 22.4246C12.1223 22.4341 12.1352 22.4411 12.1491 22.4452C12.163 22.4492 12.1777 22.4502 12.192 22.448H22.309C22.331 22.4496 22.3531 22.4455 22.3731 22.436C22.3931 22.4266 22.4103 22.4121 22.423 22.394L23.323 8.694L11.177 8.7ZM10.051 4.7C9.97851 4.70013 9.90676 4.71454 9.83983 4.7424C9.77291 4.77026 9.71213 4.81103 9.66097 4.86238C9.6098 4.91373 9.56925 4.97466 9.54164 5.04168C9.51402 5.1087 9.49987 5.18051 9.5 5.253V6.653C9.5 6.79923 9.55802 6.93948 9.66132 7.04297C9.76463 7.14646 9.90477 7.20473 10.051 7.205H24.451C24.5237 7.20461 24.5955 7.18988 24.6625 7.16165C24.7294 7.13342 24.7902 7.09225 24.8412 7.0405C24.8922 6.98875 24.9325 6.92744 24.9597 6.86008C24.987 6.79273 25.0007 6.72066 25 6.648V5.248C25.0001 5.17551 24.986 5.1037 24.9584 5.03668C24.9307 4.96966 24.8902 4.90873 24.839 4.85738C24.7879 4.80603 24.7271 4.76526 24.6602 4.7374C24.5932 4.70954 24.5215 4.69513 24.449 4.695L10.051 4.7ZM10.969 1.5L10.993 3.2H23.5V2.529L10.969 1.5Z" fill="#767676"/>
</svg>
