<svg width="36" height="44" viewBox="0 0 36 44" fill="none" xmlns="http://www.w3.org/2000/svg">
<path d="M5.82001 38.85V42H6.61001V35H5.82001V38.11H1.78001V35H0.990005V42H1.78001V38.85H5.82001ZM9.35767 35.7V34.85H8.47767V35.7H9.35767ZM9.29767 42V36.83H8.52767V42H9.29767ZM14.6346 40.55V40.53C14.6346 40.2967 14.5846 40.1 14.4846 39.94C14.3913 39.78 14.2646 39.6433 14.1046 39.53C13.9446 39.4167 13.7646 39.3233 13.5646 39.25C13.3713 39.1767 13.1746 39.11 12.9746 39.05C12.8013 38.9967 12.6346 38.9433 12.4746 38.89C12.3146 38.8367 12.1713 38.7767 12.0446 38.71C11.9246 38.6433 11.8279 38.5667 11.7546 38.48C11.6813 38.3867 11.6446 38.28 11.6446 38.16V38.14C11.6446 37.9267 11.7346 37.75 11.9146 37.61C12.0946 37.4633 12.3379 37.39 12.6446 37.39C12.8979 37.39 13.1546 37.4367 13.4146 37.53C13.6813 37.6167 13.9346 37.7367 14.1746 37.89L14.5246 37.31C14.2579 37.1367 13.9613 37 13.6346 36.9C13.3079 36.7933 12.9846 36.74 12.6646 36.74C12.4113 36.74 12.1746 36.7767 11.9546 36.85C11.7413 36.9167 11.5546 37.0167 11.3946 37.15C11.2413 37.2767 11.1213 37.4333 11.0346 37.62C10.9479 37.8 10.9046 38 10.9046 38.22V38.24C10.9046 38.48 10.9546 38.68 11.0546 38.84C11.1613 39 11.2946 39.1333 11.4546 39.24C11.6213 39.3467 11.8046 39.4367 12.0046 39.51C12.2113 39.5767 12.4146 39.64 12.6146 39.7C12.7813 39.7467 12.9413 39.7967 13.0946 39.85C13.2546 39.9033 13.3946 39.9667 13.5146 40.04C13.6346 40.1067 13.7279 40.1867 13.7946 40.28C13.8679 40.3733 13.9046 40.4833 13.9046 40.61V40.63C13.9046 40.8833 13.8046 41.0833 13.6046 41.23C13.4046 41.3767 13.1479 41.45 12.8346 41.45C12.5279 41.45 12.2213 41.3933 11.9146 41.28C11.6146 41.1667 11.3246 41.0033 11.0446 40.79L10.6546 41.34C10.9479 41.5733 11.2846 41.76 11.6646 41.9C12.0446 42.0333 12.4213 42.1 12.7946 42.1C13.0546 42.1 13.2946 42.0667 13.5146 42C13.7413 41.9267 13.9346 41.8233 14.0946 41.69C14.2613 41.5567 14.3913 41.3967 14.4846 41.21C14.5846 41.0167 14.6346 40.7967 14.6346 40.55ZM17.0074 37.51H18.6474V36.83H17.0074V35.27H16.2374V36.83H15.5174V37.51H16.2374V40.63C16.2374 40.89 16.2741 41.1133 16.3474 41.3C16.4208 41.4867 16.5208 41.64 16.6474 41.76C16.7808 41.8733 16.9374 41.9567 17.1174 42.01C17.2974 42.0633 17.4908 42.09 17.6974 42.09C17.8841 42.09 18.0508 42.07 18.1974 42.03C18.3508 41.9967 18.4941 41.9433 18.6274 41.87V41.21C18.4941 41.2767 18.3674 41.3233 18.2474 41.35C18.1341 41.3767 18.0108 41.39 17.8774 41.39C17.6174 41.39 17.4074 41.3267 17.2474 41.2C17.0874 41.0733 17.0074 40.85 17.0074 40.53V37.51ZM24.9339 39.41C24.9339 39.0433 24.8672 38.6967 24.7339 38.37C24.6006 38.0433 24.4139 37.76 24.1739 37.52C23.9339 37.2733 23.6472 37.08 23.3139 36.94C22.9872 36.7933 22.6306 36.72 22.2439 36.72C21.8506 36.72 21.4872 36.7933 21.1539 36.94C20.8272 37.08 20.5439 37.2733 20.3039 37.52C20.0639 37.7667 19.8772 38.0567 19.7439 38.39C19.6106 38.7167 19.5439 39.0633 19.5439 39.43C19.5439 39.7967 19.6106 40.1433 19.7439 40.47C19.8772 40.7967 20.0639 41.0833 20.3039 41.33C20.5439 41.57 20.8272 41.7633 21.1539 41.91C21.4806 42.05 21.8372 42.12 22.2239 42.12C22.6106 42.12 22.9706 42.05 23.3039 41.91C23.6372 41.7633 23.9239 41.5667 24.1639 41.32C24.4039 41.0733 24.5906 40.7867 24.7239 40.46C24.8639 40.1267 24.9339 39.7767 24.9339 39.41ZM24.1439 39.43C24.1439 39.71 24.0972 39.9733 24.0039 40.22C23.9106 40.46 23.7806 40.67 23.6139 40.85C23.4472 41.03 23.2472 41.1733 23.0139 41.28C22.7806 41.38 22.5239 41.43 22.2439 41.43C21.9706 41.43 21.7172 41.3767 21.4839 41.27C21.2506 41.1633 21.0472 41.02 20.8739 40.84C20.7072 40.66 20.5739 40.4467 20.4739 40.2C20.3806 39.9533 20.3339 39.69 20.3339 39.41C20.3339 39.13 20.3806 38.87 20.4739 38.63C20.5672 38.3833 20.6939 38.17 20.8539 37.99C21.0206 37.8033 21.2206 37.66 21.4539 37.56C21.6872 37.4533 21.9439 37.4 22.2239 37.4C22.4972 37.4 22.7506 37.4533 22.9839 37.56C23.2172 37.6667 23.4206 37.8133 23.5939 38C23.7672 38.18 23.9006 38.3933 23.9939 38.64C24.0939 38.8867 24.1439 39.15 24.1439 39.43ZM27.0988 39.94C27.0988 39.5533 27.1521 39.2133 27.2588 38.92C27.3654 38.62 27.5121 38.37 27.6988 38.17C27.8854 37.97 28.1021 37.82 28.3488 37.72C28.6021 37.62 28.8688 37.57 29.1488 37.57H29.2088V36.74C28.9621 36.7333 28.7321 36.7633 28.5188 36.83C28.3054 36.8967 28.1088 36.9967 27.9288 37.13C27.7488 37.2567 27.5888 37.41 27.4488 37.59C27.3088 37.77 27.1921 37.9667 27.0988 38.18V36.83H26.3288V42H27.0988V39.94ZM35.0715 36.83H34.2515L32.5915 41.14L30.7115 36.83H29.8615L32.2115 41.98C32.0582 42.3467 31.9015 42.6 31.7415 42.74C31.5815 42.88 31.3848 42.95 31.1515 42.95C30.9848 42.95 30.8382 42.9333 30.7115 42.9C30.5915 42.8733 30.4682 42.8267 30.3415 42.76L30.0815 43.37C30.2548 43.4567 30.4282 43.52 30.6015 43.56C30.7748 43.6067 30.9682 43.63 31.1815 43.63C31.5682 43.63 31.8948 43.52 32.1615 43.3C32.4348 43.08 32.6815 42.7033 32.9015 42.17L35.0715 36.83Z" fill="#222322"/>
<path d="M22.309 23.95H12.191C11.7717 23.9575 11.3665 23.7987 11.064 23.5082C10.7616 23.2177 10.5864 22.8193 10.577 22.4L9.677 8.664C9.20606 8.57666 8.78053 8.32725 8.47423 7.95902C8.16792 7.59079 8.00014 7.12697 8 6.648V5.248C8.00339 4.80241 8.15153 4.37 8.42209 4.01593C8.69264 3.66186 9.07095 3.40533 9.5 3.285V1.529C9.50053 1.12365 9.66179 0.735047 9.94842 0.448418C10.2351 0.16179 10.6237 0.000529183 11.029 0L23.529 1C23.9252 1.01252 24.3009 1.17943 24.5757 1.46511C24.8505 1.75079 25.0028 2.13259 25 2.529V3.285C25.4296 3.40567 25.8083 3.66284 26.0789 4.01768C26.3495 4.37252 26.4973 4.80576 26.5 5.252V6.652C26.4995 7.13008 26.3319 7.59295 26.0262 7.96054C25.7205 8.32812 25.296 8.57731 24.826 8.665L23.921 22.449C23.9194 22.6394 23.8801 22.8276 23.8052 23.0027C23.7304 23.1778 23.6215 23.3363 23.485 23.469C23.1716 23.7779 22.749 23.9508 22.309 23.95ZM11.177 8.7L12.077 22.348C12.0768 22.3625 12.0798 22.3769 12.0858 22.3901C12.0917 22.4033 12.1004 22.4151 12.1114 22.4246C12.1223 22.4341 12.1352 22.4411 12.1491 22.4452C12.163 22.4492 12.1777 22.4502 12.192 22.448H22.309C22.331 22.4496 22.3531 22.4455 22.3731 22.436C22.3931 22.4266 22.4103 22.4121 22.423 22.394L23.323 8.694L11.177 8.7ZM10.051 4.7C9.97851 4.70013 9.90676 4.71454 9.83983 4.7424C9.77291 4.77026 9.71213 4.81103 9.66097 4.86238C9.6098 4.91373 9.56925 4.97466 9.54164 5.04168C9.51402 5.1087 9.49987 5.18051 9.5 5.253V6.653C9.5 6.79923 9.55802 6.93948 9.66132 7.04297C9.76463 7.14646 9.90477 7.20473 10.051 7.205H24.451C24.5237 7.20461 24.5955 7.18988 24.6625 7.16165C24.7294 7.13342 24.7902 7.09225 24.8412 7.0405C24.8922 6.98875 24.9325 6.92744 24.9597 6.86008C24.987 6.79273 25.0007 6.72066 25 6.648V5.248C25.0001 5.17551 24.986 5.1037 24.9584 5.03668C24.9307 4.96966 24.8902 4.90873 24.839 4.85738C24.7879 4.80603 24.7271 4.76526 24.6602 4.7374C24.5932 4.70954 24.5215 4.69513 24.449 4.695L10.051 4.7ZM10.969 1.5L10.993 3.2H23.5V2.529L10.969 1.5Z" fill="#767676"/>
</svg>
