<svg width="24" height="23" viewBox="0 0 24 23" fill="none" xmlns="http://www.w3.org/2000/svg">
<path d="M23.7908 11.971L21.5908 9.67099V4.92199C21.5908 4.72308 21.5118 4.53232 21.3711 4.39166C21.2305 4.25101 21.0397 4.17199 20.8408 4.17199C20.6419 4.17199 20.4511 4.25101 20.3105 4.39166C20.1698 4.53232 20.0908 4.72308 20.0908 4.92199V8.09999L12.5408 0.220994C12.3963 0.0791187 12.2018 -0.000366211 11.9993 -0.000366211C11.7968 -0.000366211 11.6023 0.0791187 11.4578 0.220994L0.207796 11.971C0.136477 12.0414 0.0800045 12.1255 0.0417175 12.2181C0.00343063 12.3108 -0.015894 12.4102 -0.015114 12.5104C-0.014334 12.6106 0.00653467 12.7097 0.0462586 12.8018C0.0859825 12.8938 0.143755 12.9769 0.216162 13.0463C0.288569 13.1156 0.374141 13.1697 0.467819 13.2054C0.561497 13.2411 0.66138 13.2577 0.761564 13.2541C0.861749 13.2505 0.960201 13.2269 1.0511 13.1846C1.142 13.1424 1.22351 13.0823 1.2908 13.008L2.9128 11.315V19.3C2.91385 20.1348 3.24596 20.9352 3.83629 21.5255C4.42661 22.1158 5.22695 22.4479 6.0618 22.449H18.4368C19.2716 22.4479 20.072 22.1158 20.6623 21.5255C21.2526 20.9352 21.5847 20.1348 21.5858 19.3V11.836L22.7078 13.008C22.7751 13.0823 22.8566 13.1424 22.9475 13.1846C23.0384 13.2269 23.1368 13.2505 23.237 13.2541C23.3372 13.2577 23.4371 13.2411 23.5308 13.2054C23.6245 13.1697 23.71 13.1156 23.7824 13.0463C23.8548 12.9769 23.9126 12.8938 23.9523 12.8018C23.9921 12.7097 24.0129 12.6106 24.0137 12.5104C24.0145 12.4102 23.9952 12.3108 23.9569 12.2181C23.9186 12.1255 23.8621 12.0414 23.7908 11.971Z" fill="#6E1F37"/>
</svg>
