<svg width="24" height="23" viewBox="0 0 24 23" fill="none" xmlns="http://www.w3.org/2000/svg">
<path d="M18.4363 22.4464H6.06027C5.22586 22.4456 4.42582 22.114 3.83552 21.5242C3.24523 20.9345 2.91285 20.1348 2.91127 19.3004V11.3164L1.29027 13.0094C1.15271 13.1529 0.963793 13.236 0.765028 13.2403C0.566263 13.2446 0.373918 13.1698 0.230267 13.0324C0.0872041 12.8945 0.0044865 12.7057 0.000177175 12.5071C-0.00413215 12.3085 0.0703169 12.1163 0.207267 11.9724L11.4573 0.22136C11.6018 0.079485 11.7962 0 11.9988 0C12.2013 0 12.3957 0.079485 12.5403 0.22136L20.0843 8.10036V4.92236C20.0843 4.72345 20.1633 4.53268 20.3039 4.39203C20.4446 4.25138 20.6354 4.17236 20.8343 4.17236C21.0332 4.17236 21.2239 4.25138 21.3646 4.39203C21.5052 4.53268 21.5843 4.72345 21.5843 4.92236V9.66836L23.7843 11.9684C23.9215 12.1121 23.9961 12.3044 23.9918 12.5031C23.9875 12.7018 23.9046 12.8907 23.7613 13.0284C23.6177 13.1655 23.4255 13.2401 23.227 13.2358C23.0285 13.2315 22.8398 13.1486 22.7023 13.0054L21.5803 11.8324V19.3004C21.5787 20.1339 21.247 20.9329 20.6578 21.5225C20.0686 22.1121 19.2698 22.4442 18.4363 22.4464ZM11.9983 1.82436L4.41227 9.74836V19.3004C4.4128 19.7375 4.5867 20.1567 4.89583 20.4658C5.20497 20.7749 5.62409 20.9488 6.06127 20.9494H18.4363C18.8734 20.9488 19.2924 20.7749 19.6013 20.4657C19.9103 20.1566 20.084 19.7374 20.0843 19.3004V10.2704L11.9983 1.82436Z" fill="#767676"/>
</svg>
