<svg width="30" height="45" viewBox="0 0 30 45" fill="none" xmlns="http://www.w3.org/2000/svg">
<path d="M6.76 40V33H5.22V35.77H2.38V33H0.84V40H2.38V37.19H5.22V40H6.76ZM13.8177 37.33V37.31C13.8177 36.9233 13.7443 36.5633 13.5977 36.23C13.451 35.89 13.2477 35.5967 12.9877 35.35C12.7343 35.0967 12.431 34.9 12.0777 34.76C11.7243 34.6133 11.341 34.54 10.9277 34.54C10.5077 34.54 10.121 34.6133 9.76766 34.76C9.41432 34.9067 9.10766 35.1067 8.84766 35.36C8.58766 35.6133 8.38432 35.91 8.23766 36.25C8.09099 36.5833 8.01766 36.9433 8.01766 37.33V37.35C8.01766 37.7367 8.09099 38.1 8.23766 38.44C8.38432 38.7733 8.58432 39.0667 8.83766 39.32C9.09766 39.5667 9.40432 39.7633 9.75766 39.91C10.111 40.05 10.4943 40.12 10.9077 40.12C11.3277 40.12 11.7143 40.0467 12.0677 39.9C12.421 39.7533 12.7277 39.5533 12.9877 39.3C13.2477 39.0467 13.451 38.7533 13.5977 38.42C13.7443 38.08 13.8177 37.7167 13.8177 37.33ZM12.3177 37.35C12.3177 37.55 12.2843 37.74 12.2177 37.92C12.1577 38.0933 12.0677 38.2467 11.9477 38.38C11.8277 38.5133 11.681 38.62 11.5077 38.7C11.341 38.7733 11.1477 38.81 10.9277 38.81C10.7143 38.81 10.521 38.77 10.3477 38.69C10.181 38.61 10.0343 38.5033 9.90766 38.37C9.78099 38.23 9.68432 38.0733 9.61766 37.9C9.55099 37.72 9.51766 37.53 9.51766 37.33V37.31C9.51766 37.11 9.54766 36.9233 9.60766 36.75C9.67432 36.57 9.76766 36.4133 9.88766 36.28C10.0077 36.1467 10.151 36.0433 10.3177 35.97C10.491 35.89 10.6877 35.85 10.9077 35.85C11.1143 35.85 11.3043 35.89 11.4777 35.97C11.651 36.05 11.801 36.16 11.9277 36.3C12.0543 36.4333 12.151 36.59 12.2177 36.77C12.2843 36.9433 12.3177 37.13 12.3177 37.33V37.35ZM23.0983 40V36.51C23.0983 35.8633 22.9383 35.3733 22.6183 35.04C22.2983 34.7067 21.8549 34.54 21.2883 34.54C20.9216 34.54 20.5949 34.6133 20.3083 34.76C20.0216 34.9 19.7616 35.11 19.5283 35.39C19.3883 35.1167 19.1883 34.9067 18.9283 34.76C18.6749 34.6133 18.3716 34.54 18.0183 34.54C17.8249 34.54 17.6483 34.5633 17.4883 34.61C17.3349 34.6567 17.1949 34.72 17.0683 34.8C16.9416 34.88 16.8249 34.9733 16.7183 35.08C16.6183 35.18 16.5249 35.2867 16.4383 35.4V34.64H14.9183V40H16.4383V37.01C16.4383 36.65 16.5183 36.38 16.6783 36.2C16.8449 36.0133 17.0716 35.92 17.3583 35.92C17.6449 35.92 17.8649 36.0133 18.0183 36.2C18.1716 36.38 18.2483 36.65 18.2483 37.01V40H19.7683V37.01C19.7683 36.65 19.8483 36.38 20.0083 36.2C20.1749 36.0133 20.4016 35.92 20.6883 35.92C20.9749 35.92 21.1949 36.0133 21.3483 36.2C21.5016 36.38 21.5783 36.65 21.5783 37.01V40H23.0983ZM29.4202 37.47V37.45C29.4202 37.07 29.3669 36.7067 29.2602 36.36C29.1602 36.0067 29.0002 35.6967 28.7802 35.43C28.5669 35.1567 28.2969 34.94 27.9702 34.78C27.6436 34.62 27.2569 34.54 26.8102 34.54C26.4169 34.54 26.0569 34.6133 25.7302 34.76C25.4102 34.9067 25.1336 35.1067 24.9002 35.36C24.6669 35.6133 24.4836 35.91 24.3502 36.25C24.2236 36.59 24.1602 36.95 24.1602 37.33V37.35C24.1602 37.7633 24.2302 38.14 24.3702 38.48C24.5102 38.8133 24.7036 39.1033 24.9502 39.35C25.2036 39.5967 25.5002 39.7867 25.8402 39.92C26.1869 40.0533 26.5602 40.12 26.9602 40.12C27.4469 40.12 27.8702 40.0333 28.2302 39.86C28.5902 39.68 28.8969 39.4333 29.1502 39.12L28.2802 38.35C28.0669 38.5433 27.8602 38.6833 27.6602 38.77C27.4602 38.8567 27.2336 38.9 26.9802 38.9C26.6402 38.9 26.3536 38.8133 26.1202 38.64C25.8936 38.46 25.7436 38.1967 25.6702 37.85H29.4002C29.4069 37.7767 29.4102 37.7133 29.4102 37.66C29.4169 37.6067 29.4202 37.5433 29.4202 37.47ZM27.9402 36.9H25.6502C25.7102 36.5533 25.8369 36.2767 26.0302 36.07C26.2302 35.8633 26.4902 35.76 26.8102 35.76C27.1302 35.76 27.3869 35.8667 27.5802 36.08C27.7736 36.2867 27.8936 36.56 27.9402 36.9Z" fill="#000000"/>
<!-- <g clip-path="url(#clip0)"> -->
<path d="M26.7908 11.971L24.5908 9.67099V4.92199C24.5908 4.72308 24.5118 4.53232 24.3711 4.39166C24.2305 4.25101 24.0397 4.17199 23.8408 4.17199C23.6419 4.17199 23.4511 4.25101 23.3105 4.39166C23.1698 4.53232 23.0908 4.72308 23.0908 4.92199V8.09999L15.5408 0.220994C15.3963 0.0791187 15.2018 -0.000366211 14.9993 -0.000366211C14.7968 -0.000366211 14.6023 0.0791187 14.4578 0.220994L3.2078 11.971C3.13648 12.0414 3.08 12.1255 3.04172 12.2181C3.00343 12.3108 2.98411 12.4102 2.98489 12.5104C2.98567 12.6106 3.00653 12.7097 3.04626 12.8018C3.08598 12.8938 3.14376 12.9769 3.21616 13.0463C3.28857 13.1156 3.37414 13.1697 3.46782 13.2054C3.5615 13.2411 3.66138 13.2577 3.76156 13.2541C3.86175 13.2505 3.9602 13.2269 4.0511 13.1846C4.142 13.1424 4.22351 13.0823 4.2908 13.008L5.9128 11.315V19.3C5.91385 20.1348 6.24596 20.9352 6.83629 21.5255C7.42661 22.1158 8.22695 22.4479 9.0618 22.449H21.4368C22.2716 22.4479 23.072 22.1158 23.6623 21.5255C24.2526 20.9352 24.5847 20.1348 24.5858 19.3V11.836L25.7078 13.008C25.7751 13.0823 25.8566 13.1424 25.9475 13.1846C26.0384 13.2269 26.1368 13.2505 26.237 13.2541C26.3372 13.2577 26.4371 13.2411 26.5308 13.2054C26.6245 13.1697 26.71 13.1156 26.7824 13.0463C26.8548 12.9769 26.9126 12.8938 26.9523 12.8018C26.9921 12.7097 27.0129 12.6106 27.0137 12.5104C27.0145 12.4102 26.9952 12.3108 26.9569 12.2181C26.9186 12.1255 26.8621 12.0414 26.7908 11.971Z" fill="#000000"/>
<!-- </g> -->
<!-- <defs>
<clipPath id="clip0">
<rect width="24" height="22.447" fill="white" transform="translate(3)"/>
</clipPath>
</defs> -->
</svg>


