<svg width="22" height="22" viewBox="0 0 22 22" fill="none" xmlns="http://www.w3.org/2000/svg">
    <path d="M11 1.71111C16.1333 1.71111 20.2889 5.86667 20.2889 11C20.2889 13.4444 19.36 15.7422 17.6489 17.4778C15.9622 19.2133 13.6889 20.1911 11.2689 20.2644H1.71111V10.9022C1.76 5.81778 5.91556 1.71111 11 1.71111ZM11 0C4.96222 0 0.0488889 4.86444 0 10.9022V22H11.2933C17.2333 21.8289 22 16.9644 22 11C22 4.91333 17.0867 0 11 0Z" fill="#000000"/>
    <path d="M12.1734 6.35555C12.1734 6.67333 12.0512 6.94222 11.8068 7.18667C11.5623 7.40667 11.2934 7.52889 10.9512 7.52889C10.7801 7.52889 10.6334 7.50444 10.4868 7.43111C10.3401 7.35778 10.2179 7.28444 10.0957 7.18667C9.97345 7.08889 9.90012 6.96667 9.82678 6.82C9.75345 6.67333 9.729 6.52667 9.729 6.38C9.729 6.23333 9.75345 6.11111 9.82678 5.96444C9.90012 5.81778 9.97345 5.72 10.0957 5.59778C10.2179 5.5 10.3401 5.40222 10.4868 5.35333C10.6334 5.28 10.7801 5.25555 10.9512 5.25555C11.1223 5.25555 11.269 5.28 11.4157 5.35333C11.5623 5.42667 11.6846 5.5 11.8068 5.59778C11.929 5.69555 12.0023 5.81778 12.0757 5.94C12.149 6.06222 12.1734 6.20889 12.1734 6.35555ZM12.0512 15.4244C12.0512 15.7667 11.9534 16.0356 11.7579 16.2311C11.5623 16.4267 11.2934 16.5489 10.9757 16.5489C10.6579 16.5489 10.389 16.4511 10.1934 16.2311C9.99789 16.0356 9.90012 15.7422 9.90012 15.4244V9.82667C9.90012 9.48444 9.99789 9.21555 10.1934 8.99555C10.389 8.8 10.6579 8.67778 10.9757 8.67778C11.2934 8.67778 11.5623 8.77555 11.7579 8.99555C11.9534 9.19111 12.0512 9.48444 12.0512 9.82667V15.4244Z" fill="#000000"/>
</svg>
