<svg width="52" height="20" viewBox="0 0 52 20" fill="none" xmlns="http://www.w3.org/2000/svg">
<path d="M26.4149 0.333862H30.336C28.9947 0.953972 28.075 2.23956 28.203 3.68613C28.391 5.80285 30.336 6.6221 30.336 9.11802C30.3169 9.8883 30.0955 10.6402 29.694 11.2987C29.2926 11.9573 28.7249 12.4997 28.0476 12.8718L24.4793 11.8963C25.0767 11.6413 25.585 11.216 25.9402 10.6739C26.2955 10.1318 26.4818 9.49708 26.4757 8.84974C26.3929 6.84033 24.4793 5.92025 24.4793 3.64687C24.4649 2.97075 24.638 2.30376 24.9795 1.71926C25.3209 1.13476 25.8176 0.655389 26.4149 0.333862" fill="#6D1F37"/>
<path d="M34.8014 10.8203V3.01021H32.4121V0.334229H40.3576V3.01021H37.9452V10.8203H34.8014Z" fill="#6D1F37"/>
<path d="M0 5.59443C0.00814177 6.67675 0.336282 7.7327 0.943425 8.63033C1.55057 9.52796 2.40979 10.2275 3.41375 10.6415C4.41771 11.0555 5.52189 11.1657 6.58834 10.9582C7.65478 10.7507 8.63621 10.2348 9.41001 9.47497L7.26872 7.35572C6.92053 7.69689 6.4789 7.92796 5.9993 8.01992C5.5197 8.11188 5.02351 8.06063 4.57306 7.8726C4.1226 7.68457 3.73797 7.36816 3.46746 6.96309C3.19695 6.55802 3.05264 6.08237 3.05264 5.59587C3.05264 5.10937 3.19695 4.63371 3.46746 4.22864C3.73797 3.82358 4.1226 3.50716 4.57306 3.31913C5.02351 3.13111 5.5197 3.07985 5.9993 3.17181C6.4789 3.26378 6.92053 3.49485 7.26872 3.83601L9.41001 1.71604C8.63628 0.956469 7.65506 0.440764 6.58887 0.233318C5.52268 0.0258728 4.41876 0.13588 3.41496 0.549603C2.41115 0.963327 1.55194 1.66243 0.944608 2.55963C0.337274 3.45683 0.00873074 4.51236 0 5.59443" fill="#6D1F37"/>
<path d="M16.4967 11.0691C15.7721 11.0717 15.054 10.9315 14.384 10.6566C13.7139 10.3817 13.105 9.97751 12.5923 9.46733C12.0803 8.96064 11.6739 8.35806 11.3966 7.6943C11.1193 7.03054 10.9766 6.3187 10.9766 5.59975C10.9766 4.88081 11.1193 4.16897 11.3966 3.50521C11.6739 2.84144 12.0803 2.23887 12.5923 1.73217C13.6313 0.707307 15.0345 0.132385 16.4967 0.132385C17.959 0.132385 19.3621 0.707307 20.4012 1.73217C20.9133 2.2388 21.3198 2.84135 21.5972 3.50512C21.8746 4.16889 22.0174 4.88077 22.0174 5.59975C22.0174 6.31874 21.8746 7.03062 21.5972 7.69439C21.3198 8.35816 20.9133 8.96071 20.4012 9.46733C19.8883 9.97728 19.2794 10.3813 18.6093 10.6562C17.9393 10.9311 17.2214 11.0714 16.4967 11.0691ZM16.4002 3.12832C15.9108 3.13152 15.4332 3.27902 15.0278 3.55223C14.6224 3.82543 14.3073 4.21209 14.1222 4.66346C13.9372 5.11482 13.8904 5.61066 13.9879 6.08845C14.0854 6.56624 14.3227 7.00458 14.67 7.34818C15.0172 7.69178 15.4589 7.92525 15.9392 8.01916C16.4195 8.11306 16.9169 8.06319 17.3688 7.87582C17.8207 7.68846 18.2068 7.37201 18.4783 6.96637C18.7499 6.56073 18.8948 6.08407 18.8947 5.59651C18.8917 4.93995 18.6274 4.31136 18.1598 3.84865C17.6922 3.38593 17.0594 3.12688 16.4002 3.12832Z" fill="#6D1F37"/>
<path d="M44.7059 10.8199H41.4746L44.8252 0.333862H48.6493L51.9999 10.8192H48.7621L48.3323 9.01251H45.1386L44.7048 10.8181L44.7059 10.8199ZM46.6505 2.69222L45.6888 6.71069H47.7792L46.8172 2.69222H46.6505Z" fill="#6D1F37"/>
<path d="M22.7988 15.474H26.0164V16.3116H23.7851V17.1398H25.6368V17.9767H23.7851V19.6628H22.7988V15.474Z" fill="#6D1F37"/>
<path d="M27.3652 15.474H30.5828V16.3116H28.3515V17.1398H30.2032V17.9767H28.3515V19.6628H27.3652V15.474Z" fill="#6D1F37"/>
<path d="M15.4309 18.2457C15.2887 18.4685 15.0795 18.6407 14.8332 18.7378C14.5868 18.8349 14.3159 18.8519 14.0593 18.7863C13.8027 18.7208 13.5734 18.576 13.4044 18.3728C13.2354 18.1696 13.1352 17.9183 13.1182 17.6549C13.1013 17.3916 13.1684 17.1296 13.31 16.9065C13.4516 16.6835 13.6604 16.5107 13.9065 16.4131C14.1526 16.3154 14.4235 16.2978 14.6803 16.3627C14.937 16.4277 15.1666 16.5719 15.3361 16.7747L15.9898 16.1283C15.7482 15.8573 15.4423 15.651 15.1001 15.528C14.7578 15.4051 14.3901 15.3696 14.0305 15.4246C13.6709 15.4797 13.3309 15.6236 13.0415 15.8432C12.7521 16.0629 12.5226 16.3512 12.3739 16.682C12.2251 17.0127 12.162 17.3753 12.1901 17.7366C12.2183 18.0979 12.3368 18.4464 12.535 18.7503C12.7332 19.0543 13.0046 19.3039 13.3246 19.4764C13.6445 19.649 14.0027 19.7389 14.3666 19.738C14.6983 19.7363 15.0253 19.6596 15.323 19.5137C15.6207 19.3679 15.8813 19.1567 16.0852 18.8961L15.4309 18.2457Z" fill="#6D1F37"/>
<path d="M32.9276 18.823V17.9771H34.7797V17.1391H32.9276V16.3109H35.1047V15.474H31.9414V19.6631H35.1911V18.823H32.9276Z" fill="#6D1F37"/>
<path d="M39.8274 16.3116V15.4736H36.6641V19.6631H39.9138V18.8226H37.6507V17.9771H39.502V17.1395H37.6507V16.3112L39.8274 16.3116Z" fill="#6D1F37"/>
<path d="M19.2471 19.7352C18.818 19.733 18.3991 19.6043 18.0434 19.3653C17.6876 19.1263 17.4109 18.7876 17.2482 18.3921C17.0854 17.9966 17.044 17.5619 17.129 17.143C17.214 16.724 17.4217 16.3395 17.7259 16.038C18.0301 15.7365 18.4172 15.5315 18.8382 15.4489C19.2592 15.3663 19.6954 15.4098 20.0916 15.5738C20.4879 15.7379 20.8265 16.0152 21.0647 16.3708C21.3028 16.7263 21.43 17.1442 21.43 17.5716C21.4279 18.1467 21.1969 18.6974 20.7876 19.103C20.3784 19.5086 19.8244 19.7359 19.2471 19.7352ZM19.2518 16.3217C19.0048 16.3229 18.7637 16.3969 18.5589 16.5345C18.3541 16.672 18.1948 16.8669 18.101 17.0945C18.0073 17.3221 17.9833 17.5723 18.0321 17.8135C18.081 18.0547 18.2004 18.2761 18.3754 18.4497C18.5504 18.6234 18.773 18.7415 19.0154 18.7892C19.2577 18.837 19.5087 18.8122 19.7369 18.7179C19.9651 18.6237 20.1601 18.4643 20.2974 18.2597C20.4347 18.0552 20.5082 17.8148 20.5084 17.5687C20.5076 17.2375 20.3748 16.9201 20.1392 16.6862C19.9035 16.4524 19.5844 16.3213 19.2518 16.3217Z" fill="#6D1F37"/>
</svg>
