<svg width="127" height="48" viewBox="0 0 127 48" fill="none" xmlns="http://www.w3.org/2000/svg">
<path d="M64.4897 0.494873H74.0628C70.7882 2.00884 68.5428 5.14755 68.8552 8.67926C69.3142 13.8471 74.0628 15.8473 74.0628 21.941C74.0161 23.8216 73.4758 25.6572 72.4956 27.2651C71.5153 28.873 70.1294 30.1971 68.4757 31.1057L59.7641 28.7239C61.2226 28.1014 62.4635 27.063 63.3308 25.7395C64.1981 24.416 64.6529 22.8664 64.638 21.286C64.4359 16.3801 59.7641 14.1338 59.7641 8.58343C59.7289 6.93271 60.1514 5.30429 60.9851 3.87726C61.8188 2.45023 63.0315 1.27986 64.4897 0.494873" fill="white"/>
<path d="M84.965 26.0969V7.02903H79.1317V0.495758H98.5302V7.02903H92.6404V26.0969H84.965Z" fill="white"/>
<path d="M0 13.3383C0.0198777 15.9807 0.821017 18.5588 2.30333 20.7503C3.78564 22.9418 5.88339 24.6497 8.33451 25.6605C10.7856 26.6713 13.4814 26.9402 16.0851 26.4337C18.6888 25.9272 21.0849 24.6676 22.9741 22.8125L17.7462 17.6384C16.8961 18.4713 15.8179 19.0355 14.647 19.26C13.4761 19.4845 12.2647 19.3594 11.1649 18.9003C10.0651 18.4413 9.12607 17.6688 8.46564 16.6798C7.80521 15.6909 7.45287 14.5296 7.45287 13.3418C7.45287 12.154 7.80521 10.9927 8.46564 10.0038C9.12607 9.01484 10.0651 8.24233 11.1649 7.78327C12.2647 7.32421 13.4761 7.19908 14.647 7.4236C15.8179 7.64812 16.8961 8.21227 17.7462 9.0452L22.9741 3.8694C21.0851 2.01494 18.6895 0.755871 16.0864 0.249403C13.4834 -0.257065 10.7882 0.011512 8.33745 1.0216C5.88671 2.03168 3.78899 3.73852 2.30621 5.92898C0.823439 8.11945 0.0213157 10.6965 0 13.3383" fill="white"/>
<path d="M40.2746 26.7045C38.5054 26.7107 36.7524 26.3684 35.1164 25.6973C33.4805 25.0261 31.9939 24.0394 30.7422 22.7938C29.4921 21.5567 28.5 20.0856 27.823 18.465C27.1459 16.8445 26.7974 15.1066 26.7974 13.3513C26.7974 11.596 27.1459 9.85812 27.823 8.23757C28.5 6.61702 29.4921 5.14587 30.7422 3.90879C33.2789 1.40663 36.7046 0.00299072 40.2746 0.00299072C43.8446 0.00299072 47.2704 1.40663 49.8071 3.90879C51.0575 5.14569 52.0499 6.61679 52.7271 8.23736C53.4043 9.85793 53.753 11.5959 53.753 13.3513C53.753 15.1067 53.4043 16.8447 52.7271 18.4653C52.0499 20.0858 51.0575 21.5569 49.8071 22.7938C48.555 24.0388 47.0683 25.0252 45.4325 25.6963C43.7966 26.3674 42.0438 26.71 40.2746 26.7045ZM40.039 7.31742C38.844 7.32523 37.6781 7.68535 36.6883 8.35236C35.6986 9.01937 34.9292 9.9634 34.4774 11.0654C34.0256 12.1674 33.9115 13.3779 34.1494 14.5444C34.3874 15.7109 34.9669 16.7811 35.8147 17.62C36.6625 18.4589 37.7408 19.0289 38.9134 19.2582C40.086 19.4874 41.3006 19.3657 42.4038 18.9082C43.507 18.4508 44.4496 17.6782 45.1126 16.6878C45.7756 15.6975 46.1293 14.5337 46.1292 13.3434C46.1219 11.7404 45.4767 10.2058 44.3349 9.07606C43.1932 7.94637 41.6482 7.31391 40.039 7.31742Z" fill="white"/>
<path d="M109.147 26.096H101.258L109.439 0.494873H118.775L126.955 26.0943H119.051L118.001 21.6834H110.204L109.145 26.0916L109.147 26.096ZM113.895 6.2527L111.547 16.0636H116.651L114.302 6.2527H113.895Z" fill="white"/>
<path d="M55.6642 37.4587H63.5196V39.5037H58.072V41.5258H62.5929V43.5691H58.072V47.6855H55.6642V37.4587Z" fill="white"/>
<path d="M66.8128 37.4587H74.6683V39.5037H69.2207V41.5258H73.7415V43.5691H69.2207V47.6855H66.8128V37.4587Z" fill="white"/>
<path d="M37.6725 44.2259C37.3255 44.7697 36.8148 45.1902 36.2133 45.4273C35.6118 45.6643 34.9505 45.7058 34.3239 45.5457C33.6973 45.3857 33.1377 45.0323 32.725 44.5361C32.3123 44.0399 32.0677 43.4265 32.0263 42.7835C31.9849 42.1405 32.1488 41.5009 32.4945 40.9563C32.8401 40.4117 33.3499 39.9899 33.9508 39.7515C34.5517 39.513 35.213 39.4699 35.8399 39.6285C36.4669 39.7871 37.0274 40.1392 37.4413 40.6344L39.0371 39.0562C38.4473 38.3947 37.7005 37.8908 36.8649 37.5907C36.0293 37.2906 35.1316 37.2038 34.2536 37.3382C33.3757 37.4727 32.5456 37.824 31.839 38.3603C31.1325 38.8965 30.5721 39.6005 30.209 40.408C29.8459 41.2154 29.6917 42.1007 29.7604 42.9828C29.8291 43.8649 30.1186 44.7158 30.6024 45.4578C31.0862 46.1998 31.749 46.8093 32.5301 47.2305C33.3112 47.6517 34.1858 47.8713 35.074 47.8692C35.884 47.8649 36.6823 47.6777 37.4091 47.3216C38.1359 46.9656 38.7722 46.45 39.2701 45.8137L37.6725 44.2259Z" fill="white"/>
<path d="M80.3921 45.6352V43.57H84.9138V41.5241H80.3921V39.502H85.7073V37.4587H77.9843V47.6863H85.9183V45.6352H80.3921Z" fill="white"/>
<path d="M97.2345 39.5037V37.4578H89.5114V47.6863H97.4454V45.6343H91.9202V43.57H96.4401V41.525H91.9202V39.5028L97.2345 39.5037Z" fill="white"/>
<path d="M46.9888 47.8622C45.9411 47.857 44.9185 47.5428 44.0499 46.9592C43.1814 46.3756 42.5058 45.5489 42.1085 44.5832C41.7112 43.6176 41.61 42.5564 41.8175 41.5335C42.0251 40.5106 42.5323 39.5718 43.2749 38.8358C44.0176 38.0997 44.9625 37.5992 45.9904 37.3975C47.0184 37.1958 48.0832 37.302 49.0507 37.7025C50.0181 38.1031 50.8447 38.7801 51.4262 39.6482C52.0078 40.5163 52.3181 41.5365 52.3181 42.58C52.313 43.984 51.749 45.3285 50.7499 46.3188C49.7508 47.309 48.3982 47.8641 46.9888 47.8622ZM47.0003 39.5284C46.3972 39.5313 45.8086 39.7121 45.3086 40.0479C44.8086 40.3837 44.4196 40.8595 44.1907 41.4152C43.9618 41.971 43.9033 42.5818 44.0225 43.1706C44.1417 43.7594 44.4333 44.2999 44.8605 44.7239C45.2877 45.1478 45.8314 45.4363 46.423 45.5528C47.0146 45.6693 47.6276 45.6087 48.1846 45.3787C48.7417 45.1486 49.2178 44.7594 49.5531 44.26C49.8883 43.7607 50.0676 43.1737 50.0683 42.573C50.0662 41.7642 49.7419 40.9893 49.1667 40.4184C48.5914 39.8475 47.8123 39.5274 47.0003 39.5284Z" fill="white"/>
</svg>
