<svg xmlns="http://www.w3.org/2000/svg" width="30.358" height="21.25" viewBox="0 0 30.358 21.25"><path fill="#000000" d="M29.464,3.315A14.046,14.046,0,0,0,23.942,2.25C18.1,2.25,12.258,5.207,6.415,5.207a14.392,14.392,0,0,1-4.395-.651,1.622,1.622,0,0,0-.491-.077A1.509,1.509,0,0,0,0,5.988V21.037a1.508,1.508,0,0,0,.894,1.4A14.039,14.039,0,0,0,6.415,23.5c5.842,0,11.685-2.957,17.527-2.957a14.392,14.392,0,0,1,4.395.651,1.622,1.622,0,0,0,.491.077,1.509,1.509,0,0,0,1.53-1.509V4.713A1.51,1.51,0,0,0,29.464,3.315ZM15.179,17.429c-2.1,0-3.795-2.039-3.795-4.554s1.7-4.554,3.795-4.554,3.795,2.039,3.795,4.554S17.274,17.429,15.179,17.429Z" transform="translate(0 -2.25)"/></svg>
