<svg width="33" height="47" viewBox="0 0 33 47" fill="none" xmlns="http://www.w3.org/2000/svg">
<path d="M7.82 38.49C7.82 38.0033 7.73333 37.5433 7.56 37.11C7.39333 36.67 7.15333 36.2867 6.84 35.96C6.52667 35.6267 6.15 35.3633 5.71 35.17C5.27667 34.9767 4.79333 34.88 4.26 34.88C3.72667 34.88 3.24 34.98 2.8 35.18C2.36 35.3733 1.98333 35.6367 1.67 35.97C1.35667 36.3033 1.11333 36.69 0.94 37.13C0.766667 37.5633 0.68 38.0233 0.68 38.51C0.68 38.9967 0.763333 39.46 0.93 39.9C1.10333 40.3333 1.34667 40.7167 1.66 41.05C1.97333 41.3767 2.34667 41.6367 2.78 41.83C3.22 42.0233 3.70667 42.12 4.24 42.12C4.77333 42.12 5.26 42.0233 5.7 41.83C6.14 41.63 6.51667 41.3633 6.83 41.03C7.14333 40.6967 7.38667 40.3133 7.56 39.88C7.73333 39.44 7.82 38.9767 7.82 38.49ZM7 38.51C7 38.91 6.93 39.2867 6.79 39.64C6.65667 39.9867 6.47 40.29 6.23 40.55C5.99 40.81 5.7 41.0167 5.36 41.17C5.02667 41.3167 4.66 41.39 4.26 41.39C3.86 41.39 3.49 41.3133 3.15 41.16C2.81667 41.0067 2.52667 40.8 2.28 40.54C2.03333 40.28 1.84 39.9733 1.7 39.62C1.56667 39.2667 1.5 38.89 1.5 38.49C1.5 38.09 1.56667 37.7167 1.7 37.37C1.84 37.0167 2.03 36.71 2.27 36.45C2.51 36.19 2.79667 35.9867 3.13 35.84C3.47 35.6867 3.84 35.61 4.24 35.61C4.64 35.61 5.00667 35.6867 5.34 35.84C5.68 35.9933 5.97333 36.2 6.22 36.46C6.46667 36.72 6.65667 37.0267 6.79 37.38C6.93 37.7333 7 38.11 7 38.51ZM10.4061 36.85V36.43C10.4061 35.6967 10.7061 35.33 11.3061 35.33C11.4394 35.33 11.5628 35.3433 11.6761 35.37C11.7894 35.39 11.9161 35.42 12.0561 35.46V34.79C11.9294 34.7433 11.7994 34.71 11.6661 34.69C11.5394 34.67 11.3861 34.66 11.2061 34.66C10.7061 34.66 10.3194 34.8067 10.0461 35.1C9.77943 35.3933 9.64609 35.8233 9.64609 36.39V36.84H8.93609V37.51H9.64609V42H10.4161V37.51H12.0461V36.85H10.4061ZM14.078 36.85V36.43C14.078 35.6967 14.378 35.33 14.978 35.33C15.1113 35.33 15.2346 35.3433 15.348 35.37C15.4613 35.39 15.588 35.42 15.728 35.46V34.79C15.6013 34.7433 15.4713 34.71 15.338 34.69C15.2113 34.67 15.058 34.66 14.878 34.66C14.378 34.66 13.9913 34.8067 13.718 35.1C13.4513 35.3933 13.318 35.8233 13.318 36.39V36.84H12.608V37.51H13.318V42H14.088V37.51H15.718V36.85H14.078ZM17.0622 39.7H21.1622C21.1689 39.6533 21.1722 39.61 21.1722 39.57C21.1722 39.53 21.1722 39.4933 21.1722 39.46C21.1722 39.08 21.1189 38.7233 21.0122 38.39C20.9055 38.0567 20.7489 37.7667 20.5422 37.52C20.3355 37.2733 20.0822 37.08 19.7822 36.94C19.4822 36.7933 19.1422 36.72 18.7622 36.72C18.4022 36.72 18.0689 36.79 17.7622 36.93C17.4622 37.07 17.2022 37.2633 16.9822 37.51C16.7622 37.75 16.5889 38.0367 16.4622 38.37C16.3422 38.6967 16.2822 39.0467 16.2822 39.42C16.2822 39.82 16.3489 40.1867 16.4822 40.52C16.6222 40.8533 16.8089 41.14 17.0422 41.38C17.2755 41.6133 17.5489 41.7967 17.8622 41.93C18.1755 42.0567 18.5089 42.12 18.8622 42.12C19.3555 42.12 19.7689 42.0333 20.1022 41.86C20.4355 41.68 20.7322 41.4433 20.9922 41.15L20.5122 40.72C20.2989 40.94 20.0622 41.1167 19.8022 41.25C19.5489 41.3833 19.2422 41.45 18.8822 41.45C18.6555 41.45 18.4389 41.4133 18.2322 41.34C18.0255 41.26 17.8389 41.1467 17.6722 41C17.5055 40.8467 17.3689 40.6633 17.2622 40.45C17.1555 40.23 17.0889 39.98 17.0622 39.7ZM17.0622 39.13C17.0889 38.8767 17.1489 38.6433 17.2422 38.43C17.3355 38.2167 17.4555 38.0333 17.6022 37.88C17.7489 37.72 17.9189 37.5967 18.1122 37.51C18.3055 37.4167 18.5155 37.37 18.7422 37.37C19.0022 37.37 19.2289 37.42 19.4222 37.52C19.6222 37.6133 19.7889 37.74 19.9222 37.9C20.0622 38.06 20.1689 38.2467 20.2422 38.46C20.3222 38.6733 20.3722 38.8967 20.3922 39.13H17.0622ZM23.2902 39.94C23.2902 39.5533 23.3435 39.2133 23.4502 38.92C23.5568 38.62 23.7035 38.37 23.8902 38.17C24.0768 37.97 24.2935 37.82 24.5402 37.72C24.7935 37.62 25.0602 37.57 25.3402 37.57H25.4002V36.74C25.1535 36.7333 24.9235 36.7633 24.7102 36.83C24.4968 36.8967 24.3002 36.9967 24.1202 37.13C23.9402 37.2567 23.7802 37.41 23.6402 37.59C23.5002 37.77 23.3835 37.9667 23.2902 38.18V36.83H22.5202V42H23.2902V39.94ZM30.1229 40.55V40.53C30.1229 40.2967 30.0729 40.1 29.9729 39.94C29.8796 39.78 29.7529 39.6433 29.5929 39.53C29.4329 39.4167 29.2529 39.3233 29.0529 39.25C28.8596 39.1767 28.6629 39.11 28.4629 39.05C28.2896 38.9967 28.1229 38.9433 27.9629 38.89C27.8029 38.8367 27.6596 38.7767 27.5329 38.71C27.4129 38.6433 27.3162 38.5667 27.2429 38.48C27.1696 38.3867 27.1329 38.28 27.1329 38.16V38.14C27.1329 37.9267 27.2229 37.75 27.4029 37.61C27.5829 37.4633 27.8262 37.39 28.1329 37.39C28.3862 37.39 28.6429 37.4367 28.9029 37.53C29.1696 37.6167 29.4229 37.7367 29.6629 37.89L30.0129 37.31C29.7462 37.1367 29.4496 37 29.1229 36.9C28.7962 36.7933 28.4729 36.74 28.1529 36.74C27.8996 36.74 27.6629 36.7767 27.4429 36.85C27.2296 36.9167 27.0429 37.0167 26.8829 37.15C26.7296 37.2767 26.6096 37.4333 26.5229 37.62C26.4362 37.8 26.3929 38 26.3929 38.22V38.24C26.3929 38.48 26.4429 38.68 26.5429 38.84C26.6496 39 26.7829 39.1333 26.9429 39.24C27.1096 39.3467 27.2929 39.4367 27.4929 39.51C27.6996 39.5767 27.9029 39.64 28.1029 39.7C28.2696 39.7467 28.4296 39.7967 28.5829 39.85C28.7429 39.9033 28.8829 39.9667 29.0029 40.04C29.1229 40.1067 29.2162 40.1867 29.2829 40.28C29.3562 40.3733 29.3929 40.4833 29.3929 40.61V40.63C29.3929 40.8833 29.2929 41.0833 29.0929 41.23C28.8929 41.3767 28.6362 41.45 28.3229 41.45C28.0162 41.45 27.7096 41.3933 27.4029 41.28C27.1029 41.1667 26.8129 41.0033 26.5329 40.79L26.1429 41.34C26.4362 41.5733 26.7729 41.76 27.1529 41.9C27.5329 42.0333 27.9096 42.1 28.2829 42.1C28.5429 42.1 28.7829 42.0667 29.0029 42C29.2296 41.9267 29.4229 41.8233 29.5829 41.69C29.7496 41.5567 29.8796 41.3967 29.9729 41.21C30.0729 41.0167 30.1229 40.7967 30.1229 40.55Z" fill="#222322"/>
<path d="M20.4587 16.1721L17.1442 6.22837C17.0214 5.85998 17.2205 5.46178 17.5889 5.33896C17.9572 5.2162 18.3555 5.41527 18.4783 5.78367L21.7928 15.7274C21.9156 16.0958 21.7165 16.494 21.3481 16.6168C21.2744 16.6414 21.1994 16.6531 21.1257 16.6531C20.8313 16.6531 20.557 16.4668 20.4587 16.1721Z" fill="#767676"/>
<path d="M15.4912 13.0873C14.3281 13.0873 13.3818 12.141 13.3818 10.9779C13.3818 9.8148 14.3281 8.86853 15.4912 8.86853C16.6543 8.86853 17.6006 9.8148 17.6006 10.9779C17.6006 12.141 16.6543 13.0873 15.4912 13.0873ZM15.4912 10.2748C15.1035 10.2748 14.7881 10.5902 14.7881 10.9779C14.7881 11.3656 15.1035 11.681 15.4912 11.681C15.8789 11.681 16.1943 11.3656 16.1943 10.9779C16.1943 10.5902 15.8789 10.2748 15.4912 10.2748Z" fill="#767676"/>
<path d="M23.4458 8.86853C24.6089 8.86853 25.5552 9.8148 25.5552 10.9779C25.5552 12.141 24.6089 13.0873 23.4458 13.0873C22.2827 13.0873 21.3364 12.141 21.3364 10.9779C21.3364 9.8148 22.2827 8.86853 23.4458 8.86853ZM23.4458 11.681C23.8335 11.681 24.1489 11.3656 24.1489 10.9779C24.1489 10.5902 23.8335 10.2748 23.4458 10.2748C23.0581 10.2748 22.7427 10.5902 22.7427 10.9779C22.7427 11.3656 23.0581 11.681 23.4458 11.681Z" fill="#767676"/>
<path d="M6.14063 8.71874L8.59252 5.44954L8.49685 4.78002C8.46559 4.56093 8.53923 4.33986 8.69574 4.1834L10.1873 2.69183L8.69579 1.20027C8.4212 0.925723 8.4212 0.480504 8.69579 0.20591C8.97034 -0.0686367 9.41555 -0.0686367 9.69015 0.20591L11.1817 1.69747L12.6732 0.20591C12.8297 0.0493945 13.0508 -0.0240117 13.2699 0.00701952L20.2305 1.00138C20.3811 1.02289 20.5206 1.09269 20.6282 1.20027L29.2461 9.81815C30.2513 10.8233 30.2513 12.459 29.2461 13.4642L21.9541 20.7562C21.8049 20.9054 21.6416 21.0319 21.4688 21.1368V21.4219C21.4688 22.8434 20.3122 24 18.8906 24H8.57813C7.15656 24 6.00001 22.8434 6.00001 21.4219V9.14062C6.00001 8.98851 6.04937 8.84043 6.14063 8.71874ZM28.2517 12.4698C28.7087 12.0129 28.7087 11.2694 28.2517 10.8125L19.7996 2.36038L13.4191 1.44889L12.1761 2.69188L13.1704 3.68624L13.6676 3.18904C13.9422 2.91449 14.3874 2.91449 14.662 3.18904C14.9366 3.46358 14.9366 3.9088 14.662 4.1834L12.6732 6.17216C12.5359 6.30946 12.356 6.37813 12.1761 6.37813C11.9962 6.37813 11.8162 6.30946 11.6789 6.17216C11.4043 5.89761 11.4043 5.4524 11.6789 5.1778L12.1761 4.6806L11.1818 3.68624L9.93877 4.92922L10.8503 11.3098L19.3024 19.7619C19.5237 19.9832 19.818 20.1051 20.131 20.1051C20.4441 20.1051 20.7384 19.9832 20.9597 19.7619L28.2517 12.4698ZM7.40626 21.4219C7.40626 22.068 7.93196 22.5937 8.57813 22.5937H18.8906C19.5077 22.5937 20.0145 22.1143 20.059 21.5084C19.423 21.4908 18.7923 21.2406 18.3081 20.7562L9.6902 12.1384C9.58262 12.0308 9.51282 11.8912 9.4913 11.7406L8.87382 7.41829L7.40626 9.37499V21.4219Z" fill="#767676"/>
</svg>
