<svg width="33" height="33" viewBox="0 0 33 33" fill="none" xmlns="http://www.w3.org/2000/svg">
    <path d="M20.4587 16.1721L17.1442 6.22837C17.0214 5.85998 17.2205 5.46178 17.5889 5.33896C17.9572 5.2162 18.3555 5.41527 18.4783 5.78367L21.7928 15.7274C21.9156 16.0958 21.7165 16.494 21.3481 16.6168C21.2744 16.6414 21.1994 16.6531 21.1257 16.6531C20.8313 16.6531 20.557 16.4668 20.4587 16.1721Z" fill="#6E1F37"/>
    <path d="M15.4912 13.0873C14.3281 13.0873 13.3818 12.141 13.3818 10.9779C13.3818 9.8148 14.3281 8.86853 15.4912 8.86853C16.6543 8.86853 17.6006 9.8148 17.6006 10.9779C17.6006 12.141 16.6543 13.0873 15.4912 13.0873ZM15.4912 10.2748C15.1035 10.2748 14.7881 10.5902 14.7881 10.9779C14.7881 11.3656 15.1035 11.681 15.4912 11.681C15.8789 11.681 16.1943 11.3656 16.1943 10.9779C16.1943 10.5902 15.8789 10.2748 15.4912 10.2748Z" fill="#6E1F37"/>
    <path d="M23.4458 8.86853C24.6089 8.86853 25.5552 9.8148 25.5552 10.9779C25.5552 12.141 24.6089 13.0873 23.4458 13.0873C22.2827 13.0873 21.3364 12.141 21.3364 10.9779C21.3364 9.8148 22.2827 8.86853 23.4458 8.86853ZM23.4458 11.681C23.8335 11.681 24.1489 11.3656 24.1489 10.9779C24.1489 10.5902 23.8335 10.2748 23.4458 10.2748C23.0581 10.2748 22.7427 10.5902 22.7427 10.9779C22.7427 11.3656 23.0581 11.681 23.4458 11.681Z" fill="#6E1F37"/>
    <path d="M6.14063 8.71874L8.59252 5.44954L8.49685 4.78002C8.46559 4.56093 8.53923 4.33986 8.69574 4.1834L10.1873 2.69183L8.69579 1.20027C8.4212 0.925723 8.4212 0.480504 8.69579 0.20591C8.97034 -0.0686367 9.41555 -0.0686367 9.69015 0.20591L11.1817 1.69747L12.6732 0.20591C12.8297 0.0493945 13.0508 -0.0240117 13.2699 0.00701952L20.2305 1.00138C20.3811 1.02289 20.5206 1.09269 20.6282 1.20027L29.2461 9.81815C30.2513 10.8233 30.2513 12.459 29.2461 13.4642L21.9541 20.7562C21.8049 20.9054 21.6416 21.0319 21.4688 21.1368V21.4219C21.4688 22.8434 20.3122 24 18.8906 24H8.57813C7.15656 24 6.00001 22.8434 6.00001 21.4219V9.14062C6.00001 8.98851 6.04937 8.84043 6.14063 8.71874ZM28.2517 12.4698C28.7087 12.0129 28.7087 11.2694 28.2517 10.8125L19.7996 2.36038L13.4191 1.44889L12.1761 2.69188L13.1704 3.68624L13.6676 3.18904C13.9422 2.91449 14.3874 2.91449 14.662 3.18904C14.9366 3.46358 14.9366 3.9088 14.662 4.1834L12.6732 6.17216C12.5359 6.30946 12.356 6.37813 12.1761 6.37813C11.9962 6.37813 11.8162 6.30946 11.6789 6.17216C11.4043 5.89761 11.4043 5.4524 11.6789 5.1778L12.1761 4.6806L11.1818 3.68624L9.93877 4.92922L10.8503 11.3098L19.3024 19.7619C19.5237 19.9832 19.818 20.1051 20.131 20.1051C20.4441 20.1051 20.7384 19.9832 20.9597 19.7619L28.2517 12.4698ZM7.40626 21.4219C7.40626 22.068 7.93196 22.5937 8.57813 22.5937H18.8906C19.5077 22.5937 20.0145 22.1143 20.059 21.5084C19.423 21.4908 18.7923 21.2406 18.3081 20.7562L9.6902 12.1384C9.58262 12.0308 9.51282 11.8912 9.4913 11.7406L8.87382 7.41829L7.40626 9.37499V21.4219Z" fill="#6E1F37"/>
</svg>
