<svg width="20" height="20" viewBox="0 0 20 20" fill="none" xmlns="http://www.w3.org/2000/svg">
<path d="M19.0049 17.8432L19.0048 17.8431L14.5269 13.4367C15.6885 12.094 16.3967 10.3567 16.3967 8.4525V8.45246C16.3961 4.19415 12.8897 0.749374 8.57256 0.749374C4.25539 0.749374 0.749023 4.19415 0.749023 8.4525C0.749023 12.7108 4.25539 16.1556 8.57256 16.1556C10.3582 16.1556 12.0031 15.5644 13.3199 14.5727L17.8297 19.0107C18.1544 19.3305 18.6802 19.3305 19.0049 19.0107C19.3325 18.6885 19.3313 18.1647 19.0049 17.8432ZM8.57256 14.5089C5.16766 14.5089 2.41432 11.7936 2.41432 8.4525C2.41432 5.11138 5.16766 2.39608 8.57256 2.39608C11.9775 2.39608 14.7308 5.11138 14.7308 8.4525C14.7308 11.7936 11.9775 14.5089 8.57256 14.5089Z" fill="#90445B" stroke="#90445B" stroke-width="0.5"/>
</svg>
