<svg width="42" height="48" viewBox="0 0 42 48" fill="none" xmlns="http://www.w3.org/2000/svg">
<g clip-path="url(#clip0)">
<path d="M21 17C20.0111 17 19.0444 16.7068 18.2222 16.1573C17.3999 15.6079 16.759 14.8271 16.3806 13.9134C16.0022 12.9998 15.9031 11.9945 16.0961 11.0246C16.289 10.0546 16.7652 9.16373 17.4645 8.46447C18.1637 7.76521 19.0546 7.289 20.0246 7.09608C20.9945 6.90315 21.9998 7.00217 22.9134 7.3806C23.8271 7.75904 24.6079 8.39991 25.1573 9.22215C25.7068 10.0444 26 11.0111 26 12C25.9984 13.3256 25.4711 14.5964 24.5338 15.5338C23.5964 16.4711 22.3256 16.9984 21 17ZM21 8.5C20.3078 8.5 19.6311 8.70527 19.0555 9.08986C18.4799 9.47444 18.0313 10.0211 17.7664 10.6606C17.5015 11.3002 17.4322 12.0039 17.5673 12.6828C17.7023 13.3618 18.0356 13.9854 18.5251 14.4749C19.0146 14.9644 19.6383 15.2977 20.3172 15.4328C20.9961 15.5678 21.6999 15.4985 22.3394 15.2336C22.9789 14.9687 23.5256 14.5201 23.9101 13.9445C24.2947 13.3689 24.5 12.6922 24.5 12C24.5 11.0717 24.1313 10.1815 23.4749 9.52513C22.8185 8.86875 21.9283 8.5 21 8.5Z" fill="#767676"/>
<path d="M21.0001 24.0002C20.524 24.0056 20.0561 23.8772 19.6495 23.6297C19.2428 23.3822 18.9139 23.0255 18.7001 22.6002L18.5421 22.3002C18.2621 21.7562 17.7982 21.3291 17.233 21.0949C16.6677 20.8607 16.0377 20.8346 15.4551 21.0212L15.1301 21.1212C14.8715 21.2045 14.6017 21.2474 14.3301 21.2482C13.9232 21.2452 13.5227 21.1465 13.1611 20.9601C12.7994 20.7737 12.4866 20.5048 12.2481 20.1752C12.0076 19.8477 11.8487 19.4675 11.7847 19.0663C11.7207 18.665 11.7534 18.2543 11.8801 17.8682L11.9801 17.5432C12.1683 16.9603 12.1429 16.3295 11.9084 15.7636C11.6738 15.1978 11.2455 14.7339 10.7001 14.4552L10.4001 14.3002C9.97784 14.0824 9.62373 13.7526 9.37652 13.3469C9.12931 12.9412 8.99854 12.4753 8.99854 12.0002C8.99854 11.5251 9.12931 11.0592 9.37652 10.6535C9.62373 10.2478 9.97784 9.91799 10.4001 9.70019L10.7001 9.54519C11.2458 9.26664 11.6746 8.80303 11.9098 8.23728C12.1451 7.67154 12.1714 7.04055 11.9841 6.45719L11.8841 6.13219C11.7574 5.74628 11.7247 5.3357 11.7887 4.93461C11.8527 4.53352 12.0116 4.15351 12.2521 3.82619C12.5694 3.38308 13.0196 3.05254 13.5374 2.88245C14.0552 2.71236 14.6138 2.71157 15.1321 2.88019L15.4571 2.98019C15.7119 3.06113 15.9777 3.10228 16.2451 3.10219C16.7203 3.1038 17.1867 2.97386 17.5926 2.72677C17.9986 2.47967 18.3282 2.12506 18.5451 1.70219L18.7001 1.40019C18.9171 0.977099 19.2466 0.622075 19.6524 0.374178C20.0582 0.126281 20.5245 -0.00488281 21.0001 -0.00488281C21.4756 -0.00488281 21.9419 0.126281 22.3477 0.374178C22.7535 0.622075 23.083 0.977099 23.3001 1.40019L23.4581 1.70019C23.6749 2.12306 24.0045 2.47767 24.4105 2.72477C24.8164 2.97186 25.2828 3.1018 25.7581 3.10019C26.0254 3.10028 26.2912 3.05913 26.5461 2.97819L26.8711 2.87819C27.3899 2.70863 27.9493 2.70894 28.4679 2.87906C28.9866 3.04919 29.4375 3.38027 29.7551 3.82419C29.9955 4.15151 30.1544 4.53152 30.2184 4.93261C30.2824 5.3337 30.2497 5.74428 30.1231 6.13019L30.0231 6.45519C29.8351 7.03811 29.8605 7.66888 30.0948 8.23477C30.3291 8.80066 30.757 9.26479 31.3021 9.54419L31.6021 9.69919C32.0243 9.917 32.3784 10.2468 32.6256 10.6525C32.8728 11.0582 33.0036 11.5241 33.0036 11.9992C33.0036 12.4743 32.8728 12.9402 32.6256 13.3459C32.3784 13.7516 32.0243 14.0814 31.6021 14.2992L31.3021 14.4542C30.7568 14.7331 30.3287 15.197 30.0943 15.7628C29.86 16.3287 29.8347 16.9594 30.0231 17.5422L30.1231 17.8672C30.2497 18.2533 30.2824 18.664 30.2184 19.0653C30.1544 19.4665 29.9956 19.8467 29.7551 20.1742C29.5165 20.5038 29.2037 20.7727 28.8421 20.9591C28.4804 21.1455 28.0799 21.2442 27.6731 21.2472C27.4014 21.2464 27.1316 21.2035 26.8731 21.1202L26.5481 21.0202C25.9654 20.8336 25.3354 20.8597 24.7701 21.0939C24.2049 21.3281 23.741 21.7552 23.4611 22.2992L23.3031 22.5992C23.0891 23.0251 22.7598 23.3824 22.3526 23.6301C21.9453 23.8778 21.4767 24.0061 21.0001 24.0002ZM16.2451 19.3932C16.9958 19.3915 17.7325 19.5975 18.3735 19.9884C19.0145 20.3793 19.5349 20.9399 19.8771 21.6082L20.0341 21.9082C20.1254 22.0855 20.2638 22.2343 20.4341 22.3382C20.6044 22.442 20.8001 22.497 20.9996 22.497C21.199 22.497 21.3947 22.442 21.565 22.3382C21.7353 22.2343 21.8737 22.0855 21.9651 21.9082L22.1221 21.6082C22.5652 20.7493 23.2983 20.075 24.1912 19.7051C25.0842 19.3351 26.0793 19.2934 27.0001 19.5872L27.3251 19.6872C27.4361 19.7239 27.5522 19.7428 27.6691 19.7432C27.8399 19.7406 28.0077 19.6979 28.159 19.6185C28.3103 19.5391 28.4408 19.4253 28.5401 19.2862C28.6409 19.1493 28.7073 18.9901 28.7336 18.8222C28.7599 18.6542 28.7453 18.4823 28.6911 18.3212L28.5911 17.9962C28.2943 17.0755 28.3347 16.0793 28.7049 15.1857C29.0752 14.2921 29.7512 13.5592 30.6121 13.1182L30.9121 12.9622C31.0897 12.871 31.2387 12.7325 31.3427 12.5621C31.4468 12.3917 31.5018 12.1959 31.5018 11.9962C31.5018 11.7965 31.4468 11.6007 31.3427 11.4303C31.2387 11.2599 31.0897 11.1214 30.9121 11.0302L30.6121 10.8742C29.7513 10.4339 29.0751 9.70202 28.7041 8.80921C28.3332 7.91639 28.2917 6.92078 28.5871 6.00019L28.6871 5.67519C28.741 5.51384 28.7555 5.3419 28.7292 5.1738C28.7029 5.0057 28.6367 4.84637 28.5361 4.70919C28.4367 4.57032 28.3061 4.45672 28.1548 4.37752C28.0035 4.29832 27.8358 4.25573 27.6651 4.25319C27.5482 4.25363 27.4321 4.27253 27.3211 4.30919L26.9961 4.40919C26.0754 4.70392 25.0801 4.66269 24.187 4.29285C23.2939 3.92301 22.5608 3.2485 22.1181 2.38919L21.9611 2.08919C21.8697 1.91184 21.7313 1.76307 21.561 1.6592C21.3907 1.55534 21.195 1.50039 20.9956 1.50039C20.7961 1.50039 20.6004 1.55534 20.4301 1.6592C20.2598 1.76307 20.1214 1.91184 20.0301 2.08919L19.8731 2.38919C19.4311 3.24813 18.6991 3.92273 17.8071 4.29325C16.915 4.66378 15.9205 4.70627 15.0001 4.41319L14.6751 4.31319C14.564 4.27653 14.448 4.25763 14.3311 4.25719C14.1603 4.25973 13.9926 4.30232 13.8413 4.38152C13.69 4.46072 13.5594 4.57432 13.4601 4.71319C13.3594 4.85038 13.2933 5.00976 13.2672 5.17789C13.2411 5.34601 13.2558 5.51794 13.3101 5.67919L13.4101 6.00419C13.7068 6.92485 13.6664 7.92103 13.2962 8.81467C12.9259 9.70831 12.2499 10.4411 11.3891 10.8822L11.0891 11.0382C10.9114 11.1294 10.7624 11.2679 10.6584 11.4383C10.5543 11.6087 10.4993 11.8045 10.4993 12.0042C10.4993 12.2039 10.5543 12.3997 10.6584 12.5701C10.7624 12.7405 10.9114 12.879 11.0891 12.9702L11.3891 13.1262C12.2496 13.5666 12.9256 14.2986 13.2964 15.1914C13.6671 16.0842 13.7085 17.0797 13.4131 18.0002L13.3131 18.3252C13.2585 18.4862 13.2437 18.6581 13.2698 18.8261C13.2959 18.9941 13.3622 19.1533 13.4631 19.2902C13.5623 19.4293 13.6928 19.5431 13.8441 19.6225C13.9954 19.7019 14.1632 19.7446 14.3341 19.7472C14.451 19.7468 14.567 19.7279 14.6781 19.6912L15.0031 19.5912C15.4044 19.4616 15.8233 19.3948 16.2451 19.3932Z" fill="#767676"/>
</g>
<path d="M4.32 35.95H3.58L0.39 43H1.2L2.03 41.15H5.84L6.66 43H7.51L4.32 35.95ZM5.53 40.44H2.34L3.94 36.87L5.53 40.44ZM12.9465 42.12L12.4565 41.66C12.2498 41.88 12.0165 42.0633 11.7565 42.21C11.5032 42.3567 11.2098 42.43 10.8765 42.43C10.6032 42.43 10.3498 42.38 10.1165 42.28C9.88982 42.1733 9.68982 42.03 9.51648 41.85C9.34982 41.6633 9.21648 41.4467 9.11648 41.2C9.02315 40.9533 8.97648 40.69 8.97648 40.41C8.97648 40.13 9.02315 39.87 9.11648 39.63C9.20982 39.3833 9.33982 39.17 9.50648 38.99C9.67315 38.8033 9.86982 38.66 10.0965 38.56C10.3232 38.4533 10.5665 38.4 10.8265 38.4C11.1798 38.4 11.4765 38.4767 11.7165 38.63C11.9632 38.7833 12.1898 38.9667 12.3965 39.18L12.9065 38.64C12.7865 38.5133 12.6565 38.3933 12.5165 38.28C12.3765 38.1667 12.2232 38.07 12.0565 37.99C11.8898 37.9033 11.7065 37.8367 11.5065 37.79C11.3065 37.7433 11.0832 37.72 10.8365 37.72C10.4565 37.72 10.1032 37.7933 9.77648 37.94C9.45648 38.08 9.17648 38.2733 8.93648 38.52C8.70315 38.7667 8.51982 39.0567 8.38648 39.39C8.25315 39.7167 8.18648 40.0633 8.18648 40.43C8.18648 40.7967 8.25315 41.1433 8.38648 41.47C8.51982 41.7967 8.70315 42.0833 8.93648 42.33C9.17648 42.57 9.45648 42.7633 9.77648 42.91C10.1032 43.05 10.4565 43.12 10.8365 43.12C11.3232 43.12 11.7298 43.0267 12.0565 42.84C12.3898 42.6533 12.6865 42.4133 12.9465 42.12ZM18.5129 42.12L18.0229 41.66C17.8162 41.88 17.5829 42.0633 17.3229 42.21C17.0696 42.3567 16.7762 42.43 16.4429 42.43C16.1696 42.43 15.9162 42.38 15.6829 42.28C15.4562 42.1733 15.2562 42.03 15.0829 41.85C14.9162 41.6633 14.7829 41.4467 14.6829 41.2C14.5896 40.9533 14.5429 40.69 14.5429 40.41C14.5429 40.13 14.5896 39.87 14.6829 39.63C14.7762 39.3833 14.9062 39.17 15.0729 38.99C15.2396 38.8033 15.4362 38.66 15.6629 38.56C15.8896 38.4533 16.1329 38.4 16.3929 38.4C16.7462 38.4 17.0429 38.4767 17.2829 38.63C17.5296 38.7833 17.7562 38.9667 17.9629 39.18L18.4729 38.64C18.3529 38.5133 18.2229 38.3933 18.0829 38.28C17.9429 38.1667 17.7896 38.07 17.6229 37.99C17.4562 37.9033 17.2729 37.8367 17.0729 37.79C16.8729 37.7433 16.6496 37.72 16.4029 37.72C16.0229 37.72 15.6696 37.7933 15.3429 37.94C15.0229 38.08 14.7429 38.2733 14.5029 38.52C14.2696 38.7667 14.0862 39.0567 13.9529 39.39C13.8196 39.7167 13.7529 40.0633 13.7529 40.43C13.7529 40.7967 13.8196 41.1433 13.9529 41.47C14.0862 41.7967 14.2696 42.0833 14.5029 42.33C14.7429 42.57 15.0229 42.7633 15.3429 42.91C15.6696 43.05 16.0229 43.12 16.4029 43.12C16.8896 43.12 17.2962 43.0267 17.6229 42.84C17.9562 42.6533 18.2529 42.4133 18.5129 42.12ZM24.7093 40.41C24.7093 40.0433 24.6426 39.6967 24.5093 39.37C24.376 39.0433 24.1893 38.76 23.9493 38.52C23.7093 38.2733 23.4226 38.08 23.0893 37.94C22.7626 37.7933 22.406 37.72 22.0193 37.72C21.626 37.72 21.2626 37.7933 20.9293 37.94C20.6026 38.08 20.3193 38.2733 20.0793 38.52C19.8393 38.7667 19.6526 39.0567 19.5193 39.39C19.386 39.7167 19.3193 40.0633 19.3193 40.43C19.3193 40.7967 19.386 41.1433 19.5193 41.47C19.6526 41.7967 19.8393 42.0833 20.0793 42.33C20.3193 42.57 20.6026 42.7633 20.9293 42.91C21.256 43.05 21.6126 43.12 21.9993 43.12C22.386 43.12 22.746 43.05 23.0793 42.91C23.4126 42.7633 23.6993 42.5667 23.9393 42.32C24.1793 42.0733 24.366 41.7867 24.4993 41.46C24.6393 41.1267 24.7093 40.7767 24.7093 40.41ZM23.9193 40.43C23.9193 40.71 23.8726 40.9733 23.7793 41.22C23.686 41.46 23.556 41.67 23.3893 41.85C23.2226 42.03 23.0226 42.1733 22.7893 42.28C22.556 42.38 22.2993 42.43 22.0193 42.43C21.746 42.43 21.4926 42.3767 21.2593 42.27C21.026 42.1633 20.8226 42.02 20.6493 41.84C20.4826 41.66 20.3493 41.4467 20.2493 41.2C20.156 40.9533 20.1093 40.69 20.1093 40.41C20.1093 40.13 20.156 39.87 20.2493 39.63C20.3426 39.3833 20.4693 39.17 20.6293 38.99C20.796 38.8033 20.996 38.66 21.2293 38.56C21.4626 38.4533 21.7193 38.4 21.9993 38.4C22.2726 38.4 22.526 38.4533 22.7593 38.56C22.9926 38.6667 23.196 38.8133 23.3693 39C23.5426 39.18 23.676 39.3933 23.7693 39.64C23.8693 39.8867 23.9193 40.15 23.9193 40.43ZM29.7741 40.79C29.7741 41.03 29.7341 41.25 29.6541 41.45C29.5741 41.65 29.4641 41.8233 29.3241 41.97C29.1908 42.11 29.0275 42.22 28.8341 42.3C28.6475 42.3733 28.4441 42.41 28.2241 42.41C27.7641 42.41 27.4108 42.27 27.1641 41.99C26.9175 41.71 26.7941 41.33 26.7941 40.85V37.83H26.0241V41.04C26.0241 41.3467 26.0675 41.6267 26.1541 41.88C26.2475 42.1333 26.3775 42.3533 26.5441 42.54C26.7175 42.72 26.9241 42.86 27.1641 42.96C27.4108 43.06 27.6908 43.11 28.0041 43.11C28.4508 43.11 28.8141 43.0133 29.0941 42.82C29.3741 42.62 29.6008 42.38 29.7741 42.1V43H30.5341V37.83H29.7741V40.79ZM33.0363 40.04C33.0363 39.8 33.0729 39.58 33.1463 39.38C33.2263 39.18 33.3363 39.01 33.4763 38.87C33.6163 38.7233 33.7796 38.6133 33.9663 38.54C34.1596 38.46 34.3663 38.42 34.5863 38.42C35.0463 38.42 35.3996 38.56 35.6463 38.84C35.8929 39.12 36.0163 39.5 36.0163 39.98V43H36.7863V39.79C36.7863 39.4833 36.7396 39.2033 36.6463 38.95C36.5596 38.6967 36.4296 38.48 36.2563 38.3C36.0896 38.1133 35.8829 37.97 35.6363 37.87C35.3963 37.77 35.1196 37.72 34.8063 37.72C34.3596 37.72 33.9963 37.82 33.7163 38.02C33.4363 38.2133 33.2096 38.45 33.0363 38.73V37.83H32.2663V43H33.0363V40.04ZM39.4684 38.51H41.1084V37.83H39.4684V36.27H38.6984V37.83H37.9784V38.51H38.6984V41.63C38.6984 41.89 38.735 42.1133 38.8084 42.3C38.8817 42.4867 38.9817 42.64 39.1084 42.76C39.2417 42.8733 39.3984 42.9567 39.5784 43.01C39.7584 43.0633 39.9517 43.09 40.1584 43.09C40.345 43.09 40.5117 43.07 40.6584 43.03C40.8117 42.9967 40.955 42.9433 41.0884 42.87V42.21C40.955 42.2767 40.8284 42.3233 40.7084 42.35C40.595 42.3767 40.4717 42.39 40.3384 42.39C40.0784 42.39 39.8684 42.3267 39.7084 42.2C39.5484 42.0733 39.4684 41.85 39.4684 41.53V38.51Z" fill="#222322"/>
<defs>
<clipPath id="clip0">
<rect width="24" height="24" fill="white" transform="translate(9)"/>
</clipPath>
</defs>
</svg>
