<svg width="18" height="23" viewBox="0 0 18 23" fill="none" xmlns="http://www.w3.org/2000/svg">
    <path d="M0.903114 21.1707L0.903113 21.1707C0.883637 21.4068 0.956143 21.6421 1.10529 21.8193C1.25471 21.9968 1.46803 22.1 1.69386 22.1H16.3043H16.3043H16.3043H16.3043H16.3044H16.3044H16.3044H16.3044H16.3044H16.3044H16.3045H16.3045H16.3045H16.3045H16.3045H16.3045H16.3046H16.3046H16.3046H16.3046H16.3046H16.3046H16.3047H16.3047H16.3047H16.3047H16.3047H16.3048H16.3048H16.3048H16.3048H16.3048H16.3048H16.3049H16.3049H16.3049H16.3049H16.3049H16.3049H16.305H16.305H16.305H16.305H16.305H16.305H16.305H16.3051H16.3051H16.3051H16.3051H16.3051H16.3051H16.3052H16.3052H16.3052H16.3052H16.3052H16.3052H16.3053H16.3053H16.3053H16.3053H16.3053H16.3053H16.3053H16.3054H16.3054H16.3054H16.3054H16.3054H16.3054H16.3055H16.3055H16.3055H16.3055H16.3055H16.3055H16.3055H16.3056H16.3056H16.3056H16.3056H16.3056H16.3056H16.3057H16.3057H16.3057H16.3057H16.3057H16.3058H16.3058H16.3058H16.3058H16.3058H16.3058H16.3059H16.3059H16.3059H16.3059H16.3059H16.306H16.306H16.306H16.306H16.306H16.306H16.3061H16.3061H16.3061H16.3061H16.3061H16.3061C16.7523 22.1 17.1 21.7098 17.1 21.2462V21.246C17.0999 21.2005 17.0966 21.1554 17.09 21.1114L15.914 6.88371C15.8782 6.45017 15.5411 6.10563 15.1233 6.10563H12.7974V5.01711C12.7974 2.75481 11.1015 0.9 8.99972 0.9C6.89801 0.9 5.20229 2.75482 5.20229 5.01711V6.10563H2.8748C2.45694 6.10563 2.11988 6.45016 2.08406 6.88371C2.08406 6.88371 2.08406 6.88371 2.08406 6.88372L0.903114 21.1707ZM6.79001 5.01711C6.79001 3.68057 7.78904 2.60751 8.99981 2.60751C10.2107 2.60751 11.2098 3.68058 11.2098 5.01711V6.10563H6.79001V5.01711ZM14.3969 7.81314L15.4367 20.3926H2.56145L3.60125 7.81314H5.20229V9.06105C5.20229 9.52459 5.54999 9.91481 5.99615 9.91481C6.44231 9.91481 6.79001 9.52459 6.79001 9.06105V7.81314H11.2098V9.06105C11.2098 9.52459 11.5575 9.91481 12.0037 9.91481C12.4498 9.91481 12.7975 9.52459 12.7975 9.06105V7.81314H14.3969Z" fill="#000000" stroke="#000000" stroke-width="0.2"/>
</svg>
