<svg width="33" height="33" viewBox="0 0 33 33" fill="none" xmlns="http://www.w3.org/2000/svg">
<path d="M16.5 26C15.28 25.8354 14.1536 25.2619 13.3084 24.375C12.0004 23.18 10.8461 21.8297 9.87188 20.3547C7.48312 16.8447 6 13.0314 6 10.4C6 7.64175 7.10625 4.99647 9.07538 3.04609C11.0445 1.09571 13.7152 0 16.5 0C19.2848 0 21.9555 1.09571 23.9246 3.04609C25.8938 4.99647 27 7.64175 27 10.4C27 13.0303 25.5169 16.8448 23.1281 20.3537C22.1539 21.829 20.9997 23.1796 19.6916 24.375C18.8464 25.262 17.7201 25.8355 16.5 26ZM16.5 1.625C14.1511 1.62758 11.8992 2.55292 10.2384 4.19799C8.57746 5.84306 7.64323 8.07352 7.64062 10.4C7.64062 15.7083 14.1123 24.375 16.5 24.375C18.8877 24.375 25.3594 15.7083 25.3594 10.4C25.3568 8.07352 24.4225 5.84306 22.7616 4.19799C21.1008 2.55292 18.8489 1.62758 16.5 1.625Z" fill="#767676"/>
<path d="M16.5 15.1667C15.4184 15.1667 14.3611 14.849 13.4617 14.2538C12.5624 13.6586 11.8615 12.8126 11.4475 11.8229C11.0336 10.8331 10.9253 9.744 11.1363 8.69327C11.3473 7.64254 11.8682 6.67739 12.633 5.91985C13.3978 5.16232 14.3723 4.64643 15.4331 4.43743C16.4939 4.22842 17.5935 4.33569 18.5928 4.74567C19.5921 5.15564 20.4462 5.84991 21.0471 6.74067C21.648 7.63144 21.9688 8.6787 21.9688 9.75001C21.967 11.1861 21.3903 12.5628 20.3651 13.5783C19.3399 14.5937 17.9499 15.165 16.5 15.1667ZM16.5 5.95835C15.7429 5.95835 15.0027 6.18072 14.3732 6.59736C13.7437 7.01399 13.253 7.60617 12.9633 8.299C12.6735 8.99184 12.5977 9.75422 12.7454 10.4897C12.8931 11.2252 13.2577 11.9009 13.7931 12.4311C14.3285 12.9614 15.0106 13.3225 15.7532 13.4688C16.4958 13.6151 17.2655 13.54 17.965 13.2531C18.6645 12.9661 19.2623 12.4801 19.683 11.8566C20.1036 11.233 20.3281 10.4999 20.3281 9.75001C20.3281 8.7444 19.9248 7.77997 19.2069 7.0689C18.489 6.35782 17.5153 5.95835 16.5 5.95835Z" fill="#767676"/>
</svg>
