<svg width="21" height="26" viewBox="0 0 21 26" fill="none" xmlns="http://www.w3.org/2000/svg">
<path d="M10.5 26C9.27995 25.8354 8.15362 25.2619 7.30844 24.375C6.00038 23.18 4.84614 21.8297 3.87188 20.3547C1.48312 16.8447 0 13.0314 0 10.4C0 7.64175 1.10625 4.99647 3.07538 3.04609C5.04451 1.09571 7.71523 0 10.5 0C13.2848 0 15.9555 1.09571 17.9246 3.04609C19.8938 4.99647 21 7.64175 21 10.4C21 13.0303 19.5169 16.8448 17.1281 20.3537C16.1539 21.829 14.9997 23.1796 13.6916 24.375C12.8464 25.262 11.7201 25.8355 10.5 26ZM10.5 1.625C8.15115 1.62758 5.89924 2.55292 4.23835 4.19799C2.57746 5.84306 1.64323 8.07352 1.64062 10.4C1.64062 15.7083 8.11234 24.375 10.5 24.375C12.8877 24.375 19.3594 15.7083 19.3594 10.4C19.3568 8.07352 18.4225 5.84306 16.7616 4.19799C15.1008 2.55292 12.8489 1.62758 10.5 1.625Z" fill="#6D1F37"/>
<path d="M20.5001 10.5C18.1001 18.9 12.8334 23.6667 10.5001 25C7.00006 22.3333 0.100064 15.7 0.500064 10.5C0.900064 5.29999 6.00006 1.99999 8.50006 0.999995C13.5001 0.666661 19.5001 3 20.5001 10.5Z" fill="#6D1F37"/>
<path d="M10.5 15.1667C9.41839 15.1667 8.36106 14.849 7.46173 14.2538C6.5624 13.6586 5.86145 12.8126 5.44754 11.8229C5.03362 10.8331 4.92532 9.744 5.13633 8.69327C5.34735 7.64254 5.86819 6.67739 6.63301 5.91985C7.39783 5.16232 8.37227 4.64643 9.4331 4.43743C10.4939 4.22842 11.5935 4.33569 12.5928 4.74567C13.5921 5.15564 14.4462 5.84991 15.0471 6.74067C15.648 7.63144 15.9688 8.6787 15.9688 9.75001C15.967 11.1861 15.3903 12.5628 14.3651 13.5783C13.3399 14.5937 11.9499 15.165 10.5 15.1667ZM10.5 5.95835C9.74287 5.95835 9.00274 6.18072 8.37321 6.59736C7.74368 7.01399 7.25302 7.60617 6.96328 8.299C6.67353 8.99184 6.59772 9.75422 6.74543 10.4897C6.89314 11.2252 7.25774 11.9009 7.79311 12.4311C8.32848 12.9614 9.01059 13.3225 9.75317 13.4688C10.4958 13.6151 11.2655 13.54 11.965 13.2531C12.6645 12.9661 13.2623 12.4801 13.683 11.8566C14.1036 11.233 14.3281 10.4999 14.3281 9.75001C14.3281 8.7444 13.9248 7.77997 13.2069 7.0689C12.489 6.35782 11.5153 5.95835 10.5 5.95835Z" fill="white"/>
</svg>
