<svg width="33" height="47" viewBox="0 0 33 47" fill="none" xmlns="http://www.w3.org/2000/svg">
<path d="M16.5 26C15.28 25.8354 14.1536 25.2619 13.3084 24.375C12.0004 23.18 10.8461 21.8297 9.87188 20.3547C7.48312 16.8447 6 13.0314 6 10.4C6 7.64175 7.10625 4.99647 9.07538 3.04609C11.0445 1.09571 13.7152 0 16.5 0C19.2848 0 21.9555 1.09571 23.9246 3.04609C25.8938 4.99647 27 7.64175 27 10.4C27 13.0303 25.5169 16.8448 23.1281 20.3537C22.1539 21.829 20.9997 23.1796 19.6916 24.375C18.8464 25.262 17.7201 25.8355 16.5 26ZM16.5 1.625C14.1511 1.62758 11.8992 2.55292 10.2384 4.19799C8.57746 5.84306 7.64323 8.07352 7.64062 10.4C7.64062 15.7083 14.1123 24.375 16.5 24.375C18.8877 24.375 25.3594 15.7083 25.3594 10.4C25.3568 8.07352 24.4225 5.84306 22.7616 4.19799C21.1008 2.55292 18.8489 1.62758 16.5 1.625Z" fill="#767676"/>
<path d="M16.5 15.1667C15.4184 15.1667 14.3611 14.849 13.4617 14.2538C12.5624 13.6586 11.8615 12.8126 11.4475 11.8229C11.0336 10.8331 10.9253 9.744 11.1363 8.69327C11.3473 7.64254 11.8682 6.67739 12.633 5.91985C13.3978 5.16232 14.3723 4.64643 15.4331 4.43743C16.4939 4.22842 17.5935 4.33569 18.5928 4.74567C19.5921 5.15564 20.4462 5.84991 21.0471 6.74067C21.648 7.63144 21.9688 8.6787 21.9688 9.75001C21.967 11.1861 21.3903 12.5628 20.3651 13.5783C19.3399 14.5937 17.9499 15.165 16.5 15.1667ZM16.5 5.95835C15.7429 5.95835 15.0027 6.18072 14.3732 6.59736C13.7437 7.01399 13.253 7.60617 12.9633 8.299C12.6735 8.99184 12.5977 9.75422 12.7454 10.4897C12.8931 11.2252 13.2577 11.9009 13.7931 12.4311C14.3285 12.9614 15.0106 13.3225 15.7532 13.4688C16.4958 13.6151 17.2655 13.54 17.965 13.2531C18.6645 12.9661 19.2623 12.4801 19.683 11.8566C20.1036 11.233 20.3281 10.4999 20.3281 9.75001C20.3281 8.7444 19.9248 7.77997 19.2069 7.0689C18.489 6.35782 17.5153 5.95835 16.5 5.95835Z" fill="#767676"/>
<path d="M1.6 36.75C1.6 36.59 1.63333 36.44 1.7 36.3C1.77333 36.16 1.87333 36.04 2 35.94C2.13333 35.84 2.29 35.76 2.47 35.7C2.65667 35.64 2.86333 35.61 3.09 35.61C3.45 35.61 3.79333 35.67 4.12 35.79C4.45333 35.91 4.78333 36.1033 5.11 36.37L5.57 35.76C5.21 35.4733 4.83667 35.26 4.45 35.12C4.07 34.9733 3.62333 34.9 3.11 34.9C2.77667 34.9 2.47 34.95 2.19 35.05C1.91 35.1433 1.66667 35.2767 1.46 35.45C1.25333 35.6167 1.09333 35.8167 0.98 36.05C0.866667 36.2833 0.81 36.54 0.81 36.82C0.81 37.1133 0.856667 37.3667 0.95 37.58C1.04333 37.7933 1.18667 37.98 1.38 38.14C1.57333 38.3 1.81667 38.4367 2.11 38.55C2.41 38.6633 2.76 38.7633 3.16 38.85C3.52667 38.93 3.82667 39.0133 4.06 39.1C4.3 39.1867 4.48667 39.2833 4.62 39.39C4.75333 39.4967 4.84667 39.6167 4.9 39.75C4.95333 39.8767 4.98 40.0233 4.98 40.19C4.98 40.55 4.83667 40.84 4.55 41.06C4.27 41.28 3.89333 41.39 3.42 41.39C2.93333 41.39 2.50333 41.31 2.13 41.15C1.75667 40.9833 1.38667 40.7333 1.02 40.4L0.53 40.98C0.95 41.36 1.39 41.6433 1.85 41.83C2.31667 42.01 2.83 42.1 3.39 42.1C3.73667 42.1 4.05667 42.0533 4.35 41.96C4.64333 41.8667 4.89333 41.7333 5.1 41.56C5.31333 41.3867 5.48 41.1767 5.6 40.93C5.72 40.6833 5.78 40.41 5.78 40.11C5.78 39.57 5.59333 39.1467 5.22 38.84C4.85333 38.5333 4.28 38.2933 3.5 38.12C3.11333 38.04 2.79667 37.9567 2.55 37.87C2.30333 37.7767 2.11 37.6767 1.97 37.57C1.83 37.4567 1.73333 37.3333 1.68 37.2C1.62667 37.0667 1.6 36.9167 1.6 36.75ZM8.24766 37.51H9.88766V36.83H8.24766V35.27H7.47766V36.83H6.75766V37.51H7.47766V40.63C7.47766 40.89 7.51432 41.1133 7.58766 41.3C7.66099 41.4867 7.76099 41.64 7.88766 41.76C8.02099 41.8733 8.17766 41.9567 8.35766 42.01C8.53766 42.0633 8.73099 42.09 8.93766 42.09C9.12432 42.09 9.29099 42.07 9.43766 42.03C9.59099 41.9967 9.73432 41.9433 9.86766 41.87V41.21C9.73432 41.2767 9.60766 41.3233 9.48766 41.35C9.37432 41.3767 9.25099 41.39 9.11766 41.39C8.85766 41.39 8.64766 41.3267 8.48766 41.2C8.32766 41.0733 8.24766 40.85 8.24766 40.53V37.51ZM16.1741 39.41C16.1741 39.0433 16.1075 38.6967 15.9741 38.37C15.8408 38.0433 15.6541 37.76 15.4141 37.52C15.1741 37.2733 14.8875 37.08 14.5541 36.94C14.2275 36.7933 13.8708 36.72 13.4841 36.72C13.0908 36.72 12.7275 36.7933 12.3941 36.94C12.0675 37.08 11.7841 37.2733 11.5441 37.52C11.3041 37.7667 11.1175 38.0567 10.9841 38.39C10.8508 38.7167 10.7841 39.0633 10.7841 39.43C10.7841 39.7967 10.8508 40.1433 10.9841 40.47C11.1175 40.7967 11.3041 41.0833 11.5441 41.33C11.7841 41.57 12.0675 41.7633 12.3941 41.91C12.7208 42.05 13.0775 42.12 13.4641 42.12C13.8508 42.12 14.2108 42.05 14.5441 41.91C14.8775 41.7633 15.1641 41.5667 15.4041 41.32C15.6441 41.0733 15.8308 40.7867 15.9641 40.46C16.1041 40.1267 16.1741 39.7767 16.1741 39.41ZM15.3841 39.43C15.3841 39.71 15.3375 39.9733 15.2441 40.22C15.1508 40.46 15.0208 40.67 14.8541 40.85C14.6875 41.03 14.4875 41.1733 14.2541 41.28C14.0208 41.38 13.7641 41.43 13.4841 41.43C13.2108 41.43 12.9575 41.3767 12.7241 41.27C12.4908 41.1633 12.2875 41.02 12.1141 40.84C11.9475 40.66 11.8141 40.4467 11.7141 40.2C11.6208 39.9533 11.5741 39.69 11.5741 39.41C11.5741 39.13 11.6208 38.87 11.7141 38.63C11.8075 38.3833 11.9341 38.17 12.0941 37.99C12.2608 37.8033 12.4608 37.66 12.6941 37.56C12.9275 37.4533 13.1841 37.4 13.4641 37.4C13.7375 37.4 13.9908 37.4533 14.2241 37.56C14.4575 37.6667 14.6608 37.8133 14.8341 38C15.0075 38.18 15.1408 38.3933 15.2341 38.64C15.3341 38.8867 15.3841 39.15 15.3841 39.43ZM18.339 39.94C18.339 39.5533 18.3923 39.2133 18.499 38.92C18.6057 38.62 18.7523 38.37 18.939 38.17C19.1257 37.97 19.3423 37.82 19.589 37.72C19.8423 37.62 20.109 37.57 20.389 37.57H20.449V36.74C20.2023 36.7333 19.9723 36.7633 19.759 36.83C19.5457 36.8967 19.349 36.9967 19.169 37.13C18.989 37.2567 18.829 37.41 18.689 37.59C18.549 37.77 18.4323 37.9667 18.339 38.18V36.83H17.569V42H18.339V39.94ZM21.8571 39.7H25.9571C25.9638 39.6533 25.9671 39.61 25.9671 39.57C25.9671 39.53 25.9671 39.4933 25.9671 39.46C25.9671 39.08 25.9138 38.7233 25.8071 38.39C25.7004 38.0567 25.5438 37.7667 25.3371 37.52C25.1304 37.2733 24.8771 37.08 24.5771 36.94C24.2771 36.7933 23.9371 36.72 23.5571 36.72C23.1971 36.72 22.8638 36.79 22.5571 36.93C22.2571 37.07 21.9971 37.2633 21.7771 37.51C21.5571 37.75 21.3838 38.0367 21.2571 38.37C21.1371 38.6967 21.0771 39.0467 21.0771 39.42C21.0771 39.82 21.1438 40.1867 21.2771 40.52C21.4171 40.8533 21.6038 41.14 21.8371 41.38C22.0704 41.6133 22.3438 41.7967 22.6571 41.93C22.9704 42.0567 23.3038 42.12 23.6571 42.12C24.1504 42.12 24.5638 42.0333 24.8971 41.86C25.2304 41.68 25.5271 41.4433 25.7871 41.15L25.3071 40.72C25.0938 40.94 24.8571 41.1167 24.5971 41.25C24.3438 41.3833 24.0371 41.45 23.6771 41.45C23.4504 41.45 23.2338 41.4133 23.0271 41.34C22.8204 41.26 22.6338 41.1467 22.4671 41C22.3004 40.8467 22.1638 40.6633 22.0571 40.45C21.9504 40.23 21.8838 39.98 21.8571 39.7ZM21.8571 39.13C21.8838 38.8767 21.9438 38.6433 22.0371 38.43C22.1304 38.2167 22.2504 38.0333 22.3971 37.88C22.5438 37.72 22.7138 37.5967 22.9071 37.51C23.1004 37.4167 23.3104 37.37 23.5371 37.37C23.7971 37.37 24.0238 37.42 24.2171 37.52C24.4171 37.6133 24.5838 37.74 24.7171 37.9C24.8571 38.06 24.9638 38.2467 25.0371 38.46C25.1171 38.6733 25.1671 38.8967 25.1871 39.13H21.8571ZM30.8651 40.55V40.53C30.8651 40.2967 30.8151 40.1 30.7151 39.94C30.6217 39.78 30.4951 39.6433 30.3351 39.53C30.1751 39.4167 29.9951 39.3233 29.7951 39.25C29.6017 39.1767 29.4051 39.11 29.2051 39.05C29.0317 38.9967 28.8651 38.9433 28.7051 38.89C28.5451 38.8367 28.4017 38.7767 28.2751 38.71C28.1551 38.6433 28.0584 38.5667 27.9851 38.48C27.9117 38.3867 27.8751 38.28 27.8751 38.16V38.14C27.8751 37.9267 27.9651 37.75 28.1451 37.61C28.3251 37.4633 28.5684 37.39 28.8751 37.39C29.1284 37.39 29.3851 37.4367 29.6451 37.53C29.9117 37.6167 30.1651 37.7367 30.4051 37.89L30.7551 37.31C30.4884 37.1367 30.1917 37 29.8651 36.9C29.5384 36.7933 29.2151 36.74 28.8951 36.74C28.6417 36.74 28.4051 36.7767 28.1851 36.85C27.9717 36.9167 27.7851 37.0167 27.6251 37.15C27.4717 37.2767 27.3517 37.4333 27.2651 37.62C27.1784 37.8 27.1351 38 27.1351 38.22V38.24C27.1351 38.48 27.1851 38.68 27.2851 38.84C27.3917 39 27.5251 39.1333 27.6851 39.24C27.8517 39.3467 28.0351 39.4367 28.2351 39.51C28.4417 39.5767 28.6451 39.64 28.8451 39.7C29.0117 39.7467 29.1717 39.7967 29.3251 39.85C29.4851 39.9033 29.6251 39.9667 29.7451 40.04C29.8651 40.1067 29.9584 40.1867 30.0251 40.28C30.0984 40.3733 30.1351 40.4833 30.1351 40.61V40.63C30.1351 40.8833 30.0351 41.0833 29.8351 41.23C29.6351 41.3767 29.3784 41.45 29.0651 41.45C28.7584 41.45 28.4517 41.3933 28.1451 41.28C27.8451 41.1667 27.5551 41.0033 27.2751 40.79L26.8851 41.34C27.1784 41.5733 27.5151 41.76 27.8951 41.9C28.2751 42.0333 28.6517 42.1 29.0251 42.1C29.2851 42.1 29.5251 42.0667 29.7451 42C29.9717 41.9267 30.1651 41.8233 30.3251 41.69C30.4917 41.5567 30.6217 41.3967 30.7151 41.21C30.8151 41.0167 30.8651 40.7967 30.8651 40.55Z" fill="#222322"/>
</svg>
