<svg width="50" height="35" viewBox="0 0 50 35" fill="none" xmlns="http://www.w3.org/2000/svg">
<rect x="0.5" y="0.5" width="49" height="34" rx="3.5" fill="#006FCF" stroke="#F3F3F3"/>
<path fill-rule="evenodd" clip-rule="evenodd" d="M10.2268 25.2823V18.0771H18.2645L19.1268 19.1441L20.0177 18.0771H49.1924V24.7854C49.1924 24.7854 48.4294 25.2751 47.547 25.2823H31.3924L30.4201 24.1465V25.2823H27.2341V23.3434C27.2341 23.3434 26.7988 23.6141 25.8579 23.6141H24.7735V25.2823H19.9495L19.0884 24.1924L18.2141 25.2823H10.2268ZM0.862305 12.6465L2.67071 8.63574H5.79817L6.82446 10.8824V8.63574H10.7122L11.3231 10.2596L11.9154 8.63574H29.3672V9.4521C29.3672 9.4521 30.2847 8.63574 31.7924 8.63574L37.4549 8.65457L38.4634 10.8718V8.63574H41.7169L42.6123 9.90939V8.63574H45.8956V15.841H42.6123L41.7542 14.5632V15.841H36.9742L36.4935 14.7052H35.2084L34.7356 15.841H31.4939C30.1966 15.841 29.3672 15.0413 29.3672 15.0413V15.841H24.4796L23.5095 14.7052V15.841H5.33486L4.85449 14.7052H3.57355L3.09658 15.841H0.862305V12.6465ZM0.871921 14.919L3.31107 9.52399H5.16025L7.59707 14.919H5.97408L5.52636 13.8387H2.90999L2.45993 14.919H0.871921ZM5.0107 12.6674L4.2132 10.7796L3.41336 12.6674H5.0107ZM7.76476 14.9181V9.52308L10.0214 9.53105L11.334 13.0094L12.6151 9.52308H14.8537V14.9181H13.4359V10.9428L11.933 14.9181H10.6896L9.18255 10.9428V14.9181H7.76476ZM15.8238 14.9181V9.52308H20.4502V10.7299H17.2565V11.6527H20.3756V12.7885H17.2565V13.7468H20.4502V14.9181H15.8238ZM21.2712 14.919V9.52399H24.4262C25.4717 9.52399 26.4083 10.139 26.4083 11.2743C26.4083 12.2448 25.6186 12.8699 24.853 12.9314L26.7185 14.919H24.9859L23.286 13.0024H22.689V14.919H21.2712ZM24.3097 10.7308H22.6891V11.8666H24.3307C24.6149 11.8666 24.9813 11.6571 24.9813 11.2987C24.9813 11.0201 24.6985 10.7308 24.3097 10.7308ZM28.4342 14.9181H26.9865V9.52308H28.4342V14.9181ZM31.8673 14.9181H31.5548C30.0429 14.9181 29.125 13.785 29.125 12.2428C29.125 10.6625 30.0327 9.52308 31.9419 9.52308H33.5089V10.8009H31.8846C31.1096 10.8009 30.5614 11.3763 30.5614 12.2561C30.5614 13.3009 31.1882 13.7397 32.0912 13.7397H32.4643L31.8673 14.9181ZM32.513 14.919L34.9522 9.52399H36.8013L39.2382 14.919H37.6152L37.1675 13.8387H34.5511L34.101 14.919H32.513ZM36.652 12.6674L35.8545 10.7796L35.0546 12.6674H36.652ZM39.404 14.9181V9.52308H41.2065L43.5081 12.9127V9.52308H44.9258V14.9181H43.1816L40.8217 11.4397V14.9181H39.404ZM11.1974 24.3594V18.9644H15.8239V20.1712H12.6301V21.094H15.7492V22.2298H12.6301V23.1881H15.8239V24.3594H11.1974ZM33.867 24.3594V18.9644H38.4935V20.1712H35.2997V21.094H38.4039V22.2298H35.2997V23.1881H38.4935V24.3594H33.867ZM16.0032 24.3594L18.2558 21.6952L15.9495 18.9644H17.7358L19.1092 20.6526L20.4874 18.9644H22.2036L19.9277 21.6619L22.1845 24.3594H20.3985L19.0649 22.6979L17.7637 24.3594H16.0032ZM22.3529 24.3603V18.9653H25.4846C26.7696 18.9653 27.5203 19.7532 27.5203 20.7799C27.5203 22.0193 26.5631 22.6566 25.3004 22.6566H23.808V24.3603H22.3529ZM25.3797 20.1854H23.808V21.4277H25.375C25.7891 21.4277 26.0792 21.1666 26.0792 20.8065C26.0792 20.4233 25.7876 20.1854 25.3797 20.1854ZM28.1361 24.3594V18.9644H31.2912C32.3366 18.9644 33.2733 19.5794 33.2733 20.7147C33.2733 21.6852 32.4835 22.3103 31.7179 22.3718L33.5834 24.3594H31.8508L30.1509 22.4428H29.5539V24.3594H28.1361ZM31.1747 20.1712H29.554V21.307H31.1957C31.4798 21.307 31.8463 21.0975 31.8463 20.7391C31.8463 20.4605 31.5634 20.1712 31.1747 20.1712ZM39.15 24.3594V23.1881H41.9874C42.4073 23.1881 42.5891 22.9723 42.5891 22.7356C42.5891 22.5088 42.4079 22.2795 41.9874 22.2795H40.7052C39.5907 22.2795 38.97 21.6335 38.97 20.6637C38.97 19.7986 39.5384 18.9644 41.1946 18.9644H43.9556L43.3586 20.1783H40.9707C40.5143 20.1783 40.3738 20.4061 40.3738 20.6237C40.3738 20.8474 40.5474 21.094 40.8961 21.094H42.2393C43.4817 21.094 44.0208 21.7645 44.0208 22.6424C44.0208 23.5863 43.4201 24.3594 42.1716 24.3594H39.15ZM44.1457 24.3594V23.1881H46.9831C47.403 23.1881 47.5848 22.9723 47.5848 22.7356C47.5848 22.5088 47.4035 22.2795 46.9831 22.2795H45.7009C44.5864 22.2795 43.9657 21.6335 43.9657 20.6637C43.9657 19.7986 44.5341 18.9644 46.1903 18.9644H48.9512L48.3543 20.1783H45.9664C45.51 20.1783 45.3695 20.4061 45.3695 20.6237C45.3695 20.8474 45.5431 21.094 45.8918 21.094H47.235C48.4774 21.094 49.0165 21.7645 49.0165 22.6424C49.0165 23.5863 48.4158 24.3594 47.1673 24.3594H44.1457Z" fill="white"/>
</svg>
