<svg width="42" height="42" viewBox="0 0 42 42" fill="none" xmlns="http://www.w3.org/2000/svg">
<path d="M21 3.26667C30.8 3.26667 38.7333 11.2 38.7333 21C38.7333 25.6667 36.96 30.0533 33.6933 33.3667C30.4733 36.68 26.1333 38.5467 21.5133 38.6867H3.26667V20.8133C3.36 11.1067 11.2933 3.26667 21 3.26667ZM21 0C9.47333 0 0.0933333 9.28667 0 20.8133V42H21.56C32.9 41.6733 42 32.3867 42 21C42 9.38 32.62 0 21 0Z" fill="#C9B17B"/>
<path d="M23.2401 12.1333C23.2401 12.74 23.0068 13.2533 22.5401 13.72C22.0735 14.14 21.5601 14.3733 20.9068 14.3733C20.5802 14.3733 20.3002 14.3267 20.0202 14.1867C19.7402 14.0467 19.5068 13.9067 19.2735 13.72C19.0402 13.5333 18.9002 13.3 18.7602 13.02C18.6202 12.74 18.5735 12.46 18.5735 12.18C18.5735 11.9 18.6202 11.6667 18.7602 11.3867C18.9002 11.1067 19.0402 10.92 19.2735 10.6867C19.5068 10.5 19.7402 10.3133 20.0202 10.22C20.3002 10.08 20.5802 10.0333 20.9068 10.0333C21.2335 10.0333 21.5135 10.08 21.7935 10.22C22.0735 10.36 22.3068 10.5 22.5401 10.6867C22.7735 10.8733 22.9135 11.1067 23.0535 11.34C23.1935 11.5733 23.2401 11.8533 23.2401 12.1333ZM23.0068 29.4467C23.0068 30.1 22.8201 30.6133 22.4468 30.9867C22.0735 31.36 21.5602 31.5933 20.9535 31.5933C20.3468 31.5933 19.8335 31.4067 19.4602 30.9867C19.0868 30.6133 18.9002 30.0533 18.9002 29.4467V18.76C18.9002 18.1067 19.0868 17.5933 19.4602 17.1733C19.8335 16.8 20.3468 16.5667 20.9535 16.5667C21.5602 16.5667 22.0735 16.7533 22.4468 17.1733C22.8201 17.5467 23.0068 18.1067 23.0068 18.76V29.4467Z" fill="#C9B17B"/>
</svg>
