<svg width="26" height="26" viewBox="0 0 26 26" fill="none" xmlns="http://www.w3.org/2000/svg">
<g clip-path="url(#clip0)">
<path d="M25.6781 12.3774L22.8962 10.4161C22.3921 10.0608 21.6954 10.4226 21.6954 11.0387V12.2382H8.33794C7.91727 12.2382 7.57617 12.5793 7.57617 13C7.57617 13.4207 7.91727 13.7617 8.33794 13.7617H21.6953V14.9612C21.6953 15.5813 22.3957 15.9364 22.896 15.5838L25.678 13.6225C26.1028 13.3232 26.1114 12.6835 25.6781 12.3774Z" fill="white"/>
<path d="M21.8599 17.8911C21.4958 17.6806 21.0297 17.8049 20.819 18.1691C19.0297 21.2625 15.6849 23.3392 11.8627 23.3392C6.16164 23.3392 1.52349 18.701 1.52349 13C1.52349 7.299 6.16164 2.66085 11.8627 2.66085C15.6874 2.66085 19.0307 4.73948 20.819 7.83083C21.0296 8.19504 21.4958 8.3193 21.8598 8.10881C22.224 7.89817 22.3484 7.43215 22.1378 7.068C20.0798 3.51037 16.2362 1.13736 11.8627 1.13736C5.30613 1.13736 0 6.44293 0 13C0 19.5565 5.30557 24.8627 11.8627 24.8627C16.2381 24.8627 20.0807 22.488 22.1378 18.9319C22.3484 18.5678 22.224 18.1018 21.8599 17.8911Z" fill="white"/>
</g>
<defs>
<clipPath id="clip0">
<rect width="26" height="26" fill="white"/>
</clipPath>
</defs>
</svg>
