<svg width="50" height="35" viewBox="0 0 50 35" fill="none" xmlns="http://www.w3.org/2000/svg">
<rect x="0.5" y="0.5" width="49" height="34" rx="3.5" fill="white" stroke="#E0E0E0"/>
<path fill-rule="evenodd" clip-rule="evenodd" d="M18.3181 27.0292V28.3215V29.6137H17.7601V29.2999C17.5831 29.5327 17.3145 29.6787 16.9495 29.6787C16.2298 29.6787 15.6657 29.1112 15.6657 28.3215C15.6657 27.5324 16.2298 26.9642 16.9495 26.9642C17.3145 26.9642 17.5831 27.1103 17.7601 27.343V27.0292H18.3181ZM17.0191 27.494C16.5361 27.494 16.2405 27.8672 16.2405 28.3215C16.2405 28.7757 16.5361 29.1489 17.0191 29.1489C17.4806 29.1489 17.7922 28.7918 17.7922 28.3215C17.7922 27.8511 17.4806 27.494 17.0191 27.494ZM37.1747 28.3215C37.1747 27.8672 37.4703 27.494 37.9533 27.494C38.4155 27.494 38.7265 27.8511 38.7265 28.3215C38.7265 28.7918 38.4155 29.1489 37.9533 29.1489C37.4703 29.1489 37.1747 28.7757 37.1747 28.3215ZM39.2534 25.9913V28.3215V29.6137H38.6948V29.2999C38.5178 29.5327 38.2492 29.6787 37.8842 29.6787C37.1645 29.6787 36.6004 29.1112 36.6004 28.3215C36.6004 27.5324 37.1645 26.9642 37.8842 26.9642C38.2492 26.9642 38.5178 27.1103 38.6948 27.343V25.9913H39.2534ZM25.2448 27.4674C25.6043 27.4674 25.8354 27.6945 25.8944 28.0943H24.5627C24.6223 27.7211 24.8472 27.4674 25.2448 27.4674ZM23.9774 28.3215C23.9774 27.5157 24.5035 26.9642 25.2557 26.9642C25.9747 26.9642 26.4688 27.5157 26.4743 28.3215C26.4743 28.397 26.4688 28.4675 26.4633 28.5375L24.5576 28.5375C24.6381 29.0029 24.9656 29.1706 25.3251 29.1706C25.5826 29.1706 25.8567 29.0728 26.0718 28.9001L26.3453 29.3167C26.0337 29.5815 25.6797 29.6787 25.2932 29.6787C24.525 29.6787 23.9774 29.1434 23.9774 28.3215ZM31.9937 28.3215C31.9937 27.8672 32.2893 27.494 32.7723 27.494C33.2338 27.494 33.5454 27.8511 33.5454 28.3215C33.5454 28.7918 33.2338 29.1489 32.7723 29.1489C32.2893 29.1489 31.9937 28.7757 31.9937 28.3215ZM34.0715 27.0292V28.3215V29.6137H33.5135V29.2999C33.3358 29.5327 33.0679 29.6787 32.7029 29.6787C31.9832 29.6787 31.4191 29.1112 31.4191 28.3215C31.4191 27.5324 31.9832 26.9642 32.7029 26.9642C33.0679 26.9642 33.3358 27.1103 33.5135 27.343V27.0292H34.0715ZM28.8421 28.3215C28.8421 29.1056 29.3841 29.6787 30.2113 29.6787C30.5979 29.6787 30.8554 29.5921 31.1344 29.3705L30.8664 28.9162C30.6569 29.0679 30.4368 29.1489 30.1947 29.1489C29.7492 29.1434 29.4216 28.8191 29.4216 28.3215C29.4216 27.8239 29.7492 27.4996 30.1947 27.494C30.4368 27.494 30.6569 27.5751 30.8664 27.7267L31.1344 27.2724C30.8554 27.0509 30.5979 26.9642 30.2113 26.9642C29.3841 26.9642 28.8421 27.5373 28.8421 28.3215ZM35.3599 27.343C35.505 27.1159 35.7145 26.9642 36.0366 26.9642C36.1496 26.9642 36.3106 26.9859 36.4342 27.0348L36.2621 27.5646C36.1441 27.5157 36.0261 27.4996 35.913 27.4996C35.548 27.4996 35.3655 27.7372 35.3655 28.1649V29.6137H34.8068V27.0292H35.3599V27.343ZM21.0781 27.2347C20.8096 27.0564 20.4396 26.9642 20.0315 26.9642C19.3813 26.9642 18.9628 27.278 18.9628 27.7917C18.9628 28.2132 19.2744 28.4731 19.8484 28.5542L20.112 28.5919C20.4181 28.6352 20.5625 28.7163 20.5625 28.8624C20.5625 29.0623 20.3585 29.1762 19.9775 29.1762C19.5909 29.1762 19.3119 29.0518 19.1239 28.9057L18.8608 29.3433C19.1669 29.5704 19.5534 29.6787 19.9719 29.6787C20.7131 29.6787 21.1426 29.3272 21.1426 28.8352C21.1426 28.3809 20.8046 28.1432 20.246 28.0621L19.983 28.0238C19.7415 27.9916 19.5479 27.9433 19.5479 27.77C19.5479 27.5806 19.7304 27.4674 20.0365 27.4674C20.364 27.4674 20.6811 27.5918 20.8366 27.689L21.0781 27.2347ZM27.6019 27.343C27.7463 27.1159 27.9559 26.9642 28.2779 26.9642C28.391 26.9642 28.552 26.9859 28.6755 27.0348L28.5034 27.5646C28.3854 27.5157 28.2674 27.4996 28.1544 27.4996C27.7893 27.4996 27.6068 27.7372 27.6068 28.1649V29.6137H27.0488V27.0292L27.6019 27.0292V27.343ZM23.5158 27.0292H22.6032V26.2451H22.039V27.0292H21.5185V27.5429H22.039V28.7219C22.039 29.3216 22.2701 29.6787 22.9301 29.6787C23.1722 29.6787 23.4512 29.6032 23.6282 29.4788L23.4672 28.9973C23.3007 29.0945 23.1181 29.1434 22.9731 29.1434C22.6941 29.1434 22.6032 28.9701 22.6032 28.7108V27.5429H23.5158V27.0292ZM15.1722 27.9916V29.6137H14.608V28.1754C14.608 27.7372 14.4255 27.494 14.0445 27.494C13.6739 27.494 13.4164 27.7323 13.4164 28.181V29.6137H12.8523V28.1754C12.8523 27.7372 12.6648 27.494 12.2943 27.494C11.9126 27.494 11.6656 27.7323 11.6656 28.181V29.6137H11.1021V27.0292H11.6607V27.3479C11.8702 27.0453 12.1382 26.9642 12.4123 26.9642C12.8043 26.9642 13.0834 27.1375 13.2603 27.4241C13.4969 27.0614 13.8349 26.9587 14.1625 26.9642C14.7856 26.9698 15.1722 27.3807 15.1722 27.9916Z" fill="#231F20"/>
<path d="M29.351 22.6376H20.8936V7.33105H29.351V22.6376Z" fill="#FF5F00"/>
<path d="M21.4297 14.9846C21.4297 11.8796 22.8733 9.11372 25.1213 7.33129C23.4774 6.02789 21.4027 5.24994 19.1479 5.24994C13.8099 5.24994 9.48291 9.60822 9.48291 14.9846C9.48291 20.361 13.8099 24.7192 19.1479 24.7192C21.4027 24.7192 23.4774 23.9413 25.1213 22.6379C22.8733 20.8555 21.4297 18.0896 21.4297 14.9846Z" fill="#EB001B"/>
<path d="M40.7601 14.9846C40.7601 20.361 36.4331 24.7192 31.0951 24.7192C28.8403 24.7192 26.7656 23.9413 25.1211 22.6379C27.3697 20.8555 28.8133 18.0896 28.8133 14.9846C28.8133 11.8796 27.3697 9.11372 25.1211 7.33129C26.7656 6.02789 28.8403 5.24994 31.0951 5.24994C36.4331 5.24994 40.7601 9.60822 40.7601 14.9846Z" fill="#F79E1B"/>
</svg>
