<svg width="54" height="54" viewBox="0 0 54 54" fill="none" xmlns="http://www.w3.org/2000/svg">
<path d="M27 54C41.9117 54 54 41.9117 54 27C54 12.0883 41.9117 0 27 0C12.0883 0 0 12.0883 0 27C0 41.9117 12.0883 54 27 54Z" fill="#C9B17B"/>
<path fill-rule="evenodd" clip-rule="evenodd" d="M25.8614 23.3389C26.3795 22.6407 26.5653 21.9048 25.9793 21.2553C24.6644 19.4153 23.78 18.2775 23.2253 17.7295C22.1708 16.6878 20.436 16.8287 19.5227 17.7286C19.0321 18.212 18.866 18.378 18.3623 18.8896C15.5567 21.6967 17.2677 27.631 21.8163 32.184C26.3638 36.736 32.2975 38.4479 35.109 35.6348C35.5738 35.1867 35.9673 34.793 36.2777 34.465C37.1727 33.5189 37.3086 31.8607 36.2718 30.7834C35.7402 30.2311 34.6552 29.3894 32.7378 28.0179C32.1506 27.4928 31.4543 27.6066 30.8159 28.0254C30.5089 28.2269 30.2854 28.4307 29.8634 28.853L29.0972 29.6197C28.9963 29.7207 27.6259 29.0344 26.2956 27.7028C24.9646 26.3705 24.2788 25 24.3792 24.8996L25.146 24.1324C25.2799 23.9984 25.3439 23.9335 25.426 23.8472C25.597 23.6675 25.7386 23.5044 25.8614 23.3389ZM30.5106 31.0339L31.277 30.2671C31.5092 30.0346 31.6597 29.8917 31.7822 29.7932C33.4618 30.9994 34.4346 31.7578 34.8319 32.1707C35.0705 32.4185 35.0334 32.8708 34.8261 33.09C34.5391 33.3934 34.1662 33.7664 33.7086 34.2078C31.8906 36.0266 27.1008 34.6447 23.23 30.7701C19.358 26.8943 17.9768 22.1038 19.7811 20.2985C20.2827 19.789 20.4417 19.6301 20.9252 19.1536C21.1065 18.975 21.6004 18.9349 21.821 19.1527C22.248 19.5746 23.0402 20.589 24.2056 22.2123C24.1453 22.2872 24.0699 22.3719 23.9782 22.4682C23.9109 22.539 23.8548 22.5958 23.7323 22.7185L22.9662 23.4849C21.6631 24.788 22.7729 27.0057 24.8819 29.1167C26.9894 31.2263 29.2079 32.3373 30.5106 31.0339Z" fill="white"/>
</svg>
