<svg width="50" height="35" viewBox="0 0 50 35" fill="none" xmlns="http://www.w3.org/2000/svg">
<rect x="0.5" y="0.5" width="49" height="34" rx="3.5" fill="white" stroke="#E0E0E0"/>
<path d="M22.2 24.004H18.8711L20.9532 11.7534H24.2819L22.2 24.004Z" fill="#15195A"/>
<path d="M34.2669 12.0528C33.6103 11.8049 32.5689 11.5312 31.2812 11.5312C27.9938 11.5312 25.6789 13.1993 25.6647 15.5842C25.6374 17.3437 27.3221 18.321 28.5822 18.9077C29.8701 19.5072 30.3079 19.8985 30.3079 20.4329C30.2948 21.2536 29.2672 21.6319 28.3088 21.6319C26.9797 21.6319 26.2676 21.4369 25.1854 20.9803L24.7471 20.7845L24.2812 23.5345C25.062 23.873 26.5004 24.1733 27.9938 24.1865C31.4867 24.1865 33.7607 22.5442 33.7876 20.0028C33.8009 18.6082 32.9113 17.5396 30.9934 16.6664C29.8291 16.1059 29.1161 15.728 29.1161 15.1544C29.1297 14.6331 29.7192 14.099 31.0335 14.099C32.1157 14.0729 32.9108 14.3204 33.5131 14.5681L33.8142 14.6982L34.2669 12.0528Z" fill="#15195A"/>
<path fill-rule="evenodd" clip-rule="evenodd" d="M40.2255 11.7534H42.8004L45.4859 24.0039H42.4037C42.4037 24.0039 42.1021 22.5963 42.0065 22.1662H37.7325C37.6089 22.4918 37.0339 24.0039 37.0339 24.0039H33.541L38.4856 12.7699C38.8282 11.9748 39.4315 11.7534 40.2255 11.7534ZM40.0205 16.2365C40.0205 16.2365 38.9656 18.9603 38.6915 19.6641H41.4584C41.3215 19.0516 40.6912 16.1192 40.6912 16.1192L40.4585 15.0636C40.3605 15.3354 40.2189 15.7091 40.1233 15.9612C40.0585 16.1321 40.0149 16.247 40.0205 16.2365Z" fill="#15195A"/>
<path fill-rule="evenodd" clip-rule="evenodd" d="M4.44737 11.7534H9.80319C10.5291 11.7792 11.1182 12.0008 11.3099 12.7832L12.4733 18.4092C12.4737 18.4105 12.4741 18.4117 12.4745 18.4129L12.8307 20.1072L16.0908 11.7534H19.6108L14.3784 23.991H10.8582L7.8912 13.3465C6.86742 12.7769 5.69898 12.3188 4.39258 12.0009L4.44737 11.7534Z" fill="#15195A"/>
</svg>
