<?xml version="1.0" encoding="UTF-8" standalone="no"?>
<!DOCTYPE svg PUBLIC "-//W3C//DTD SVG 1.1//EN" "http://www.w3.org/Graphics/SVG/1.1/DTD/svg11.dtd">
<svg width="100%" height="100%" viewBox="0 0 24 24" version="1.1" xmlns="http://www.w3.org/2000/svg" xmlns:xlink="http://www.w3.org/1999/xlink" xml:space="preserve" xmlns:serif="http://www.serif.com/" style="fill-rule:evenodd;clip-rule:evenodd;stroke-linejoin:round;stroke-miterlimit:2;">
    <g transform="matrix(1,0,0,1,-5.25,0.0497459)">
        <path d="M22.309,23.95L12.191,23.95C11.772,23.958 11.367,23.799 11.064,23.508C10.762,23.218 10.586,22.819 10.577,22.4L9.677,8.664C9.206,8.577 8.781,8.327 8.474,7.959C8.168,7.591 8,7.127 8,6.648L8,5.248C8.003,4.802 8.152,4.37 8.422,4.016C8.693,3.662 9.071,3.405 9.5,3.285L9.5,1.529C9.501,1.124 9.662,0.735 9.948,0.448C10.235,0.162 10.624,0.001 11.029,0L23.529,1C23.925,1.013 24.301,1.179 24.576,1.465C24.851,1.751 25.003,2.133 25,2.529L25,3.285C25.43,3.406 25.808,3.663 26.079,4.018C26.35,4.373 26.497,4.806 26.5,5.252L26.5,6.652C26.5,7.13 26.332,7.593 26.026,7.961C25.721,8.328 25.296,8.577 24.826,8.665L23.921,22.449C23.919,22.639 23.88,22.828 23.805,23.003C23.73,23.178 23.622,23.336 23.485,23.469C23.172,23.778 22.749,23.951 22.309,23.95ZM11.177,8.7L12.077,22.348C12.077,22.363 12.08,22.377 12.086,22.39C12.092,22.403 12.1,22.415 12.111,22.425C12.122,22.434 12.135,22.441 12.149,22.445C12.163,22.449 12.178,22.45 12.192,22.448L22.309,22.448C22.331,22.45 22.353,22.446 22.373,22.436C22.393,22.427 22.41,22.412 22.423,22.394L23.323,8.694L11.177,8.7ZM10.051,4.7C9.979,4.7 9.907,4.715 9.84,4.742C9.773,4.77 9.712,4.811 9.661,4.862C9.61,4.914 9.569,4.975 9.542,5.042C9.514,5.109 9.5,5.181 9.5,5.253L9.5,6.653C9.5,6.799 9.558,6.939 9.661,7.043C9.765,7.146 9.905,7.205 10.051,7.205L24.451,7.205C24.524,7.205 24.596,7.19 24.663,7.162C24.729,7.133 24.79,7.092 24.841,7.041C24.892,6.989 24.933,6.927 24.96,6.86C24.987,6.793 25.001,6.721 25,6.648L25,5.248C25,5.176 24.986,5.104 24.958,5.037C24.931,4.97 24.89,4.909 24.839,4.857C24.788,4.806 24.727,4.765 24.66,4.737C24.593,4.71 24.522,4.695 24.449,4.695L10.051,4.7ZM10.969,1.5L10.993,3.2L23.5,3.2L23.5,2.529L10.969,1.5Z" style="fill-rule:nonzero;"/>
    </g>
</svg>
