<?xml version="1.0" encoding="UTF-8" standalone="no"?>
<!DOCTYPE svg PUBLIC "-//W3C//DTD SVG 1.1//EN" "http://www.w3.org/Graphics/SVG/1.1/DTD/svg11.dtd">
<svg width="100%" height="100%" viewBox="0 0 24 24" version="1.1" xmlns="http://www.w3.org/2000/svg" xmlns:xlink="http://www.w3.org/1999/xlink" xml:space="preserve" xmlns:serif="http://www.serif.com/" style="fill-rule:evenodd;clip-rule:evenodd;stroke-linejoin:round;stroke-miterlimit:2;">
    <g transform="matrix(1,0,0,1,0,0.5)">
        <path d="M18.436,22.446L6.06,22.446C5.226,22.446 4.426,22.114 3.836,21.524C3.245,20.935 2.913,20.135 2.911,19.3L2.911,11.316L1.29,13.009C1.153,13.153 0.964,13.236 0.765,13.24C0.566,13.245 0.374,13.17 0.23,13.032C0.087,12.895 0.004,12.706 0,12.507C-0.004,12.309 0.07,12.116 0.207,11.972L11.457,0.221C11.602,0.079 11.796,0 11.999,0C12.201,0 12.396,0.079 12.54,0.221L20.084,8.1L20.084,4.922C20.084,4.723 20.163,4.533 20.304,4.392C20.445,4.251 20.635,4.172 20.834,4.172C21.033,4.172 21.224,4.251 21.365,4.392C21.505,4.533 21.584,4.723 21.584,4.922L21.584,9.668L23.784,11.968C23.922,12.112 23.996,12.304 23.992,12.503C23.988,12.702 23.905,12.891 23.761,13.028C23.618,13.166 23.426,13.24 23.227,13.236C23.029,13.232 22.84,13.149 22.702,13.005L21.58,11.832L21.58,19.3C21.579,20.134 21.247,20.933 20.658,21.523C20.069,22.112 19.27,22.444 18.436,22.446ZM11.998,1.824L4.412,9.748L4.412,19.3C4.413,19.738 4.587,20.157 4.896,20.466C5.205,20.775 5.624,20.949 6.061,20.949L18.436,20.949C18.873,20.949 19.292,20.775 19.601,20.466C19.91,20.157 20.084,19.737 20.084,19.3L20.084,10.27L11.998,1.824Z" style="fill-rule:nonzero;"/>
    </g>
</svg>
