<?xml version="1.0" encoding="UTF-8" standalone="no"?>
<!DOCTYPE svg PUBLIC "-//W3C//DTD SVG 1.1//EN" "http://www.w3.org/Graphics/SVG/1.1/DTD/svg11.dtd">
<svg width="100%" height="100%" viewBox="0 0 24 24" version="1.1" xmlns="http://www.w3.org/2000/svg" xmlns:xlink="http://www.w3.org/1999/xlink" xml:space="preserve" xmlns:serif="http://www.serif.com/" style="fill-rule:evenodd;clip-rule:evenodd;stroke-linejoin:round;stroke-miterlimit:2;">
    <g transform="matrix(1,0,0,1,-6.00001,-8.88178e-16)">
        <path d="M20.459,16.172L17.144,6.228C17.021,5.86 17.221,5.462 17.589,5.339C17.957,5.216 18.356,5.415 18.478,5.784L21.793,15.727C21.916,16.096 21.717,16.494 21.348,16.617C21.274,16.641 21.199,16.653 21.126,16.653C20.831,16.653 20.557,16.467 20.459,16.172Z" style="fill-rule:nonzero;"/>
    </g>
    <g transform="matrix(1,0,0,1,-6.00001,-8.88178e-16)">
        <path d="M15.491,13.087C14.328,13.087 13.382,12.141 13.382,10.978C13.382,9.815 14.328,8.869 15.491,8.869C16.654,8.869 17.601,9.815 17.601,10.978C17.601,12.141 16.654,13.087 15.491,13.087ZM15.491,10.275C15.104,10.275 14.788,10.59 14.788,10.978C14.788,11.366 15.104,11.681 15.491,11.681C15.879,11.681 16.194,11.366 16.194,10.978C16.194,10.59 15.879,10.275 15.491,10.275Z" style="fill-rule:nonzero;"/>
    </g>
    <g transform="matrix(1,0,0,1,-6.00001,-8.88178e-16)">
        <path d="M23.446,8.869C24.609,8.869 25.555,9.815 25.555,10.978C25.555,12.141 24.609,13.087 23.446,13.087C22.283,13.087 21.336,12.141 21.336,10.978C21.336,9.815 22.283,8.869 23.446,8.869ZM23.446,11.681C23.834,11.681 24.149,11.366 24.149,10.978C24.149,10.59 23.834,10.275 23.446,10.275C23.058,10.275 22.743,10.59 22.743,10.978C22.743,11.366 23.058,11.681 23.446,11.681Z" style="fill-rule:nonzero;"/>
    </g>
    <g transform="matrix(1,0,0,1,-6.00001,-8.88178e-16)">
        <path d="M6.141,8.719L8.593,5.45L8.497,4.78C8.466,4.561 8.539,4.34 8.696,4.183L10.187,2.692L8.696,1.2C8.421,0.926 8.421,0.481 8.696,0.206C8.97,-0.069 9.416,-0.069 9.69,0.206L11.182,1.697L12.673,0.206C12.83,0.049 13.051,-0.024 13.27,0.007L20.231,1.001C20.381,1.023 20.521,1.093 20.628,1.2L29.246,9.818C30.251,10.823 30.251,12.459 29.246,13.464L21.954,20.756C21.805,20.905 21.642,21.032 21.469,21.137L21.469,21.422C21.469,22.843 20.312,24 18.891,24L8.578,24C7.157,24 6,22.843 6,21.422L6,9.141C6,8.989 6.049,8.84 6.141,8.719ZM28.252,12.47C28.709,12.013 28.709,11.269 28.252,10.813L19.8,2.36L13.419,1.449L12.176,2.692L13.17,3.686L13.668,3.189C13.942,2.914 14.387,2.914 14.662,3.189C14.937,3.464 14.937,3.909 14.662,4.183L12.673,6.172C12.536,6.309 12.356,6.378 12.176,6.378C11.996,6.378 11.816,6.309 11.679,6.172C11.404,5.898 11.404,5.452 11.679,5.178L12.176,4.681L11.182,3.686L9.939,4.929L10.85,11.31L19.302,19.762C19.524,19.983 19.818,20.105 20.131,20.105C20.444,20.105 20.738,19.983 20.96,19.762L28.252,12.47ZM7.406,21.422C7.406,22.068 7.932,22.594 8.578,22.594L18.891,22.594C19.508,22.594 20.015,22.114 20.059,21.508C19.423,21.491 18.792,21.241 18.308,20.756L9.69,12.138C9.583,12.031 9.513,11.891 9.491,11.741L8.874,7.418L7.406,9.375L7.406,21.422Z" style="fill-rule:nonzero;"/>
    </g>
</svg>
