<?xml version="1.0" encoding="UTF-8" standalone="no"?>
<!DOCTYPE svg PUBLIC "-//W3C//DTD SVG 1.1//EN" "http://www.w3.org/Graphics/SVG/1.1/DTD/svg11.dtd">
<svg width="100%" height="100%" viewBox="0 0 24 24" version="1.1" xmlns="http://www.w3.org/2000/svg" xmlns:xlink="http://www.w3.org/1999/xlink" xml:space="preserve" xmlns:serif="http://www.serif.com/" style="fill-rule:evenodd;clip-rule:evenodd;stroke-linejoin:round;stroke-miterlimit:2;">
    <g transform="matrix(1,0,0,1,-9.5,-0.5)">
        <g transform="matrix(1,0,0,1,0.4964,0.499605)">
            <path d="M21,17C20.011,17 19.044,16.707 18.222,16.157C17.4,15.608 16.759,14.827 16.381,13.913C16.002,13 15.903,11.995 16.096,11.025C16.289,10.055 16.765,9.164 17.465,8.464C18.164,7.765 19.055,7.289 20.025,7.096C20.994,6.903 22,7.002 22.913,7.381C23.827,7.759 24.608,8.4 25.157,9.222C25.707,10.044 26,11.011 26,12C25.998,13.326 25.471,14.596 24.534,15.534C23.596,16.471 22.326,16.998 21,17ZM21,8.5C20.308,8.5 19.631,8.705 19.055,9.09C18.48,9.474 18.031,10.021 17.766,10.661C17.502,11.3 17.432,12.004 17.567,12.683C17.702,13.362 18.036,13.985 18.525,14.475C19.015,14.964 19.638,15.298 20.317,15.433C20.996,15.568 21.7,15.499 22.339,15.234C22.979,14.969 23.526,14.52 23.91,13.945C24.295,13.369 24.5,12.692 24.5,12C24.5,11.072 24.131,10.182 23.475,9.525C22.819,8.869 21.928,8.5 21,8.5Z" style="fill-rule:nonzero;"/>
        </g>
        <g transform="matrix(1,0,0,1,0.4964,0.499605)">
            <path d="M21,24C20.524,24.006 20.056,23.877 19.65,23.63C19.243,23.382 18.914,23.026 18.7,22.6L18.542,22.3C18.262,21.756 17.798,21.329 17.233,21.095C16.668,20.861 16.038,20.835 15.455,21.021L15.13,21.121C14.871,21.205 14.602,21.247 14.33,21.248C13.923,21.245 13.523,21.147 13.161,20.96C12.799,20.774 12.487,20.505 12.248,20.175C12.008,19.848 11.849,19.468 11.785,19.066C11.721,18.665 11.753,18.254 11.88,17.868L11.98,17.543C12.168,16.96 12.143,16.33 11.908,15.764C11.674,15.198 11.246,14.734 10.7,14.455L10.4,14.3C9.978,14.082 9.624,13.753 9.377,13.347C9.129,12.941 8.999,12.475 8.999,12C8.999,11.525 9.129,11.059 9.377,10.653C9.624,10.248 9.978,9.918 10.4,9.7L10.7,9.545C11.246,9.267 11.675,8.803 11.91,8.237C12.145,7.672 12.171,7.041 11.984,6.457L11.884,6.132C11.757,5.746 11.725,5.336 11.789,4.935C11.853,4.534 12.012,4.154 12.252,3.826C12.569,3.383 13.02,3.053 13.537,2.882C14.055,2.712 14.614,2.712 15.132,2.88L15.457,2.98C15.712,3.061 15.978,3.102 16.245,3.102C16.72,3.104 17.187,2.974 17.593,2.727C17.999,2.48 18.328,2.125 18.545,1.702L18.7,1.4C18.917,0.977 19.247,0.622 19.652,0.374C20.058,0.126 20.525,-0.005 21,-0.005C21.476,-0.005 21.942,0.126 22.348,0.374C22.754,0.622 23.083,0.977 23.3,1.4L23.458,1.7C23.675,2.123 24.005,2.478 24.411,2.725C24.816,2.972 25.283,3.102 25.758,3.1C26.025,3.1 26.291,3.059 26.546,2.978L26.871,2.878C27.39,2.709 27.949,2.709 28.468,2.879C28.987,3.049 29.438,3.38 29.755,3.824C29.996,4.152 30.154,4.532 30.218,4.933C30.282,5.334 30.25,5.744 30.123,6.13L30.023,6.455C29.835,7.038 29.86,7.669 30.095,8.235C30.329,8.801 30.757,9.265 31.302,9.544L31.602,9.699C32.024,9.917 32.378,10.247 32.626,10.653C32.873,11.058 33.004,11.524 33.004,11.999C33.004,12.474 32.873,12.94 32.626,13.346C32.378,13.752 32.024,14.081 31.602,14.299L31.302,14.454C30.757,14.733 30.329,15.197 30.094,15.763C29.86,16.329 29.835,16.959 30.023,17.542L30.123,17.867C30.25,18.253 30.282,18.664 30.218,19.065C30.154,19.467 29.996,19.847 29.755,20.174C29.517,20.504 29.204,20.773 28.842,20.959C28.48,21.145 28.08,21.244 27.673,21.247C27.401,21.246 27.132,21.203 26.873,21.12L26.548,21.02C25.965,20.834 25.335,20.86 24.77,21.094C24.205,21.328 23.741,21.755 23.461,22.299L23.303,22.599C23.089,23.025 22.76,23.382 22.353,23.63C21.945,23.878 21.477,24.006 21,24ZM16.245,19.393C16.996,19.392 17.733,19.598 18.374,19.988C19.015,20.379 19.535,20.94 19.877,21.608L20.034,21.908C20.125,22.086 20.264,22.234 20.434,22.338C20.604,22.442 20.8,22.497 21,22.497C21.199,22.497 21.395,22.442 21.565,22.338C21.735,22.234 21.874,22.086 21.965,21.908L22.122,21.608C22.565,20.749 23.298,20.075 24.191,19.705C25.084,19.335 26.079,19.293 27,19.587L27.325,19.687C27.436,19.724 27.552,19.743 27.669,19.743C27.84,19.741 28.008,19.698 28.159,19.619C28.31,19.539 28.441,19.425 28.54,19.286C28.641,19.149 28.707,18.99 28.734,18.822C28.76,18.654 28.745,18.482 28.691,18.321L28.591,17.996C28.294,17.076 28.335,16.079 28.705,15.186C29.075,14.292 29.751,13.559 30.612,13.118L30.912,12.962C31.09,12.871 31.239,12.733 31.343,12.562C31.447,12.392 31.502,12.196 31.502,11.996C31.502,11.797 31.447,11.601 31.343,11.43C31.239,11.26 31.09,11.121 30.912,11.03L30.612,10.874C29.751,10.434 29.075,9.702 28.704,8.809C28.333,7.916 28.292,6.921 28.587,6L28.687,5.675C28.741,5.514 28.756,5.342 28.729,5.174C28.703,5.006 28.637,4.846 28.536,4.709C28.437,4.57 28.306,4.457 28.155,4.378C28.004,4.298 27.836,4.256 27.665,4.253C27.548,4.254 27.432,4.273 27.321,4.309L26.996,4.409C26.075,4.704 25.08,4.663 24.187,4.293C23.294,3.923 22.561,3.249 22.118,2.389L21.961,2.089C21.87,1.912 21.731,1.763 21.561,1.659C21.391,1.555 21.195,1.5 20.996,1.5C20.796,1.5 20.6,1.555 20.43,1.659C20.26,1.763 20.121,1.912 20.03,2.089L19.873,2.389C19.431,3.248 18.699,3.923 17.807,4.293C16.915,4.664 15.921,4.706 15,4.413L14.675,4.313C14.564,4.277 14.448,4.258 14.331,4.257C14.16,4.26 13.993,4.302 13.841,4.382C13.69,4.461 13.559,4.574 13.46,4.713C13.359,4.85 13.293,5.01 13.267,5.178C13.241,5.346 13.256,5.518 13.31,5.679L13.41,6.004C13.707,6.925 13.666,7.921 13.296,8.815C12.926,9.708 12.25,10.441 11.389,10.882L11.089,11.038C10.911,11.129 10.762,11.268 10.658,11.438C10.554,11.609 10.499,11.805 10.499,12.004C10.499,12.204 10.554,12.4 10.658,12.57C10.762,12.741 10.911,12.879 11.089,12.97L11.389,13.126C12.25,13.567 12.926,14.299 13.296,15.191C13.667,16.084 13.709,17.08 13.413,18L13.313,18.325C13.259,18.486 13.244,18.658 13.27,18.826C13.296,18.994 13.362,19.153 13.463,19.29C13.562,19.429 13.693,19.543 13.844,19.623C13.995,19.702 14.163,19.745 14.334,19.747C14.451,19.747 14.567,19.728 14.678,19.691L15.003,19.591C15.404,19.462 15.823,19.395 16.245,19.393Z" style="fill-rule:nonzero;"/>
        </g>
    </g>
</svg>
