<?xml version="1.0" encoding="UTF-8" standalone="no"?>
<!DOCTYPE svg PUBLIC "-//W3C//DTD SVG 1.1//EN" "http://www.w3.org/Graphics/SVG/1.1/DTD/svg11.dtd">
<svg width="100%" height="100%" viewBox="0 0 24 24" version="1.1" xmlns="http://www.w3.org/2000/svg" xmlns:xlink="http://www.w3.org/1999/xlink" xml:space="preserve" xmlns:serif="http://www.serif.com/" style="fill-rule:evenodd;clip-rule:evenodd;stroke-linejoin:round;stroke-miterlimit:2;">
    <g transform="matrix(0.923077,0,0,0.923077,-3.23077,0)">
        <path d="M16.5,26C15.28,25.835 14.154,25.262 13.308,24.375C12,23.18 10.846,21.83 9.872,20.355C7.483,16.845 6,13.031 6,10.4C6,7.642 7.106,4.996 9.075,3.046C11.044,1.096 13.715,0 16.5,0C19.285,0 21.956,1.096 23.925,3.046C25.894,4.996 27,7.642 27,10.4C27,13.03 25.517,16.845 23.128,20.354C22.154,21.829 21,23.18 19.692,24.375C18.846,25.262 17.72,25.836 16.5,26ZM16.5,1.625C14.151,1.628 11.899,2.553 10.238,4.198C8.577,5.843 7.643,8.074 7.641,10.4C7.641,15.708 14.112,24.375 16.5,24.375C18.888,24.375 25.359,15.708 25.359,10.4C25.357,8.074 24.423,5.843 22.762,4.198C21.101,2.553 18.849,1.628 16.5,1.625Z" style="fill-rule:nonzero;"/>
    </g>
    <g transform="matrix(0.923077,0,0,0.923077,-3.23077,0)">
        <path d="M16.5,15.167C15.418,15.167 14.361,14.849 13.462,14.254C12.562,13.659 11.862,12.813 11.448,11.823C11.034,10.833 10.925,9.744 11.136,8.693C11.347,7.643 11.868,6.677 12.633,5.92C13.398,5.162 14.372,4.646 15.433,4.437C16.494,4.228 17.594,4.336 18.593,4.746C19.592,5.156 20.446,5.85 21.047,6.741C21.648,7.631 21.969,8.679 21.969,9.75C21.967,11.186 21.39,12.563 20.365,13.578C19.34,14.594 17.95,15.165 16.5,15.167ZM16.5,5.958C15.743,5.958 15.003,6.181 14.373,6.597C13.744,7.014 13.253,7.606 12.963,8.299C12.674,8.992 12.598,9.754 12.745,10.49C12.893,11.225 13.258,11.901 13.793,12.431C14.329,12.961 15.011,13.323 15.753,13.469C16.496,13.615 17.266,13.54 17.965,13.253C18.665,12.966 19.262,12.48 19.683,11.857C20.104,11.233 20.328,10.5 20.328,9.75C20.328,8.744 19.925,7.78 19.207,7.069C18.489,6.358 17.515,5.958 16.5,5.958Z" style="fill-rule:nonzero;"/>
    </g>
</svg>
