<svg xmlns="http://www.w3.org/2000/svg" width="25" height="25" viewBox="0 0 25 25"><defs><style>.a{fill:#fff;}.b{fill:#4bdf77;}</style></defs><g transform="translate(-82 -266)"><path class="a" d="M12.5,0A12.5,12.5,0,1,1,0,12.5,12.5,12.5,0,0,1,12.5,0Z" transform="translate(82 266)"/><path class="b" d="M4.615,14.369.2,10.016a.663.663,0,0,1,0-.947l.961-.947a.686.686,0,0,1,.961,0L5.1,11.054l6.371-6.281a.686.686,0,0,1,.961,0l.961.947a.663.663,0,0,1,0,.947l-7.813,7.7A.686.686,0,0,1,4.615,14.369Z" transform="translate(87.706 268.929)"/></g></svg>
