<svg width="250" height="95" viewBox="0 0 250 95" fill="none" xmlns="http://www.w3.org/2000/svg">
<path d="M126.993 0.974436H145.844C139.396 3.95573 134.974 10.1365 135.589 17.0911C136.493 27.2677 145.844 31.2064 145.844 43.206C145.752 46.9092 144.688 50.5239 142.758 53.6902C140.827 56.8565 138.098 59.464 134.842 61.2531L117.687 56.563C120.559 55.3371 123.003 53.2923 124.711 50.686C126.418 48.0797 127.314 45.0284 127.285 41.9162C126.887 32.2555 117.687 27.8321 117.687 16.9024C117.618 13.6518 118.45 10.4451 120.091 7.63502C121.733 4.82492 124.121 2.52024 126.993 0.974436" fill="white"/>
<path d="M167.313 51.3899V13.8415H155.826V0.976177H194.025V13.8415H182.427V51.3899H167.313Z" fill="white"/>
<path d="M0 26.2657C0.0391432 31.4692 1.61674 36.5458 4.5357 40.8614C7.45466 45.1769 11.5855 48.54 16.4123 50.5305C21.239 52.521 26.5476 53.0505 31.6747 52.0531C36.8019 51.0556 41.5203 48.5754 45.2404 44.9222L34.9458 34.7335C33.2718 36.3737 31.1486 37.4846 28.8428 37.9267C26.537 38.3688 24.1515 38.1224 21.9859 37.2185C19.8202 36.3145 17.971 34.7933 16.6705 32.8458C15.37 30.8984 14.6762 28.6116 14.6762 26.2726C14.6762 23.9337 15.37 21.6469 16.6705 19.6994C17.971 17.752 19.8202 16.2307 21.9859 15.3268C24.1515 14.4228 26.537 14.1764 28.8428 14.6185C31.1486 15.0606 33.2718 16.1716 34.9458 17.8118L45.2404 7.61961C41.5206 3.96781 36.8032 1.48846 31.6773 0.491124C26.5514 -0.50621 21.2441 0.0226693 16.4181 2.01173C11.5921 4.00078 7.46126 7.36187 4.54139 11.6753C1.62151 15.9888 0.0419747 21.0634 0 26.2657" fill="white"/>
<path d="M79.3085 52.5862C75.8245 52.5985 72.3725 51.9244 69.151 50.6028C65.9295 49.2812 63.0021 47.3381 60.5373 44.8854C58.0756 42.4493 56.1219 39.5523 54.7887 36.3612C53.4556 33.17 52.7692 29.7477 52.7692 26.2912C52.7692 22.8348 53.4556 19.4124 54.7887 16.2213C56.1219 13.0301 58.0756 10.1331 60.5373 7.69707C65.5326 2.76983 72.2785 0.00578308 79.3085 0.00578308C86.3386 0.00578308 93.0845 2.76983 98.0798 7.69707C100.542 10.1328 102.496 13.0296 103.83 16.2209C105.163 19.4121 105.85 22.8346 105.85 26.2912C105.85 29.7479 105.163 33.1704 103.83 36.3616C102.496 39.5528 100.542 42.4497 98.0798 44.8854C95.6142 47.337 92.6867 49.2794 89.4653 50.6009C86.244 51.9225 82.7923 52.5971 79.3085 52.5862ZM78.8445 14.4093C76.4913 14.4247 74.1954 15.1339 72.2464 16.4473C70.2973 17.7608 68.7824 19.6198 67.8926 21.7898C67.0029 23.9598 66.7782 26.3437 67.2468 28.6407C67.7155 30.9378 68.8565 33.0452 70.5261 34.6971C72.1956 36.349 74.3188 37.4715 76.6279 37.923C78.9371 38.3744 81.3287 38.1346 83.5013 37.2339C85.6738 36.3331 87.5298 34.8117 88.8354 32.8615C90.1409 30.9113 90.8375 28.6197 90.8372 26.2756C90.8229 23.1191 89.5523 20.097 87.304 17.8724C85.0557 15.6479 82.0134 14.4024 78.8445 14.4093Z" fill="white"/>
<path d="M214.933 51.3881H199.398L215.506 0.974445H233.891L250 51.3847H234.434L232.367 42.6987H217.013L214.927 51.3795L214.933 51.3881ZM224.282 12.3127L219.658 31.6323H229.708L225.083 12.3127H224.282Z" fill="white"/>
<path d="M109.614 73.7634H125.083V77.7904H114.355V81.7724H123.258V85.7959H114.355V93.9019H109.614V73.7634Z" fill="white"/>
<path d="M131.567 73.7634H147.036V77.7904H136.309V81.7724H145.211V85.7959H136.309V93.9019H131.567V73.7634Z" fill="white"/>
<path d="M74.1847 87.0892C73.5014 88.1601 72.4956 88.9881 71.3112 89.455C70.1268 89.9218 68.8245 90.0035 67.5906 89.6883C66.3568 89.3731 65.2547 88.6771 64.442 87.7001C63.6293 86.7231 63.1478 85.515 63.0662 84.2488C62.9847 82.9826 63.3074 81.7232 63.9881 80.6507C64.6688 79.5783 65.6726 78.7478 66.8559 78.2782C68.0392 77.8086 69.3414 77.7239 70.576 78.0361C71.8105 78.3484 72.9143 79.0418 73.7293 80.0169L76.8717 76.9092C75.7103 75.6064 74.2397 74.6143 72.5943 74.0233C70.9489 73.4324 69.181 73.2614 67.4522 73.5261C65.7234 73.7909 64.0887 74.4828 62.6974 75.5387C61.3061 76.5946 60.2026 77.9809 59.4876 79.571C58.7726 81.1611 58.4688 82.9042 58.6042 84.6413C58.7395 86.3784 59.3096 88.054 60.2623 89.5152C61.215 90.9763 62.52 92.1764 64.0582 93.0059C65.5964 93.8354 67.3187 94.2679 69.0678 94.2637C70.6627 94.2551 72.2348 93.8864 73.666 93.1853C75.0972 92.4842 76.3501 91.469 77.3306 90.2159L74.1847 87.0892Z" fill="white"/>
<path d="M158.308 89.8645V85.7977H167.212V81.7689H158.308V77.787H168.774V73.7634H153.566V93.9036H169.19V89.8645H158.308Z" fill="white"/>
<path d="M191.474 77.7904V73.7617H176.265V93.9036H191.889V89.8628H181.009V85.7977H189.909V81.7707H181.009V77.7887L191.474 77.7904Z" fill="white"/>
<path d="M92.5301 94.2499C90.467 94.2396 88.4533 93.6209 86.7429 92.4717C85.0325 91.3225 83.7022 89.6945 82.9199 87.7929C82.1375 85.8914 81.9381 83.8016 82.3469 81.7873C82.7557 79.7731 83.7543 77.9245 85.2168 76.475C86.6792 75.0255 88.5399 74.04 90.5641 73.6428C92.5883 73.2457 94.6853 73.4547 96.5903 74.2435C98.4954 75.0322 100.123 76.3654 101.268 78.0748C102.413 79.7842 103.025 81.7932 103.025 83.8482C103.014 86.6128 101.904 89.2605 99.9365 91.2105C97.9691 93.1605 95.3055 94.2536 92.5301 94.2499ZM92.5527 77.8389C91.3652 77.8447 90.206 78.2007 89.2214 78.862C88.2368 79.5232 87.4708 80.4601 87.0201 81.5545C86.5694 82.6488 86.4541 83.8516 86.6889 85.0112C86.9236 86.1707 87.4978 87.235 88.3391 88.0699C89.1803 88.9047 90.251 89.4727 91.4159 89.7022C92.5809 89.9317 93.7879 89.8124 94.8849 89.3593C95.9819 88.9063 96.9195 88.1398 97.5797 87.1565C98.2398 86.1732 98.5929 85.0173 98.5943 83.8344C98.5901 82.2417 97.9515 80.7157 96.8188 79.5916C95.686 78.4674 94.1517 77.8371 92.5527 77.8389Z" fill="white"/>
</svg>
